<?xml version="1.0" encoding="us-ascii" standalone="no"?><svg xmlns="http://www.w3.org/2000/svg" xmlns:xlink="http://www.w3.org/1999/xlink" contentStyleType="text/css" height="702px" preserveAspectRatio="none" style="width:795px;height:702px;background:#FFFFFF;" version="1.1" viewBox="0 0 795 702" width="795px" zoomAndPan="magnify"><defs/><g><text fill="#000000" font-family="sans-serif" font-size="14" font-weight="bold" lengthAdjust="spacing" textLength="300" x="240.5" y="24.5332">Domain 10: Data Catalog Meta-Model (HUB)</text><text fill="#000000" font-family="sans-serif" font-size="14" font-weight="bold" lengthAdjust="spacing" textLength="4" x="388.5" y="42.1426">&#160;</text><!--cluster PKG_CATALOG--><g id="cluster_PKG_CATALOG"><rect fill="#90CAF9" height="633" rx="2.5" ry="2.5" style="stroke:#000000;stroke-width:1.5;" width="782" x="7" y="63.2188"/><text fill="#000000" font-family="sans-serif" font-size="11" font-style="italic" lengthAdjust="spacing" textLength="32" x="382" y="76.6377">&#171;D10&#187;</text><text fill="#000000" font-family="sans-serif" font-size="11" font-weight="bold" lengthAdjust="spacing" textLength="102" x="347" y="90.4736">&#128218; DATA CATALOG</text></g><!--class DataCatalog--><g id="elem_DataCatalog"><rect codeLine="15" fill="#F1F1F1" height="140.8516" id="DataCatalog" rx="2.5" ry="2.5" style="stroke:#181818;stroke-width:0.5;" width="214" x="335" y="109.2188"/><ellipse cx="409.25" cy="123.2188" fill="#ADD1B2" rx="9" ry="9" style="stroke:#181818;stroke-width:1.0;"/><path d="M410.7813,120.4844 Q410.875,120.3438 411,120.2734 Q411.125,120.2031 411.2656,120.2031 Q411.5,120.2031 411.6563,120.375 Q411.8125,120.5469 411.8125,120.9375 L411.8125,121.875 Q411.8125,122.2656 411.6563,122.4375 Q411.5,122.6094 411.2656,122.6094 Q411.0469,122.6094 410.9063,122.4844 Q410.7656,122.3594 410.7031,122.0313 Q410.6719,121.7969 410.5625,121.6719 Q410.3438,121.4375 409.9453,121.2891 Q409.5469,121.1406 409.1563,121.1406 Q408.6563,121.1406 408.2422,121.3594 Q407.8281,121.5781 407.5078,122.0625 Q407.1875,122.5469 407.1875,123.2031 L407.1875,123.9219 Q407.1875,124.7188 407.7656,125.25 Q408.3438,125.7813 409.375,125.7813 Q409.9844,125.7813 410.4063,125.6094 Q410.6563,125.5156 410.9375,125.2344 Q411.1094,125.0625 411.2031,125.0078 Q411.2969,124.9531 411.4219,124.9531 Q411.6406,124.9531 411.8125,125.125 Q411.9844,125.2969 411.9844,125.5156 Q411.9844,125.7344 411.75,126 Q411.4219,126.375 410.9063,126.5938 Q410.2188,126.875 409.375,126.875 Q408.4063,126.875 407.625,126.4844 Q406.9844,126.1563 406.5391,125.4609 Q406.0938,124.7656 406.0938,123.9375 L406.0938,123.1875 Q406.0938,122.3281 406.4922,121.5859 Q406.8906,120.8438 407.6016,120.4453 Q408.3125,120.0469 409.1094,120.0469 Q409.5781,120.0469 410,120.1563 Q410.4219,120.2656 410.7813,120.4844 Z " fill="#000000"/><text fill="#000000" font-family="sans-serif" font-size="11" lengthAdjust="spacing" textLength="58" x="426.75" y="127.7197">DataCatalog</text><line style="stroke:#181818;stroke-width:0.5;" x1="336" x2="548" y1="137.2188" y2="137.2188"/><text fill="#000000" font-family="sans-serif" font-size="11" lengthAdjust="spacing" textLength="41" x="341" y="152.6377">-id: UUID</text><text fill="#000000" font-family="sans-serif" font-size="11" lengthAdjust="spacing" textLength="64" x="341" y="166.4736">-name: String</text><text fill="#000000" font-family="sans-serif" font-size="11" lengthAdjust="spacing" textLength="91" x="341" y="180.3096">-description: String</text><text fill="#000000" font-family="sans-serif" font-size="11" lengthAdjust="spacing" textLength="96" x="341" y="194.1455">-totalEntries: Integer</text><line style="stroke:#181818;stroke-width:0.5;" x1="336" x2="548" y1="200.5625" y2="200.5625"/><text fill="#000000" font-family="sans-serif" font-size="11" lengthAdjust="spacing" textLength="183" x="341" y="215.9814">+search(query: String): CatalogEntry[]</text><text fill="#000000" font-family="sans-serif" font-size="11" lengthAdjust="spacing" textLength="202" x="341" y="229.8174">+browse(category: String): CatalogEntry[]</text><text fill="#000000" font-family="sans-serif" font-size="11" lengthAdjust="spacing" textLength="194" x="341" y="243.6533">+getPopular(limit: Integer): CatalogEntry[]</text></g><!--class CatalogEntry--><g id="elem_CatalogEntry"><rect codeLine="26" fill="#F1F1F1" height="168.5234" id="CatalogEntry" rx="2.5" ry="2.5" style="stroke:#181818;stroke-width:0.5;" width="138" x="294" y="310.2188"/><ellipse cx="329.05" cy="324.2188" fill="#ADD1B2" rx="9" ry="9" style="stroke:#181818;stroke-width:1.0;"/><path d="M330.5813,321.4844 Q330.675,321.3438 330.8,321.2734 Q330.925,321.2031 331.0656,321.2031 Q331.3,321.2031 331.4563,321.375 Q331.6125,321.5469 331.6125,321.9375 L331.6125,322.875 Q331.6125,323.2656 331.4563,323.4375 Q331.3,323.6094 331.0656,323.6094 Q330.8469,323.6094 330.7063,323.4844 Q330.5656,323.3594 330.5031,323.0313 Q330.4719,322.7969 330.3625,322.6719 Q330.1438,322.4375 329.7453,322.2891 Q329.3469,322.1406 328.9563,322.1406 Q328.4563,322.1406 328.0422,322.3594 Q327.6281,322.5781 327.3078,323.0625 Q326.9875,323.5469 326.9875,324.2031 L326.9875,324.9219 Q326.9875,325.7188 327.5656,326.25 Q328.1438,326.7813 329.175,326.7813 Q329.7844,326.7813 330.2063,326.6094 Q330.4563,326.5156 330.7375,326.2344 Q330.9094,326.0625 331.0031,326.0078 Q331.0969,325.9531 331.2219,325.9531 Q331.4406,325.9531 331.6125,326.125 Q331.7844,326.2969 331.7844,326.5156 Q331.7844,326.7344 331.55,327 Q331.2219,327.375 330.7063,327.5938 Q330.0188,327.875 329.175,327.875 Q328.2063,327.875 327.425,327.4844 Q326.7844,327.1563 326.3391,326.4609 Q325.8938,325.7656 325.8938,324.9375 L325.8938,324.1875 Q325.8938,323.3281 326.2922,322.5859 Q326.6906,321.8438 327.4016,321.4453 Q328.1125,321.0469 328.9094,321.0469 Q329.3781,321.0469 329.8,321.1563 Q330.2219,321.2656 330.5813,321.4844 Z " fill="#000000"/><text fill="#000000" font-family="sans-serif" font-size="11" lengthAdjust="spacing" textLength="61" x="345.95" y="328.7197">CatalogEntry</text><line style="stroke:#181818;stroke-width:0.5;" x1="295" x2="431" y1="338.2188" y2="338.2188"/><text fill="#000000" font-family="sans-serif" font-size="11" lengthAdjust="spacing" textLength="41" x="300" y="353.6377">-id: UUID</text><text fill="#000000" font-family="sans-serif" font-size="11" lengthAdjust="spacing" textLength="76" x="300" y="367.4736">-catalogId: UUID</text><text fill="#000000" font-family="sans-serif" font-size="11" lengthAdjust="spacing" textLength="68" x="300" y="381.3096">-assetId: UUID</text><text fill="#000000" font-family="sans-serif" font-size="11" lengthAdjust="spacing" textLength="54" x="300" y="395.1455">-title: String</text><text fill="#000000" font-family="sans-serif" font-size="11" lengthAdjust="spacing" textLength="90" x="300" y="408.9814">-popularity: Integer</text><text fill="#000000" font-family="sans-serif" font-size="11" lengthAdjust="spacing" textLength="74" x="300" y="422.8174">-rating: Decimal</text><line style="stroke:#181818;stroke-width:0.5;" x1="295" x2="431" y1="429.2344" y2="429.2344"/><text fill="#000000" font-family="sans-serif" font-size="11" lengthAdjust="spacing" textLength="64" x="300" y="444.6533">+view(): void</text><text fill="#000000" font-family="sans-serif" font-size="11" lengthAdjust="spacing" textLength="126" x="300" y="458.4893">+rate(score: Integer): void</text><text fill="#000000" font-family="sans-serif" font-size="11" lengthAdjust="spacing" textLength="115" x="300" y="472.3252">+getAsset(): DataAsset</text></g><!--class Collection--><g id="elem_Collection"><rect codeLine="39" fill="#F1F1F1" height="140.8516" id="Collection" rx="2.5" ry="2.5" style="stroke:#181818;stroke-width:0.5;" width="187" x="23.5" y="539.2188"/><ellipse cx="90.25" cy="553.2188" fill="#ADD1B2" rx="9" ry="9" style="stroke:#181818;stroke-width:1.0;"/><path d="M91.7813,550.4844 Q91.875,550.3438 92,550.2734 Q92.125,550.2031 92.2656,550.2031 Q92.5,550.2031 92.6563,550.375 Q92.8125,550.5469 92.8125,550.9375 L92.8125,551.875 Q92.8125,552.2656 92.6563,552.4375 Q92.5,552.6094 92.2656,552.6094 Q92.0469,552.6094 91.9063,552.4844 Q91.7656,552.3594 91.7031,552.0313 Q91.6719,551.7969 91.5625,551.6719 Q91.3438,551.4375 90.9453,551.2891 Q90.5469,551.1406 90.1563,551.1406 Q89.6563,551.1406 89.2422,551.3594 Q88.8281,551.5781 88.5078,552.0625 Q88.1875,552.5469 88.1875,553.2031 L88.1875,553.9219 Q88.1875,554.7188 88.7656,555.25 Q89.3438,555.7813 90.375,555.7813 Q90.9844,555.7813 91.4063,555.6094 Q91.6563,555.5156 91.9375,555.2344 Q92.1094,555.0625 92.2031,555.0078 Q92.2969,554.9531 92.4219,554.9531 Q92.6406,554.9531 92.8125,555.125 Q92.9844,555.2969 92.9844,555.5156 Q92.9844,555.7344 92.75,556 Q92.4219,556.375 91.9063,556.5938 Q91.2188,556.875 90.375,556.875 Q89.4063,556.875 88.625,556.4844 Q87.9844,556.1563 87.5391,555.4609 Q87.0938,554.7656 87.0938,553.9375 L87.0938,553.1875 Q87.0938,552.3281 87.4922,551.5859 Q87.8906,550.8438 88.6016,550.4453 Q89.3125,550.0469 90.1094,550.0469 Q90.5781,550.0469 91,550.1563 Q91.4219,550.2656 91.7813,550.4844 Z " fill="#000000"/><text fill="#000000" font-family="sans-serif" font-size="11" lengthAdjust="spacing" textLength="46" x="107.75" y="557.7197">Collection</text><line style="stroke:#181818;stroke-width:0.5;" x1="24.5" x2="209.5" y1="567.2188" y2="567.2188"/><text fill="#000000" font-family="sans-serif" font-size="11" lengthAdjust="spacing" textLength="41" x="29.5" y="582.6377">-id: UUID</text><text fill="#000000" font-family="sans-serif" font-size="11" lengthAdjust="spacing" textLength="64" x="29.5" y="596.4736">-name: String</text><text fill="#000000" font-family="sans-serif" font-size="11" lengthAdjust="spacing" textLength="73" x="29.5" y="610.3096">-ownerId: UUID</text><text fill="#000000" font-family="sans-serif" font-size="11" lengthAdjust="spacing" textLength="85" x="29.5" y="624.1455">-isPublic: Boolean</text><line style="stroke:#181818;stroke-width:0.5;" x1="24.5" x2="209.5" y1="630.5625" y2="630.5625"/><text fill="#000000" font-family="sans-serif" font-size="11" lengthAdjust="spacing" textLength="175" x="29.5" y="645.9814">+addEntry(entry: CatalogEntry): void</text><text fill="#000000" font-family="sans-serif" font-size="11" lengthAdjust="spacing" textLength="163" x="29.5" y="659.8174">+removeEntry(entryId: UUID): void</text><text fill="#000000" font-family="sans-serif" font-size="11" lengthAdjust="spacing" textLength="135" x="29.5" y="673.6533">+getEntries(): CatalogEntry[]</text></g><!--class Review--><g id="elem_Review"><rect codeLine="50" fill="#F1F1F1" height="140.8516" id="Review" rx="2.5" ry="2.5" style="stroke:#181818;stroke-width:0.5;" width="234" x="246" y="539.2188"/><ellipse cx="340.75" cy="553.2188" fill="#ADD1B2" rx="9" ry="9" style="stroke:#181818;stroke-width:1.0;"/><path d="M342.2813,550.4844 Q342.375,550.3438 342.5,550.2734 Q342.625,550.2031 342.7656,550.2031 Q343,550.2031 343.1563,550.375 Q343.3125,550.5469 343.3125,550.9375 L343.3125,551.875 Q343.3125,552.2656 343.1563,552.4375 Q343,552.6094 342.7656,552.6094 Q342.5469,552.6094 342.4063,552.4844 Q342.2656,552.3594 342.2031,552.0313 Q342.1719,551.7969 342.0625,551.6719 Q341.8438,551.4375 341.4453,551.2891 Q341.0469,551.1406 340.6563,551.1406 Q340.1563,551.1406 339.7422,551.3594 Q339.3281,551.5781 339.0078,552.0625 Q338.6875,552.5469 338.6875,553.2031 L338.6875,553.9219 Q338.6875,554.7188 339.2656,555.25 Q339.8438,555.7813 340.875,555.7813 Q341.4844,555.7813 341.9063,555.6094 Q342.1563,555.5156 342.4375,555.2344 Q342.6094,555.0625 342.7031,555.0078 Q342.7969,554.9531 342.9219,554.9531 Q343.1406,554.9531 343.3125,555.125 Q343.4844,555.2969 343.4844,555.5156 Q343.4844,555.7344 343.25,556 Q342.9219,556.375 342.4063,556.5938 Q341.7188,556.875 340.875,556.875 Q339.9063,556.875 339.125,556.4844 Q338.4844,556.1563 338.0391,555.4609 Q337.5938,554.7656 337.5938,553.9375 L337.5938,553.1875 Q337.5938,552.3281 337.9922,551.5859 Q338.3906,550.8438 339.1016,550.4453 Q339.8125,550.0469 340.6094,550.0469 Q341.0781,550.0469 341.5,550.1563 Q341.9219,550.2656 342.2813,550.4844 Z " fill="#000000"/><text fill="#000000" font-family="sans-serif" font-size="11" lengthAdjust="spacing" textLength="37" x="358.25" y="557.7197">Review</text><line style="stroke:#181818;stroke-width:0.5;" x1="247" x2="479" y1="567.2188" y2="567.2188"/><text fill="#000000" font-family="sans-serif" font-size="11" lengthAdjust="spacing" textLength="41" x="252" y="582.6377">-id: UUID</text><text fill="#000000" font-family="sans-serif" font-size="11" lengthAdjust="spacing" textLength="66" x="252" y="596.4736">-entryId: UUID</text><text fill="#000000" font-family="sans-serif" font-size="11" lengthAdjust="spacing" textLength="63" x="252" y="610.3096">-userId: UUID</text><text fill="#000000" font-family="sans-serif" font-size="11" lengthAdjust="spacing" textLength="70" x="252" y="624.1455">-rating: Integer</text><text fill="#000000" font-family="sans-serif" font-size="11" lengthAdjust="spacing" textLength="81" x="252" y="637.9814">-comment: String</text><line style="stroke:#181818;stroke-width:0.5;" x1="247" x2="479" y1="644.3984" y2="644.3984"/><text fill="#000000" font-family="sans-serif" font-size="11" lengthAdjust="spacing" textLength="222" x="252" y="659.8174">+update(rating: Integer, comment: String): void</text><text fill="#000000" font-family="sans-serif" font-size="11" lengthAdjust="spacing" textLength="69" x="252" y="673.6533">+delete(): void</text></g><!--class Recommendation--><g id="elem_Recommendation"><rect codeLine="61" fill="#F1F1F1" height="127.0156" id="Recommendation" rx="2.5" ry="2.5" style="stroke:#181818;stroke-width:0.5;" width="258" x="515" y="546.2188"/><ellipse cx="599.25" cy="560.2188" fill="#ADD1B2" rx="9" ry="9" style="stroke:#181818;stroke-width:1.0;"/><path d="M600.7813,557.4844 Q600.875,557.3438 601,557.2734 Q601.125,557.2031 601.2656,557.2031 Q601.5,557.2031 601.6563,557.375 Q601.8125,557.5469 601.8125,557.9375 L601.8125,558.875 Q601.8125,559.2656 601.6563,559.4375 Q601.5,559.6094 601.2656,559.6094 Q601.0469,559.6094 600.9063,559.4844 Q600.7656,559.3594 600.7031,559.0313 Q600.6719,558.7969 600.5625,558.6719 Q600.3438,558.4375 599.9453,558.2891 Q599.5469,558.1406 599.1563,558.1406 Q598.6563,558.1406 598.2422,558.3594 Q597.8281,558.5781 597.5078,559.0625 Q597.1875,559.5469 597.1875,560.2031 L597.1875,560.9219 Q597.1875,561.7188 597.7656,562.25 Q598.3438,562.7813 599.375,562.7813 Q599.9844,562.7813 600.4063,562.6094 Q600.6563,562.5156 600.9375,562.2344 Q601.1094,562.0625 601.2031,562.0078 Q601.2969,561.9531 601.4219,561.9531 Q601.6406,561.9531 601.8125,562.125 Q601.9844,562.2969 601.9844,562.5156 Q601.9844,562.7344 601.75,563 Q601.4219,563.375 600.9063,563.5938 Q600.2188,563.875 599.375,563.875 Q598.4063,563.875 597.625,563.4844 Q596.9844,563.1563 596.5391,562.4609 Q596.0938,561.7656 596.0938,560.9375 L596.0938,560.1875 Q596.0938,559.3281 596.4922,558.5859 Q596.8906,557.8438 597.6016,557.4453 Q598.3125,557.0469 599.1094,557.0469 Q599.5781,557.0469 600,557.1563 Q600.4219,557.2656 600.7813,557.4844 Z " fill="#000000"/><text fill="#000000" font-family="sans-serif" font-size="11" lengthAdjust="spacing" textLength="82" x="616.75" y="564.7197">Recommendation</text><line style="stroke:#181818;stroke-width:0.5;" x1="516" x2="772" y1="574.2188" y2="574.2188"/><text fill="#000000" font-family="sans-serif" font-size="11" lengthAdjust="spacing" textLength="41" x="521" y="589.6377">-id: UUID</text><text fill="#000000" font-family="sans-serif" font-size="11" lengthAdjust="spacing" textLength="63" x="521" y="603.4736">-userId: UUID</text><text fill="#000000" font-family="sans-serif" font-size="11" lengthAdjust="spacing" textLength="141" x="521" y="617.3096">-recommendationType: String</text><text fill="#000000" font-family="sans-serif" font-size="11" lengthAdjust="spacing" textLength="101" x="521" y="631.1455">-confidence: Decimal</text><line style="stroke:#181818;stroke-width:0.5;" x1="516" x2="772" y1="637.5625" y2="637.5625"/><text fill="#000000" font-family="sans-serif" font-size="11" lengthAdjust="spacing" textLength="83" x="521" y="652.9814">+generate(): void</text><text fill="#000000" font-family="sans-serif" font-size="11" lengthAdjust="spacing" textLength="246" x="521" y="666.8174">+getRecommendations(limit: Integer): CatalogEntry[]</text></g><!--class CatalogStatistics--><g id="elem_CatalogStatistics"><rect fill="#F1F1F1" height="44" id="CatalogStatistics" rx="2.5" ry="2.5" style="stroke:#181818;stroke-width:0.5;" width="108" x="467" y="372.7188"/><ellipse cx="480" cy="386.7188" fill="#ADD1B2" rx="9" ry="9" style="stroke:#181818;stroke-width:1.0;"/><path d="M481.5313,383.9844 Q481.625,383.8438 481.75,383.7734 Q481.875,383.7031 482.0156,383.7031 Q482.25,383.7031 482.4063,383.875 Q482.5625,384.0469 482.5625,384.4375 L482.5625,385.375 Q482.5625,385.7656 482.4063,385.9375 Q482.25,386.1094 482.0156,386.1094 Q481.7969,386.1094 481.6563,385.9844 Q481.5156,385.8594 481.4531,385.5313 Q481.4219,385.2969 481.3125,385.1719 Q481.0938,384.9375 480.6953,384.7891 Q480.2969,384.6406 479.9063,384.6406 Q479.4063,384.6406 478.9922,384.8594 Q478.5781,385.0781 478.2578,385.5625 Q477.9375,386.0469 477.9375,386.7031 L477.9375,387.4219 Q477.9375,388.2188 478.5156,388.75 Q479.0938,389.2813 480.125,389.2813 Q480.7344,389.2813 481.1563,389.1094 Q481.4063,389.0156 481.6875,388.7344 Q481.8594,388.5625 481.9531,388.5078 Q482.0469,388.4531 482.1719,388.4531 Q482.3906,388.4531 482.5625,388.625 Q482.7344,388.7969 482.7344,389.0156 Q482.7344,389.2344 482.5,389.5 Q482.1719,389.875 481.6563,390.0938 Q480.9688,390.375 480.125,390.375 Q479.1563,390.375 478.375,389.9844 Q477.7344,389.6563 477.2891,388.9609 Q476.8438,388.2656 476.8438,387.4375 L476.8438,386.6875 Q476.8438,385.8281 477.2422,385.0859 Q477.6406,384.3438 478.3516,383.9453 Q479.0625,383.5469 479.8594,383.5469 Q480.3281,383.5469 480.75,383.6563 Q481.1719,383.7656 481.5313,383.9844 Z " fill="#000000"/><text fill="#000000" font-family="sans-serif" font-size="11" lengthAdjust="spacing" textLength="80" x="492" y="391.2197">CatalogStatistics</text><line style="stroke:#181818;stroke-width:0.5;" x1="468" x2="574" y1="400.7188" y2="400.7188"/><line style="stroke:#181818;stroke-width:0.5;" x1="468" x2="574" y1="408.7188" y2="408.7188"/></g><!--reverse link DataCatalog to CatalogEntry--><g id="link_DataCatalog_CatalogEntry"><path codeLine="72" d="M383.5,262.4188 C383.5,281.5088 383.5,290.3588 383.5,310.1288 " fill="none" id="DataCatalog-backto-CatalogEntry" style="stroke:#181818;stroke-width:1.0;"/><polygon fill="#181818" points="383.5,250.4188,379.5,256.4188,383.5,262.4188,387.5,256.4188,383.5,250.4188" style="stroke:#181818;stroke-width:1.0;"/><polygon fill="#000000" points="333.5,277.1967,335.8511,269.9607,331.1489,269.9607,333.5,277.1967" style="stroke:#000000;stroke-width:1.0;"/><text fill="#000000" font-family="sans-serif" font-size="11" lengthAdjust="spacing" textLength="41" x="341.5" y="277.6977">contains</text><text fill="#000000" font-family="sans-serif" font-size="11" lengthAdjust="spacing" textLength="6" x="371.4461" y="269.4855">1</text><text fill="#000000" font-family="sans-serif" font-size="11" lengthAdjust="spacing" textLength="16" x="368.6914" y="299.9282">0..*</text></g><!--link CatalogEntry to Collection--><g id="link_CatalogEntry_Collection"><path codeLine="73" d="M293.82,395.2188 C221.06,395.2188 117,395.2188 117,395.2188 C117,395.2188 117,476.6688 117,539.1888 " fill="none" id="CatalogEntry-Collection" style="stroke:#181818;stroke-width:1.0;"/><polygon fill="#000000" points="70.3282,390.6623,77.4239,387.9167,74.4549,384.2703,70.3282,390.6623" style="stroke:#000000;stroke-width:1.0;"/><text fill="#000000" font-family="sans-serif" font-size="11" lengthAdjust="spacing" textLength="51" x="81.43" y="392.6377">grouped in</text><text fill="#000000" font-family="sans-serif" font-size="11" lengthAdjust="spacing" textLength="16" x="269.8608" y="393.0866">0..*</text><text fill="#000000" font-family="sans-serif" font-size="11" lengthAdjust="spacing" textLength="16" x="100.075" y="528.758">0..*</text></g><!--link CatalogEntry to Review--><g id="link_CatalogEntry_Review"><path codeLine="74" d="M363,479.3887 C363,499.1287 363,519.9488 363,539.0088 " fill="none" id="CatalogEntry-Review" style="stroke:#181818;stroke-width:1.0;"/><polygon fill="#000000" points="293,506.1167,295.3511,498.8807,290.6489,498.8807,293,506.1167" style="stroke:#000000;stroke-width:1.0;"/><text fill="#000000" font-family="sans-serif" font-size="11" lengthAdjust="spacing" textLength="61" x="301" y="506.6177">reviewed by</text><text fill="#000000" font-family="sans-serif" font-size="11" lengthAdjust="spacing" textLength="6" x="356.7609" y="498.1251">1</text><text fill="#000000" font-family="sans-serif" font-size="11" lengthAdjust="spacing" textLength="16" x="346.125" y="529.0367">0..*</text></g><!--link DataCatalog to CatalogStatistics--><g id="link_DataCatalog_CatalogStatistics"><path codeLine="77" d="M508,250.4188 C508,292.7588 508,343.7788 508,372.3988 " fill="none" id="DataCatalog-CatalogStatistics" style="stroke:#181818;stroke-width:1.0;"/><polygon fill="#000000" points="436,308.3267,438.3511,301.0907,433.6489,301.0907,436,308.3267" style="stroke:#000000;stroke-width:1.0;"/><text fill="#000000" font-family="sans-serif" font-size="11" lengthAdjust="spacing" textLength="63" x="444" y="308.8277">measured by</text><text fill="#000000" font-family="sans-serif" font-size="11" lengthAdjust="spacing" textLength="6" x="508.2016" y="269.4855">1</text><text fill="#000000" font-family="sans-serif" font-size="11" lengthAdjust="spacing" textLength="18" x="483.5375" y="362.4746">0..1</text></g><!--link CatalogEntry to Recommendation--><g id="link_CatalogEntry_Recommendation"><path codeLine="78" d="M432.07,448.2188 C483.55,448.2188 545,448.2188 545,448.2188 C545,448.2188 545,500.7488 545,545.8888 " fill="none" id="CatalogEntry-Recommendation" style="stroke:#181818;stroke-width:1.0;"/><polygon fill="#000000" points="452.3954,458.7533,448.4604,452.2415,445.3844,455.7981,452.3954,458.7533" style="stroke:#000000;stroke-width:1.0;"/><text fill="#000000" font-family="sans-serif" font-size="11" lengthAdjust="spacing" textLength="79" x="457.37" y="460.6377">recommended in</text><text fill="#000000" font-family="sans-serif" font-size="11" lengthAdjust="spacing" textLength="16" x="440.0178" y="451.5522">0..*</text><text fill="#000000" font-family="sans-serif" font-size="11" lengthAdjust="spacing" textLength="16" x="515.9594" y="535.7862">0..*</text></g><!--SRC=[dLNDJjj04BxxAQRfeIPjK7B4GaZ1WJOg49J0gQtGnXwS5UjTTtTDb5OyHM-zzCnpy49zX8wT7zQEARG-MFREVZFpVVjv_2h6QouHmlv5_sJq_YeSdOp6y7gl6_QFzppFt72PCSrIo5XqmnASs8L0q1XP9XE1pWOpOx6QSvd0DHF6ZKm9ccYLopXKGccOpxXruzG2ouKzLj9E-3U4Niy92khEBZ84fUrCEO58C6Fwrce-pIqE8oLBSDVpBBVKOxizK2dZ4dhT00RCCWZf9bG2fsXPvrJ5AC3_S7cuqsv_bfwt8WYjtxz-_8G1wR4MfGNCmFb74cVv3llxWrxtuA0csdSFw2flPMzbqNNDPR2uEi3Z02ulXmDdIR8K0vWG6Pauop6QIFFCSYKRebPHxYD9osW264gB2UfD_Efgy_WM338TpVolEUh5EjDEi5QaoB7uzCNPFzLgRj2F6ELKBuCaQCzLbWkcVS5JRZSTDOFkwcgvUvwJArhk7Mv7A1FQXlNI4mqQPikMkLriAzW1pInj9_jWn5CcchMzvJZtYUIjuh6pJ5ZqJQGqkahKDf5e_QBZ0b_OfNnvGXyb17rsP8N_D9EQIzGDqd1pday5Zm8uL4eWayqqMHoNP-DZSQ-UQGDxJDKjEe1ruKODLYRsNsYLCHQQFoT3fQopdfj66TPdlUs2IAKf9TkIj29FdiN5WTUolAk3j-dJ6482ke46miiqLE85v_yKmKgI2vgf3IQXCNhDOvGHFkFw1CbDhDRuva2h3Pj_dGXlYB5OGijtTvAsUYreTphGwkxkjblLiH4K_LiQ-WOEIc0bka8usCTFAe3Y3vLX3FJ7QCBsNE3AW05fMZmGQhfOeUhzquJ9TU55RX_k3NriIZpSem4_78t7H-75S7IsqyXnLQsteJYnbD5O7Xagd28pkNOB_vrgpK71enlMbE-yFm00]--></g></svg>