<?xml version="1.0" encoding="us-ascii" standalone="no"?><svg xmlns="http://www.w3.org/2000/svg" xmlns:xlink="http://www.w3.org/1999/xlink" contentStyleType="text/css" height="646px" preserveAspectRatio="none" style="width:781px;height:646px;background:#FFFFFF;" version="1.1" viewBox="0 0 781 646" width="781px" zoomAndPan="magnify"><defs/><g><text fill="#000000" font-family="sans-serif" font-size="14" font-weight="bold" lengthAdjust="spacing" textLength="252" x="257.5" y="24.5332">Domain 11: Data Search Meta-Model</text><text fill="#000000" font-family="sans-serif" font-size="14" font-weight="bold" lengthAdjust="spacing" textLength="4" x="381.5" y="42.1426">&#160;</text><!--cluster PKG_SEARCH--><g id="cluster_PKG_SEARCH"><rect fill="#FCE4EC" height="577" rx="2.5" ry="2.5" style="stroke:#000000;stroke-width:1.5;" width="768" x="7" y="63.2188"/><text fill="#000000" font-family="sans-serif" font-size="11" font-style="italic" lengthAdjust="spacing" textLength="32" x="375" y="76.6377">&#171;D11&#187;</text><text fill="#000000" font-family="sans-serif" font-size="11" font-weight="bold" lengthAdjust="spacing" textLength="91" x="345.5" y="90.4736">&#128269; DATA SEARCH</text></g><!--class SearchIndex--><g id="elem_SearchIndex"><rect codeLine="15" fill="#F1F1F1" height="140.8516" id="SearchIndex" rx="2.5" ry="2.5" style="stroke:#181818;stroke-width:0.5;" width="199" x="322.5" y="109.2188"/><ellipse cx="387.75" cy="123.2188" fill="#ADD1B2" rx="9" ry="9" style="stroke:#181818;stroke-width:1.0;"/><path d="M389.2813,120.4844 Q389.375,120.3438 389.5,120.2734 Q389.625,120.2031 389.7656,120.2031 Q390,120.2031 390.1563,120.375 Q390.3125,120.5469 390.3125,120.9375 L390.3125,121.875 Q390.3125,122.2656 390.1563,122.4375 Q390,122.6094 389.7656,122.6094 Q389.5469,122.6094 389.4063,122.4844 Q389.2656,122.3594 389.2031,122.0313 Q389.1719,121.7969 389.0625,121.6719 Q388.8438,121.4375 388.4453,121.2891 Q388.0469,121.1406 387.6563,121.1406 Q387.1563,121.1406 386.7422,121.3594 Q386.3281,121.5781 386.0078,122.0625 Q385.6875,122.5469 385.6875,123.2031 L385.6875,123.9219 Q385.6875,124.7188 386.2656,125.25 Q386.8438,125.7813 387.875,125.7813 Q388.4844,125.7813 388.9063,125.6094 Q389.1563,125.5156 389.4375,125.2344 Q389.6094,125.0625 389.7031,125.0078 Q389.7969,124.9531 389.9219,124.9531 Q390.1406,124.9531 390.3125,125.125 Q390.4844,125.2969 390.4844,125.5156 Q390.4844,125.7344 390.25,126 Q389.9219,126.375 389.4063,126.5938 Q388.7188,126.875 387.875,126.875 Q386.9063,126.875 386.125,126.4844 Q385.4844,126.1563 385.0391,125.4609 Q384.5938,124.7656 384.5938,123.9375 L384.5938,123.1875 Q384.5938,122.3281 384.9922,121.5859 Q385.3906,120.8438 386.1016,120.4453 Q386.8125,120.0469 387.6094,120.0469 Q388.0781,120.0469 388.5,120.1563 Q388.9219,120.2656 389.2813,120.4844 Z " fill="#000000"/><text fill="#000000" font-family="sans-serif" font-size="11" lengthAdjust="spacing" textLength="61" x="405.25" y="127.7197">SearchIndex</text><line style="stroke:#181818;stroke-width:0.5;" x1="323.5" x2="520.5" y1="137.2188" y2="137.2188"/><text fill="#000000" font-family="sans-serif" font-size="11" lengthAdjust="spacing" textLength="41" x="328.5" y="152.6377">-id: UUID</text><text fill="#000000" font-family="sans-serif" font-size="11" lengthAdjust="spacing" textLength="91" x="328.5" y="166.4736">-indexName: String</text><text fill="#000000" font-family="sans-serif" font-size="11" lengthAdjust="spacing" textLength="109" x="328.5" y="180.3096">-documentCount: Long</text><text fill="#000000" font-family="sans-serif" font-size="11" lengthAdjust="spacing" textLength="111" x="328.5" y="194.1455">-lastUpdated: DateTime</text><line style="stroke:#181818;stroke-width:0.5;" x1="323.5" x2="520.5" y1="200.5625" y2="200.5625"/><text fill="#000000" font-family="sans-serif" font-size="11" lengthAdjust="spacing" textLength="187" x="328.5" y="215.9814">+search(query: String): SearchResult[]</text><text fill="#000000" font-family="sans-serif" font-size="11" lengthAdjust="spacing" textLength="72" x="328.5" y="229.8174">+rebuild(): void</text><text fill="#000000" font-family="sans-serif" font-size="11" lengthAdjust="spacing" textLength="79" x="328.5" y="243.6533">+optimize(): void</text></g><!--class SearchResult--><g id="elem_SearchResult"><rect codeLine="26" fill="#F1F1F1" height="127.0156" id="SearchResult" rx="2.5" ry="2.5" style="stroke:#181818;stroke-width:0.5;" width="169" x="589.5" y="310.2188"/><ellipse cx="637.75" cy="324.2188" fill="#ADD1B2" rx="9" ry="9" style="stroke:#181818;stroke-width:1.0;"/><path d="M639.2813,321.4844 Q639.375,321.3438 639.5,321.2734 Q639.625,321.2031 639.7656,321.2031 Q640,321.2031 640.1563,321.375 Q640.3125,321.5469 640.3125,321.9375 L640.3125,322.875 Q640.3125,323.2656 640.1563,323.4375 Q640,323.6094 639.7656,323.6094 Q639.5469,323.6094 639.4063,323.4844 Q639.2656,323.3594 639.2031,323.0313 Q639.1719,322.7969 639.0625,322.6719 Q638.8438,322.4375 638.4453,322.2891 Q638.0469,322.1406 637.6563,322.1406 Q637.1563,322.1406 636.7422,322.3594 Q636.3281,322.5781 636.0078,323.0625 Q635.6875,323.5469 635.6875,324.2031 L635.6875,324.9219 Q635.6875,325.7188 636.2656,326.25 Q636.8438,326.7813 637.875,326.7813 Q638.4844,326.7813 638.9063,326.6094 Q639.1563,326.5156 639.4375,326.2344 Q639.6094,326.0625 639.7031,326.0078 Q639.7969,325.9531 639.9219,325.9531 Q640.1406,325.9531 640.3125,326.125 Q640.4844,326.2969 640.4844,326.5156 Q640.4844,326.7344 640.25,327 Q639.9219,327.375 639.4063,327.5938 Q638.7188,327.875 637.875,327.875 Q636.9063,327.875 636.125,327.4844 Q635.4844,327.1563 635.0391,326.4609 Q634.5938,325.7656 634.5938,324.9375 L634.5938,324.1875 Q634.5938,323.3281 634.9922,322.5859 Q635.3906,321.8438 636.1016,321.4453 Q636.8125,321.0469 637.6094,321.0469 Q638.0781,321.0469 638.5,321.1563 Q638.9219,321.2656 639.2813,321.4844 Z " fill="#000000"/><text fill="#000000" font-family="sans-serif" font-size="11" lengthAdjust="spacing" textLength="65" x="655.25" y="328.7197">SearchResult</text><line style="stroke:#181818;stroke-width:0.5;" x1="590.5" x2="757.5" y1="338.2188" y2="338.2188"/><text fill="#000000" font-family="sans-serif" font-size="11" lengthAdjust="spacing" textLength="41" x="595.5" y="353.6377">-id: UUID</text><text fill="#000000" font-family="sans-serif" font-size="11" lengthAdjust="spacing" textLength="68" x="595.5" y="367.4736">-assetId: UUID</text><text fill="#000000" font-family="sans-serif" font-size="11" lengthAdjust="spacing" textLength="75" x="595.5" y="381.3096">-score: Decimal</text><text fill="#000000" font-family="sans-serif" font-size="11" lengthAdjust="spacing" textLength="64" x="595.5" y="395.1455">-rank: Integer</text><line style="stroke:#181818;stroke-width:0.5;" x1="590.5" x2="757.5" y1="401.5625" y2="401.5625"/><text fill="#000000" font-family="sans-serif" font-size="11" lengthAdjust="spacing" textLength="115" x="595.5" y="416.9814">+getAsset(): DataAsset</text><text fill="#000000" font-family="sans-serif" font-size="11" lengthAdjust="spacing" textLength="157" x="595.5" y="430.8174">+getCatalogEntry(): CatalogEntry</text></g><!--class SearchCriteria--><g id="elem_SearchCriteria"><rect codeLine="36" fill="#F1F1F1" height="127.0156" id="SearchCriteria" rx="2.5" ry="2.5" style="stroke:#181818;stroke-width:0.5;" width="210" x="549" y="497.2188"/><ellipse cx="615.75" cy="511.2188" fill="#ADD1B2" rx="9" ry="9" style="stroke:#181818;stroke-width:1.0;"/><path d="M617.2813,508.4844 Q617.375,508.3438 617.5,508.2734 Q617.625,508.2031 617.7656,508.2031 Q618,508.2031 618.1563,508.375 Q618.3125,508.5469 618.3125,508.9375 L618.3125,509.875 Q618.3125,510.2656 618.1563,510.4375 Q618,510.6094 617.7656,510.6094 Q617.5469,510.6094 617.4063,510.4844 Q617.2656,510.3594 617.2031,510.0313 Q617.1719,509.7969 617.0625,509.6719 Q616.8438,509.4375 616.4453,509.2891 Q616.0469,509.1406 615.6563,509.1406 Q615.1563,509.1406 614.7422,509.3594 Q614.3281,509.5781 614.0078,510.0625 Q613.6875,510.5469 613.6875,511.2031 L613.6875,511.9219 Q613.6875,512.7188 614.2656,513.25 Q614.8438,513.7813 615.875,513.7813 Q616.4844,513.7813 616.9063,513.6094 Q617.1563,513.5156 617.4375,513.2344 Q617.6094,513.0625 617.7031,513.0078 Q617.7969,512.9531 617.9219,512.9531 Q618.1406,512.9531 618.3125,513.125 Q618.4844,513.2969 618.4844,513.5156 Q618.4844,513.7344 618.25,514 Q617.9219,514.375 617.4063,514.5938 Q616.7188,514.875 615.875,514.875 Q614.9063,514.875 614.125,514.4844 Q613.4844,514.1563 613.0391,513.4609 Q612.5938,512.7656 612.5938,511.9375 L612.5938,511.1875 Q612.5938,510.3281 612.9922,509.5859 Q613.3906,508.8438 614.1016,508.4453 Q614.8125,508.0469 615.6094,508.0469 Q616.0781,508.0469 616.5,508.1563 Q616.9219,508.2656 617.2813,508.4844 Z " fill="#000000"/><text fill="#000000" font-family="sans-serif" font-size="11" lengthAdjust="spacing" textLength="69" x="633.25" y="515.7197">SearchCriteria</text><line style="stroke:#181818;stroke-width:0.5;" x1="550" x2="758" y1="525.2188" y2="525.2188"/><text fill="#000000" font-family="sans-serif" font-size="11" lengthAdjust="spacing" textLength="93" x="555" y="540.6377">-keywords: String[]</text><text fill="#000000" font-family="sans-serif" font-size="11" lengthAdjust="spacing" textLength="70" x="555" y="554.4736">-sortBy: String</text><text fill="#000000" font-family="sans-serif" font-size="11" lengthAdjust="spacing" textLength="85" x="555" y="568.3096">-sortOrder: String</text><text fill="#000000" font-family="sans-serif" font-size="11" lengthAdjust="spacing" textLength="67" x="555" y="582.1455">-page: Integer</text><line style="stroke:#181818;stroke-width:0.5;" x1="550" x2="758" y1="588.5625" y2="588.5625"/><text fill="#000000" font-family="sans-serif" font-size="11" lengthAdjust="spacing" textLength="198" x="555" y="603.9814">+addFilter(key: String, value: String): void</text><text fill="#000000" font-family="sans-serif" font-size="11" lengthAdjust="spacing" textLength="96" x="555" y="617.8174">+validate(): Boolean</text></g><!--class Tag--><g id="elem_Tag"><rect codeLine="46" fill="#F1F1F1" height="127.0156" id="Tag" rx="2.5" ry="2.5" style="stroke:#181818;stroke-width:0.5;" width="171" x="167.5" y="497.2188"/><ellipse cx="240.25" cy="511.2188" fill="#ADD1B2" rx="9" ry="9" style="stroke:#181818;stroke-width:1.0;"/><path d="M241.7813,508.4844 Q241.875,508.3438 242,508.2734 Q242.125,508.2031 242.2656,508.2031 Q242.5,508.2031 242.6563,508.375 Q242.8125,508.5469 242.8125,508.9375 L242.8125,509.875 Q242.8125,510.2656 242.6563,510.4375 Q242.5,510.6094 242.2656,510.6094 Q242.0469,510.6094 241.9063,510.4844 Q241.7656,510.3594 241.7031,510.0313 Q241.6719,509.7969 241.5625,509.6719 Q241.3438,509.4375 240.9453,509.2891 Q240.5469,509.1406 240.1563,509.1406 Q239.6563,509.1406 239.2422,509.3594 Q238.8281,509.5781 238.5078,510.0625 Q238.1875,510.5469 238.1875,511.2031 L238.1875,511.9219 Q238.1875,512.7188 238.7656,513.25 Q239.3438,513.7813 240.375,513.7813 Q240.9844,513.7813 241.4063,513.6094 Q241.6563,513.5156 241.9375,513.2344 Q242.1094,513.0625 242.2031,513.0078 Q242.2969,512.9531 242.4219,512.9531 Q242.6406,512.9531 242.8125,513.125 Q242.9844,513.2969 242.9844,513.5156 Q242.9844,513.7344 242.75,514 Q242.4219,514.375 241.9063,514.5938 Q241.2188,514.875 240.375,514.875 Q239.4063,514.875 238.625,514.4844 Q237.9844,514.1563 237.5391,513.4609 Q237.0938,512.7656 237.0938,511.9375 L237.0938,511.1875 Q237.0938,510.3281 237.4922,509.5859 Q237.8906,508.8438 238.6016,508.4453 Q239.3125,508.0469 240.1094,508.0469 Q240.5781,508.0469 241,508.1563 Q241.4219,508.2656 241.7813,508.4844 Z " fill="#000000"/><text fill="#000000" font-family="sans-serif" font-size="11" lengthAdjust="spacing" textLength="18" x="257.75" y="515.7197">Tag</text><line style="stroke:#181818;stroke-width:0.5;" x1="168.5" x2="337.5" y1="525.2188" y2="525.2188"/><text fill="#000000" font-family="sans-serif" font-size="11" lengthAdjust="spacing" textLength="41" x="173.5" y="540.6377">-id: UUID</text><text fill="#000000" font-family="sans-serif" font-size="11" lengthAdjust="spacing" textLength="64" x="173.5" y="554.4736">-name: String</text><text fill="#000000" font-family="sans-serif" font-size="11" lengthAdjust="spacing" textLength="81" x="173.5" y="568.3096">-category: String</text><text fill="#000000" font-family="sans-serif" font-size="11" lengthAdjust="spacing" textLength="101" x="173.5" y="582.1455">-usageCount: Integer</text><line style="stroke:#181818;stroke-width:0.5;" x1="168.5" x2="337.5" y1="588.5625" y2="588.5625"/><text fill="#000000" font-family="sans-serif" font-size="11" lengthAdjust="spacing" textLength="127" x="173.5" y="603.9814">+getAssets(): DataAsset[]</text><text fill="#000000" font-family="sans-serif" font-size="11" lengthAdjust="spacing" textLength="159" x="173.5" y="617.8174">+rename(newName: String): void</text></g><!--class Glossary--><g id="elem_Glossary"><rect codeLine="56" fill="#F1F1F1" height="127.0156" id="Glossary" rx="2.5" ry="2.5" style="stroke:#181818;stroke-width:0.5;" width="189" x="25.5" y="116.2188"/><ellipse cx="94.25" cy="130.2188" fill="#ADD1B2" rx="9" ry="9" style="stroke:#181818;stroke-width:1.0;"/><path d="M95.7813,127.4844 Q95.875,127.3438 96,127.2734 Q96.125,127.2031 96.2656,127.2031 Q96.5,127.2031 96.6563,127.375 Q96.8125,127.5469 96.8125,127.9375 L96.8125,128.875 Q96.8125,129.2656 96.6563,129.4375 Q96.5,129.6094 96.2656,129.6094 Q96.0469,129.6094 95.9063,129.4844 Q95.7656,129.3594 95.7031,129.0313 Q95.6719,128.7969 95.5625,128.6719 Q95.3438,128.4375 94.9453,128.2891 Q94.5469,128.1406 94.1563,128.1406 Q93.6563,128.1406 93.2422,128.3594 Q92.8281,128.5781 92.5078,129.0625 Q92.1875,129.5469 92.1875,130.2031 L92.1875,130.9219 Q92.1875,131.7188 92.7656,132.25 Q93.3438,132.7813 94.375,132.7813 Q94.9844,132.7813 95.4063,132.6094 Q95.6563,132.5156 95.9375,132.2344 Q96.1094,132.0625 96.2031,132.0078 Q96.2969,131.9531 96.4219,131.9531 Q96.6406,131.9531 96.8125,132.125 Q96.9844,132.2969 96.9844,132.5156 Q96.9844,132.7344 96.75,133 Q96.4219,133.375 95.9063,133.5938 Q95.2188,133.875 94.375,133.875 Q93.4063,133.875 92.625,133.4844 Q91.9844,133.1563 91.5391,132.4609 Q91.0938,131.7656 91.0938,130.9375 L91.0938,130.1875 Q91.0938,129.3281 91.4922,128.5859 Q91.8906,127.8438 92.6016,127.4453 Q93.3125,127.0469 94.1094,127.0469 Q94.5781,127.0469 95,127.1563 Q95.4219,127.2656 95.7813,127.4844 Z " fill="#000000"/><text fill="#000000" font-family="sans-serif" font-size="11" lengthAdjust="spacing" textLength="44" x="111.75" y="134.7197">Glossary</text><line style="stroke:#181818;stroke-width:0.5;" x1="26.5" x2="213.5" y1="144.2188" y2="144.2188"/><text fill="#000000" font-family="sans-serif" font-size="11" lengthAdjust="spacing" textLength="41" x="31.5" y="159.6377">-id: UUID</text><text fill="#000000" font-family="sans-serif" font-size="11" lengthAdjust="spacing" textLength="64" x="31.5" y="173.4736">-name: String</text><text fill="#000000" font-family="sans-serif" font-size="11" lengthAdjust="spacing" textLength="72" x="31.5" y="187.3096">-domain: String</text><text fill="#000000" font-family="sans-serif" font-size="11" lengthAdjust="spacing" textLength="92" x="31.5" y="201.1455">-termCount: Integer</text><line style="stroke:#181818;stroke-width:0.5;" x1="26.5" x2="213.5" y1="207.5625" y2="207.5625"/><text fill="#000000" font-family="sans-serif" font-size="11" lengthAdjust="spacing" textLength="139" x="31.5" y="222.9814">+getTerms(): GlossaryTerm[]</text><text fill="#000000" font-family="sans-serif" font-size="11" lengthAdjust="spacing" textLength="177" x="31.5" y="236.8174">+addTerm(term: GlossaryTerm): void</text></g><!--class GlossaryTerm--><g id="elem_GlossaryTerm"><rect codeLine="66" fill="#F1F1F1" height="127.0156" id="GlossaryTerm" rx="2.5" ry="2.5" style="stroke:#181818;stroke-width:0.5;" width="193" x="23.5" y="310.2188"/><ellipse cx="82.25" cy="324.2188" fill="#ADD1B2" rx="9" ry="9" style="stroke:#181818;stroke-width:1.0;"/><path d="M83.7813,321.4844 Q83.875,321.3438 84,321.2734 Q84.125,321.2031 84.2656,321.2031 Q84.5,321.2031 84.6563,321.375 Q84.8125,321.5469 84.8125,321.9375 L84.8125,322.875 Q84.8125,323.2656 84.6563,323.4375 Q84.5,323.6094 84.2656,323.6094 Q84.0469,323.6094 83.9063,323.4844 Q83.7656,323.3594 83.7031,323.0313 Q83.6719,322.7969 83.5625,322.6719 Q83.3438,322.4375 82.9453,322.2891 Q82.5469,322.1406 82.1563,322.1406 Q81.6563,322.1406 81.2422,322.3594 Q80.8281,322.5781 80.5078,323.0625 Q80.1875,323.5469 80.1875,324.2031 L80.1875,324.9219 Q80.1875,325.7188 80.7656,326.25 Q81.3438,326.7813 82.375,326.7813 Q82.9844,326.7813 83.4063,326.6094 Q83.6563,326.5156 83.9375,326.2344 Q84.1094,326.0625 84.2031,326.0078 Q84.2969,325.9531 84.4219,325.9531 Q84.6406,325.9531 84.8125,326.125 Q84.9844,326.2969 84.9844,326.5156 Q84.9844,326.7344 84.75,327 Q84.4219,327.375 83.9063,327.5938 Q83.2188,327.875 82.375,327.875 Q81.4063,327.875 80.625,327.4844 Q79.9844,327.1563 79.5391,326.4609 Q79.0938,325.7656 79.0938,324.9375 L79.0938,324.1875 Q79.0938,323.3281 79.4922,322.5859 Q79.8906,321.8438 80.6016,321.4453 Q81.3125,321.0469 82.1094,321.0469 Q82.5781,321.0469 83,321.1563 Q83.4219,321.2656 83.7813,321.4844 Z " fill="#000000"/><text fill="#000000" font-family="sans-serif" font-size="11" lengthAdjust="spacing" textLength="68" x="99.75" y="328.7197">GlossaryTerm</text><line style="stroke:#181818;stroke-width:0.5;" x1="24.5" x2="215.5" y1="338.2188" y2="338.2188"/><text fill="#000000" font-family="sans-serif" font-size="11" lengthAdjust="spacing" textLength="41" x="29.5" y="353.6377">-id: UUID</text><text fill="#000000" font-family="sans-serif" font-size="11" lengthAdjust="spacing" textLength="59" x="29.5" y="367.4736">-term: String</text><text fill="#000000" font-family="sans-serif" font-size="11" lengthAdjust="spacing" textLength="81" x="29.5" y="381.3096">-definition: String</text><text fill="#000000" font-family="sans-serif" font-size="11" lengthAdjust="spacing" textLength="68" x="29.5" y="395.1455">-status: String</text><line style="stroke:#181818;stroke-width:0.5;" x1="24.5" x2="215.5" y1="401.5625" y2="401.5625"/><text fill="#000000" font-family="sans-serif" font-size="11" lengthAdjust="spacing" textLength="163" x="29.5" y="416.9814">+getRelatedAssets(): DataAsset[]</text><text fill="#000000" font-family="sans-serif" font-size="11" lengthAdjust="spacing" textLength="181" x="29.5" y="430.8174">+addSynonym(synonym: String): void</text></g><!--class AutoComplete--><g id="elem_AutoComplete"><rect codeLine="76" fill="#F1F1F1" height="99.3438" id="AutoComplete" rx="2.5" ry="2.5" style="stroke:#181818;stroke-width:0.5;" width="265" x="289.5" y="324.2188"/><ellipse cx="384.75" cy="338.2188" fill="#ADD1B2" rx="9" ry="9" style="stroke:#181818;stroke-width:1.0;"/><path d="M386.2813,335.4844 Q386.375,335.3438 386.5,335.2734 Q386.625,335.2031 386.7656,335.2031 Q387,335.2031 387.1563,335.375 Q387.3125,335.5469 387.3125,335.9375 L387.3125,336.875 Q387.3125,337.2656 387.1563,337.4375 Q387,337.6094 386.7656,337.6094 Q386.5469,337.6094 386.4063,337.4844 Q386.2656,337.3594 386.2031,337.0313 Q386.1719,336.7969 386.0625,336.6719 Q385.8438,336.4375 385.4453,336.2891 Q385.0469,336.1406 384.6563,336.1406 Q384.1563,336.1406 383.7422,336.3594 Q383.3281,336.5781 383.0078,337.0625 Q382.6875,337.5469 382.6875,338.2031 L382.6875,338.9219 Q382.6875,339.7188 383.2656,340.25 Q383.8438,340.7813 384.875,340.7813 Q385.4844,340.7813 385.9063,340.6094 Q386.1563,340.5156 386.4375,340.2344 Q386.6094,340.0625 386.7031,340.0078 Q386.7969,339.9531 386.9219,339.9531 Q387.1406,339.9531 387.3125,340.125 Q387.4844,340.2969 387.4844,340.5156 Q387.4844,340.7344 387.25,341 Q386.9219,341.375 386.4063,341.5938 Q385.7188,341.875 384.875,341.875 Q383.9063,341.875 383.125,341.4844 Q382.4844,341.1563 382.0391,340.4609 Q381.5938,339.7656 381.5938,338.9375 L381.5938,338.1875 Q381.5938,337.3281 381.9922,336.5859 Q382.3906,335.8438 383.1016,335.4453 Q383.8125,335.0469 384.6094,335.0469 Q385.0781,335.0469 385.5,335.1563 Q385.9219,335.2656 386.2813,335.4844 Z " fill="#000000"/><text fill="#000000" font-family="sans-serif" font-size="11" lengthAdjust="spacing" textLength="67" x="402.25" y="342.7197">AutoComplete</text><line style="stroke:#181818;stroke-width:0.5;" x1="290.5" x2="553.5" y1="352.2188" y2="352.2188"/><text fill="#000000" font-family="sans-serif" font-size="11" lengthAdjust="spacing" textLength="41" x="295.5" y="367.6377">-id: UUID</text><text fill="#000000" font-family="sans-serif" font-size="11" lengthAdjust="spacing" textLength="67" x="295.5" y="381.4736">-indexId: UUID</text><line style="stroke:#181818;stroke-width:0.5;" x1="290.5" x2="553.5" y1="387.8906" y2="387.8906"/><text fill="#000000" font-family="sans-serif" font-size="11" lengthAdjust="spacing" textLength="253" x="295.5" y="403.3096">+getSuggestions(prefix: String, limit: Integer): String[]</text><text fill="#000000" font-family="sans-serif" font-size="11" lengthAdjust="spacing" textLength="137" x="295.5" y="417.1455">+train(queries: String[]): void</text></g><!--link SearchIndex to SearchResult--><g id="link_SearchIndex_SearchResult"><path codeLine="85" d="M455.17,250.4788 C455.17,284.1688 455.17,317.2188 455.17,317.2188 C455.17,317.2188 527.81,317.2188 589.39,317.2188 " fill="none" id="SearchIndex-SearchResult" style="stroke:#181818;stroke-width:1.0;"/><polygon fill="#000000" points="437.4916,311.9177,432.0592,306.5907,429.9656,310.8011,437.4916,311.9177" style="stroke:#000000;stroke-width:1.0;"/><text fill="#000000" font-family="sans-serif" font-size="11" lengthAdjust="spacing" textLength="46" x="441.91" y="314.6377">produces</text><text fill="#000000" font-family="sans-serif" font-size="11" lengthAdjust="spacing" textLength="6" x="452.1399" y="269.5514">1</text><text fill="#000000" font-family="sans-serif" font-size="11" lengthAdjust="spacing" textLength="16" x="565.4313" y="310.2589">0..*</text></g><!--link SearchResult to SearchCriteria--><g id="link_SearchResult_SearchCriteria"><path codeLine="86" d="M674,437.2888 C674,456.5588 674,477.7288 674,497.0087 " fill="none" id="SearchResult-SearchCriteria" style="stroke:#181818;stroke-width:1.0;"/><polygon fill="#000000" points="617,464.0667,619.3511,456.8307,614.6489,456.8307,617,464.0667" style="stroke:#000000;stroke-width:1.0;"/><text fill="#000000" font-family="sans-serif" font-size="11" lengthAdjust="spacing" textLength="48" x="625" y="464.5677">filtered by</text><text fill="#000000" font-family="sans-serif" font-size="11" lengthAdjust="spacing" textLength="6" x="667.6531" y="456.857">1</text><text fill="#000000" font-family="sans-serif" font-size="11" lengthAdjust="spacing" textLength="18" x="657.3406" y="486.9208">0..1</text></g><!--reverse link Glossary to GlossaryTerm--><g id="link_Glossary_GlossaryTerm"><path codeLine="87" d="M120,255.2387 C120,276.6788 120,288.6088 120,310.0488 " fill="none" id="Glossary-backto-GlossaryTerm" style="stroke:#181818;stroke-width:1.0;"/><polygon fill="#181818" points="120,243.2387,116,249.2387,120,255.2387,124,249.2387,120,243.2387" style="stroke:#181818;stroke-width:1.0;"/><polygon fill="#000000" points="75,273.5667,77.3511,266.3307,72.6489,266.3307,75,273.5667" style="stroke:#000000;stroke-width:1.0;"/><text fill="#000000" font-family="sans-serif" font-size="11" lengthAdjust="spacing" textLength="36" x="83" y="274.0677">defines</text><text fill="#000000" font-family="sans-serif" font-size="11" lengthAdjust="spacing" textLength="6" x="113.6531" y="262.8012">1</text><text fill="#000000" font-family="sans-serif" font-size="11" lengthAdjust="spacing" textLength="16" x="103.025" y="299.9657">0..*</text></g><!--link SearchIndex to AutoComplete--><g id="link_SearchIndex_AutoComplete"><path codeLine="88" d="M388.83,250.3087 C388.83,274.7888 388.83,301.7088 388.83,324.1388 " fill="none" id="SearchIndex-AutoComplete" style="stroke:#181818;stroke-width:1.0;"/><polygon fill="#000000" points="320.83,284.1367,323.1811,276.9007,318.4789,276.9007,320.83,284.1367" style="stroke:#000000;stroke-width:1.0;"/><text fill="#000000" font-family="sans-serif" font-size="11" lengthAdjust="spacing" textLength="59" x="328.83" y="284.6377">powered by</text><text fill="#000000" font-family="sans-serif" font-size="11" lengthAdjust="spacing" textLength="6" x="379.1" y="269.7284">1</text><text fill="#000000" font-family="sans-serif" font-size="11" lengthAdjust="spacing" textLength="18" x="364.1092" y="313.6592">0..1</text></g><!--link SearchIndex to Tag--><g id="link_SearchIndex_Tag"><path codeLine="91" d="M322.23,247.2188 C285.64,247.2188 253,247.2188 253,247.2188 C253,247.2188 253,405.2388 253,496.8988 " fill="none" id="SearchIndex-Tag" style="stroke:#181818;stroke-width:1.0;"/><polygon fill="#000000" points="225.4312,349.2213,229.6303,342.8765,225.099,341.6201,225.4312,349.2213" style="stroke:#000000;stroke-width:1.0;"/><text fill="#000000" font-family="sans-serif" font-size="11" lengthAdjust="spacing" textLength="48" x="234.5" y="349.8677">organizes</text><text fill="#000000" font-family="sans-serif" font-size="11" lengthAdjust="spacing" textLength="6" x="308.3617" y="250.3457">1</text><text fill="#000000" font-family="sans-serif" font-size="11" lengthAdjust="spacing" textLength="16" x="236.025" y="486.7974">0..*</text></g><!--link SearchResult to Tag--><g id="link_SearchResult_Tag"><path codeLine="94" d="M589.14,430.2188 C482.71,430.2188 314,430.2188 314,430.2188 C314,430.2188 314,463.8688 314,496.9988 " fill="none" id="SearchResult-Tag" style="stroke:#181818;stroke-width:1.0;"/><polygon fill="#000000" points="348.2929,439.0802,355.8793,439.6582,354.7702,435.0886,348.2929,439.0802" style="stroke:#000000;stroke-width:1.0;"/><text fill="#000000" font-family="sans-serif" font-size="11" lengthAdjust="spacing" textLength="57" x="360.18" y="442.6377">tagged with</text><text fill="#000000" font-family="sans-serif" font-size="11" lengthAdjust="spacing" textLength="16" x="565.45" y="432.8123">0..*</text><text fill="#000000" font-family="sans-serif" font-size="11" lengthAdjust="spacing" textLength="16" x="304.4594" y="486.9096">0..*</text></g><!--link GlossaryTerm to Tag--><g id="link_GlossaryTerm_Tag"><path codeLine="95" d="M192,437.2888 C192,456.5588 192,477.7288 192,497.0087 " fill="none" id="GlossaryTerm-Tag" style="stroke:#181818;stroke-width:1.0;"/><polygon fill="#000000" points="126,464.0667,128.3511,456.8307,123.6489,456.8307,126,464.0667" style="stroke:#000000;stroke-width:1.0;"/><text fill="#000000" font-family="sans-serif" font-size="11" lengthAdjust="spacing" textLength="57" x="134" y="464.5677">tagged with</text><text fill="#000000" font-family="sans-serif" font-size="11" lengthAdjust="spacing" textLength="16" x="183.4" y="456.857">0..*</text><text fill="#000000" font-family="sans-serif" font-size="11" lengthAdjust="spacing" textLength="16" x="167.5906" y="486.9208">0..*</text></g><!--SRC=[dLRDZjCm4BxtAOPoe5jOH2LE4Lgff5se-2bgkoT0AsyycrhhsC5sw0R48t3Zpfddu8Lu1CPfk-kaOLkHGnlxcxzlPZpnFOwNGY7CnyDP_F8ydhwUpk3-QJn-Eeux7NibLCuCoo1doHLBSUvAYM0mSKob4WC1ksHShuHAuP996o8Nf9eQNIWUQwaDh9R2XJX5m0hfJhLoS_45OJ08G4d1kJ97qCOjTG0aabaxTCw8YyBX9D6gKdxIwJZXACP-VwGp9XIPYs3478CvCfCiuGqwTln6SvJz_WVLwMoOGVVFpn_VOJHS33V9w0ApyExLY_Fr4fuz6mq69oVrL7tj03tLJnNHnij4SRpUWFuv1i4ZE3kRZC8jB_IMPHZ1d7YeDC2uJeeCbOifRow2rxg6aYTtbdFca5VaS24olC7FpszU7uAjukbzAj2KMpz7qIRC6LhA_FkFWRp1Yq98tYEPprhm0D6v4ndbk0PzQ-U_Dhml0IIFRhAxRnDjA2aZJ4J6P00OfguYc2Y7APfslYcweJVhe_HbhnPrFAPjgTEnSgRqOk7wBbAneSOrWjLeNM6vqeRRRMw3P18HwjhdPKjvFJ0r74qBbbCtxY79E3yLaeBfaVkjYKVmcSa2Wo8t2aYmy3tZEJ_NMY9JxNGNBDrNEjNUjWcPJxLfernOuhLfvuCgQ6ibR3IfzzzJk0gFpvrz-K9gQvaf_vCOhuP92q15o0vajI3HYjGs5hzHuqLrzNizRxGkTX0tBxYFtzhqBZ__6H1Ew3QErZ5Ns1sWoM-6qa-aVSKZalDIQLLcFRl-FwY0myBfM6UvH8S7JTQTmTACTrwaALhFsVPoGmculZrAaaRTRKcFMaxtGt26MgAQh0A3y_yF5W-Woe_tLgt33qLtq8NZO-W-UVoutwsFq0XoetcHe8MJG6-31eg3RdDCHN1P3GdaS55kj6-EWTVit_gijL2qReU6ovrGwQrM50fLh-hkcin9eZ3LV15Moz-_e1TFPxDnl9XCtnxjIOlNYkWUa395No5xfmUw3YYwfA01IPB-zf7J_p-SRNEvTjDqw1Xr2OULSCj63gjS7QJrhVCN]--></g></svg>