<?xml version="1.0" encoding="us-ascii" standalone="no"?><svg xmlns="http://www.w3.org/2000/svg" xmlns:xlink="http://www.w3.org/1999/xlink" contentStyleType="text/css" height="992px" preserveAspectRatio="none" style="width:562px;height:992px;background:#FFFFFF;" version="1.1" viewBox="0 0 562 992" width="562px" zoomAndPan="magnify"><defs/><g><text fill="#000000" font-family="sans-serif" font-size="14" font-weight="bold" lengthAdjust="spacing" textLength="262" x="143" y="24.5332">Domain 12: Data Profiling Meta-Model</text><text fill="#000000" font-family="sans-serif" font-size="14" font-weight="bold" lengthAdjust="spacing" textLength="4" x="272" y="42.1426">&#160;</text><!--cluster PKG_PROFILING--><g id="cluster_PKG_PROFILING"><rect fill="#C5E1A5" height="923" rx="2.5" ry="2.5" style="stroke:#000000;stroke-width:1.5;" width="549" x="7" y="63.2188"/><text fill="#000000" font-family="sans-serif" font-size="11" font-style="italic" lengthAdjust="spacing" textLength="32" x="265.5" y="76.6377">&#171;D12&#187;</text><text fill="#000000" font-family="sans-serif" font-size="11" font-weight="bold" lengthAdjust="spacing" textLength="104" x="229.5" y="90.4736">&#128202; DATA PROFILING</text></g><!--class DataProfile--><g id="elem_DataProfile"><rect codeLine="15" fill="#F1F1F1" height="140.8516" id="DataProfile" rx="2.5" ry="2.5" style="stroke:#181818;stroke-width:0.5;" width="189" x="188.5" y="109.2188"/><ellipse cx="253.25" cy="123.2188" fill="#ADD1B2" rx="9" ry="9" style="stroke:#181818;stroke-width:1.0;"/><path d="M254.7813,120.4844 Q254.875,120.3438 255,120.2734 Q255.125,120.2031 255.2656,120.2031 Q255.5,120.2031 255.6563,120.375 Q255.8125,120.5469 255.8125,120.9375 L255.8125,121.875 Q255.8125,122.2656 255.6563,122.4375 Q255.5,122.6094 255.2656,122.6094 Q255.0469,122.6094 254.9063,122.4844 Q254.7656,122.3594 254.7031,122.0313 Q254.6719,121.7969 254.5625,121.6719 Q254.3438,121.4375 253.9453,121.2891 Q253.5469,121.1406 253.1563,121.1406 Q252.6563,121.1406 252.2422,121.3594 Q251.8281,121.5781 251.5078,122.0625 Q251.1875,122.5469 251.1875,123.2031 L251.1875,123.9219 Q251.1875,124.7188 251.7656,125.25 Q252.3438,125.7813 253.375,125.7813 Q253.9844,125.7813 254.4063,125.6094 Q254.6563,125.5156 254.9375,125.2344 Q255.1094,125.0625 255.2031,125.0078 Q255.2969,124.9531 255.4219,124.9531 Q255.6406,124.9531 255.8125,125.125 Q255.9844,125.2969 255.9844,125.5156 Q255.9844,125.7344 255.75,126 Q255.4219,126.375 254.9063,126.5938 Q254.2188,126.875 253.375,126.875 Q252.4063,126.875 251.625,126.4844 Q250.9844,126.1563 250.5391,125.4609 Q250.0938,124.7656 250.0938,123.9375 L250.0938,123.1875 Q250.0938,122.3281 250.4922,121.5859 Q250.8906,120.8438 251.6016,120.4453 Q252.3125,120.0469 253.1094,120.0469 Q253.5781,120.0469 254,120.1563 Q254.4219,120.2656 254.7813,120.4844 Z " fill="#000000"/><text fill="#000000" font-family="sans-serif" font-size="11" lengthAdjust="spacing" textLength="52" x="270.75" y="127.7197">DataProfile</text><line style="stroke:#181818;stroke-width:0.5;" x1="189.5" x2="376.5" y1="137.2188" y2="137.2188"/><text fill="#000000" font-family="sans-serif" font-size="11" lengthAdjust="spacing" textLength="41" x="194.5" y="152.6377">-id: UUID</text><text fill="#000000" font-family="sans-serif" font-size="11" lengthAdjust="spacing" textLength="68" x="194.5" y="166.4736">-assetId: UUID</text><text fill="#000000" font-family="sans-serif" font-size="11" lengthAdjust="spacing" textLength="82" x="194.5" y="180.3096">-rowCount: Long</text><text fill="#000000" font-family="sans-serif" font-size="11" lengthAdjust="spacing" textLength="106" x="194.5" y="194.1455">-profileDate: DateTime</text><line style="stroke:#181818;stroke-width:0.5;" x1="189.5" x2="376.5" y1="200.5625" y2="200.5625"/><text fill="#000000" font-family="sans-serif" font-size="11" lengthAdjust="spacing" textLength="93" x="194.5" y="215.9814">+regenerate(): void</text><text fill="#000000" font-family="sans-serif" font-size="11" lengthAdjust="spacing" textLength="123" x="194.5" y="229.8174">+getStatistics(): Statistics</text><text fill="#000000" font-family="sans-serif" font-size="11" lengthAdjust="spacing" textLength="177" x="194.5" y="243.6533">+getColumnProfiles(): ColumnProfile[]</text></g><!--class ColumnProfile--><g id="elem_ColumnProfile"><rect codeLine="26" fill="#F1F1F1" height="154.6875" id="ColumnProfile" rx="2.5" ry="2.5" style="stroke:#181818;stroke-width:0.5;" width="153" x="206.5" y="310.2188"/><ellipse cx="246.75" cy="324.2188" fill="#ADD1B2" rx="9" ry="9" style="stroke:#181818;stroke-width:1.0;"/><path d="M248.2813,321.4844 Q248.375,321.3438 248.5,321.2734 Q248.625,321.2031 248.7656,321.2031 Q249,321.2031 249.1563,321.375 Q249.3125,321.5469 249.3125,321.9375 L249.3125,322.875 Q249.3125,323.2656 249.1563,323.4375 Q249,323.6094 248.7656,323.6094 Q248.5469,323.6094 248.4063,323.4844 Q248.2656,323.3594 248.2031,323.0313 Q248.1719,322.7969 248.0625,322.6719 Q247.8438,322.4375 247.4453,322.2891 Q247.0469,322.1406 246.6563,322.1406 Q246.1563,322.1406 245.7422,322.3594 Q245.3281,322.5781 245.0078,323.0625 Q244.6875,323.5469 244.6875,324.2031 L244.6875,324.9219 Q244.6875,325.7188 245.2656,326.25 Q245.8438,326.7813 246.875,326.7813 Q247.4844,326.7813 247.9063,326.6094 Q248.1563,326.5156 248.4375,326.2344 Q248.6094,326.0625 248.7031,326.0078 Q248.7969,325.9531 248.9219,325.9531 Q249.1406,325.9531 249.3125,326.125 Q249.4844,326.2969 249.4844,326.5156 Q249.4844,326.7344 249.25,327 Q248.9219,327.375 248.4063,327.5938 Q247.7188,327.875 246.875,327.875 Q245.9063,327.875 245.125,327.4844 Q244.4844,327.1563 244.0391,326.4609 Q243.5938,325.7656 243.5938,324.9375 L243.5938,324.1875 Q243.5938,323.3281 243.9922,322.5859 Q244.3906,321.8438 245.1016,321.4453 Q245.8125,321.0469 246.6094,321.0469 Q247.0781,321.0469 247.5,321.1563 Q247.9219,321.2656 248.2813,321.4844 Z " fill="#000000"/><text fill="#000000" font-family="sans-serif" font-size="11" lengthAdjust="spacing" textLength="65" x="264.25" y="328.7197">ColumnProfile</text><line style="stroke:#181818;stroke-width:0.5;" x1="207.5" x2="358.5" y1="338.2188" y2="338.2188"/><text fill="#000000" font-family="sans-serif" font-size="11" lengthAdjust="spacing" textLength="41" x="212.5" y="353.6377">-id: UUID</text><text fill="#000000" font-family="sans-serif" font-size="11" lengthAdjust="spacing" textLength="99" x="212.5" y="367.4736">-columnName: String</text><text fill="#000000" font-family="sans-serif" font-size="11" lengthAdjust="spacing" textLength="83" x="212.5" y="381.3096">-dataType: String</text><text fill="#000000" font-family="sans-serif" font-size="11" lengthAdjust="spacing" textLength="96" x="212.5" y="395.1455">-distinctCount: Long</text><text fill="#000000" font-family="sans-serif" font-size="11" lengthAdjust="spacing" textLength="78" x="212.5" y="408.9814">-nullCount: Long</text><line style="stroke:#181818;stroke-width:0.5;" x1="207.5" x2="358.5" y1="415.3984" y2="415.3984"/><text fill="#000000" font-family="sans-serif" font-size="11" lengthAdjust="spacing" textLength="138" x="212.5" y="430.8174">+getSampleValues(): String[]</text><text fill="#000000" font-family="sans-serif" font-size="11" lengthAdjust="spacing" textLength="141" x="212.5" y="444.6533">+getDistribution(): Distribution</text><text fill="#000000" font-family="sans-serif" font-size="11" lengthAdjust="spacing" textLength="124" x="212.5" y="458.4893">+detectOutliers(): Outlier[]</text></g><!--class Distribution--><g id="elem_Distribution"><rect codeLine="38" fill="#F1F1F1" height="99.3438" id="Distribution" rx="2.5" ry="2.5" style="stroke:#181818;stroke-width:0.5;" width="150" x="23" y="539.2188"/><ellipse cx="67.75" cy="553.2188" fill="#ADD1B2" rx="9" ry="9" style="stroke:#181818;stroke-width:1.0;"/><path d="M69.2813,550.4844 Q69.375,550.3438 69.5,550.2734 Q69.625,550.2031 69.7656,550.2031 Q70,550.2031 70.1563,550.375 Q70.3125,550.5469 70.3125,550.9375 L70.3125,551.875 Q70.3125,552.2656 70.1563,552.4375 Q70,552.6094 69.7656,552.6094 Q69.5469,552.6094 69.4063,552.4844 Q69.2656,552.3594 69.2031,552.0313 Q69.1719,551.7969 69.0625,551.6719 Q68.8438,551.4375 68.4453,551.2891 Q68.0469,551.1406 67.6563,551.1406 Q67.1563,551.1406 66.7422,551.3594 Q66.3281,551.5781 66.0078,552.0625 Q65.6875,552.5469 65.6875,553.2031 L65.6875,553.9219 Q65.6875,554.7188 66.2656,555.25 Q66.8438,555.7813 67.875,555.7813 Q68.4844,555.7813 68.9063,555.6094 Q69.1563,555.5156 69.4375,555.2344 Q69.6094,555.0625 69.7031,555.0078 Q69.7969,554.9531 69.9219,554.9531 Q70.1406,554.9531 70.3125,555.125 Q70.4844,555.2969 70.4844,555.5156 Q70.4844,555.7344 70.25,556 Q69.9219,556.375 69.4063,556.5938 Q68.7188,556.875 67.875,556.875 Q66.9063,556.875 66.125,556.4844 Q65.4844,556.1563 65.0391,555.4609 Q64.5938,554.7656 64.5938,553.9375 L64.5938,553.1875 Q64.5938,552.3281 64.9922,551.5859 Q65.3906,550.8438 66.1016,550.4453 Q66.8125,550.0469 67.6094,550.0469 Q68.0781,550.0469 68.5,550.1563 Q68.9219,550.2656 69.2813,550.4844 Z " fill="#000000"/><text fill="#000000" font-family="sans-serif" font-size="11" lengthAdjust="spacing" textLength="53" x="85.25" y="557.7197">Distribution</text><line style="stroke:#181818;stroke-width:0.5;" x1="24" x2="172" y1="567.2188" y2="567.2188"/><text fill="#000000" font-family="sans-serif" font-size="11" lengthAdjust="spacing" textLength="41" x="29" y="582.6377">-id: UUID</text><text fill="#000000" font-family="sans-serif" font-size="11" lengthAdjust="spacing" textLength="114" x="29" y="596.4736">-distributionType: String</text><line style="stroke:#181818;stroke-width:0.5;" x1="24" x2="172" y1="602.8906" y2="602.8906"/><text fill="#000000" font-family="sans-serif" font-size="11" lengthAdjust="spacing" textLength="63" x="29" y="618.3096">+plot(): Chart</text><text fill="#000000" font-family="sans-serif" font-size="11" lengthAdjust="spacing" textLength="138" x="29" y="632.1455">+getStats(): DistributionStats</text></g><!--class Pattern--><g id="elem_Pattern"><rect codeLine="46" fill="#F1F1F1" height="127.0156" id="Pattern" rx="2.5" ry="2.5" style="stroke:#181818;stroke-width:0.5;" width="149" x="208.5" y="525.2188"/><ellipse cx="262.25" cy="539.2188" fill="#ADD1B2" rx="9" ry="9" style="stroke:#181818;stroke-width:1.0;"/><path d="M263.7813,536.4844 Q263.875,536.3438 264,536.2734 Q264.125,536.2031 264.2656,536.2031 Q264.5,536.2031 264.6563,536.375 Q264.8125,536.5469 264.8125,536.9375 L264.8125,537.875 Q264.8125,538.2656 264.6563,538.4375 Q264.5,538.6094 264.2656,538.6094 Q264.0469,538.6094 263.9063,538.4844 Q263.7656,538.3594 263.7031,538.0313 Q263.6719,537.7969 263.5625,537.6719 Q263.3438,537.4375 262.9453,537.2891 Q262.5469,537.1406 262.1563,537.1406 Q261.6563,537.1406 261.2422,537.3594 Q260.8281,537.5781 260.5078,538.0625 Q260.1875,538.5469 260.1875,539.2031 L260.1875,539.9219 Q260.1875,540.7188 260.7656,541.25 Q261.3438,541.7813 262.375,541.7813 Q262.9844,541.7813 263.4063,541.6094 Q263.6563,541.5156 263.9375,541.2344 Q264.1094,541.0625 264.2031,541.0078 Q264.2969,540.9531 264.4219,540.9531 Q264.6406,540.9531 264.8125,541.125 Q264.9844,541.2969 264.9844,541.5156 Q264.9844,541.7344 264.75,542 Q264.4219,542.375 263.9063,542.5938 Q263.2188,542.875 262.375,542.875 Q261.4063,542.875 260.625,542.4844 Q259.9844,542.1563 259.5391,541.4609 Q259.0938,540.7656 259.0938,539.9375 L259.0938,539.1875 Q259.0938,538.3281 259.4922,537.5859 Q259.8906,536.8438 260.6016,536.4453 Q261.3125,536.0469 262.1094,536.0469 Q262.5781,536.0469 263,536.1563 Q263.4219,536.2656 263.7813,536.4844 Z " fill="#000000"/><text fill="#000000" font-family="sans-serif" font-size="11" lengthAdjust="spacing" textLength="34" x="279.75" y="543.7197">Pattern</text><line style="stroke:#181818;stroke-width:0.5;" x1="209.5" x2="356.5" y1="553.2188" y2="553.2188"/><text fill="#000000" font-family="sans-serif" font-size="11" lengthAdjust="spacing" textLength="41" x="214.5" y="568.6377">-id: UUID</text><text fill="#000000" font-family="sans-serif" font-size="11" lengthAdjust="spacing" textLength="99" x="214.5" y="582.4736">-patternName: String</text><text fill="#000000" font-family="sans-serif" font-size="11" lengthAdjust="spacing" textLength="66" x="214.5" y="596.3096">-regex: String</text><text fill="#000000" font-family="sans-serif" font-size="11" lengthAdjust="spacing" textLength="91" x="214.5" y="610.1455">-matchCount: Long</text><line style="stroke:#181818;stroke-width:0.5;" x1="209.5" x2="356.5" y1="616.5625" y2="616.5625"/><text fill="#000000" font-family="sans-serif" font-size="11" lengthAdjust="spacing" textLength="137" x="214.5" y="631.9814">+test(value: String): Boolean</text><text fill="#000000" font-family="sans-serif" font-size="11" lengthAdjust="spacing" textLength="115" x="214.5" y="645.8174">+getExamples(): String[]</text></g><!--class Outlier--><g id="elem_Outlier"><rect codeLine="56" fill="#F1F1F1" height="113.1797" id="Outlier" rx="2.5" ry="2.5" style="stroke:#181818;stroke-width:0.5;" width="147" x="392.5" y="532.2188"/><ellipse cx="446.75" cy="546.2188" fill="#ADD1B2" rx="9" ry="9" style="stroke:#181818;stroke-width:1.0;"/><path d="M448.2813,543.4844 Q448.375,543.3438 448.5,543.2734 Q448.625,543.2031 448.7656,543.2031 Q449,543.2031 449.1563,543.375 Q449.3125,543.5469 449.3125,543.9375 L449.3125,544.875 Q449.3125,545.2656 449.1563,545.4375 Q449,545.6094 448.7656,545.6094 Q448.5469,545.6094 448.4063,545.4844 Q448.2656,545.3594 448.2031,545.0313 Q448.1719,544.7969 448.0625,544.6719 Q447.8438,544.4375 447.4453,544.2891 Q447.0469,544.1406 446.6563,544.1406 Q446.1563,544.1406 445.7422,544.3594 Q445.3281,544.5781 445.0078,545.0625 Q444.6875,545.5469 444.6875,546.2031 L444.6875,546.9219 Q444.6875,547.7188 445.2656,548.25 Q445.8438,548.7813 446.875,548.7813 Q447.4844,548.7813 447.9063,548.6094 Q448.1563,548.5156 448.4375,548.2344 Q448.6094,548.0625 448.7031,548.0078 Q448.7969,547.9531 448.9219,547.9531 Q449.1406,547.9531 449.3125,548.125 Q449.4844,548.2969 449.4844,548.5156 Q449.4844,548.7344 449.25,549 Q448.9219,549.375 448.4063,549.5938 Q447.7188,549.875 446.875,549.875 Q445.9063,549.875 445.125,549.4844 Q444.4844,549.1563 444.0391,548.4609 Q443.5938,547.7656 443.5938,546.9375 L443.5938,546.1875 Q443.5938,545.3281 443.9922,544.5859 Q444.3906,543.8438 445.1016,543.4453 Q445.8125,543.0469 446.6094,543.0469 Q447.0781,543.0469 447.5,543.1563 Q447.9219,543.2656 448.2813,543.4844 Z " fill="#000000"/><text fill="#000000" font-family="sans-serif" font-size="11" lengthAdjust="spacing" textLength="31" x="464.25" y="550.7197">Outlier</text><line style="stroke:#181818;stroke-width:0.5;" x1="393.5" x2="538.5" y1="560.2188" y2="560.2188"/><text fill="#000000" font-family="sans-serif" font-size="11" lengthAdjust="spacing" textLength="41" x="398.5" y="575.6377">-id: UUID</text><text fill="#000000" font-family="sans-serif" font-size="11" lengthAdjust="spacing" textLength="64" x="398.5" y="589.4736">-value: String</text><text fill="#000000" font-family="sans-serif" font-size="11" lengthAdjust="spacing" textLength="75" x="398.5" y="603.3096">-score: Decimal</text><text fill="#000000" font-family="sans-serif" font-size="11" lengthAdjust="spacing" textLength="117" x="398.5" y="617.1455">-detectionMethod: String</text><line style="stroke:#181818;stroke-width:0.5;" x1="393.5" x2="538.5" y1="623.5625" y2="623.5625"/><text fill="#000000" font-family="sans-serif" font-size="11" lengthAdjust="spacing" textLength="135" x="398.5" y="638.9814">+investigate(): OutlierReport</text></g><!--class Histogram--><g id="elem_Histogram"><rect codeLine="65" fill="#F1F1F1" height="99.3438" id="Histogram" rx="2.5" ry="2.5" style="stroke:#181818;stroke-width:0.5;" width="146" x="33" y="712.2188"/><ellipse cx="78.25" cy="726.2188" fill="#ADD1B2" rx="9" ry="9" style="stroke:#181818;stroke-width:1.0;"/><path d="M79.7813,723.4844 Q79.875,723.3438 80,723.2734 Q80.125,723.2031 80.2656,723.2031 Q80.5,723.2031 80.6563,723.375 Q80.8125,723.5469 80.8125,723.9375 L80.8125,724.875 Q80.8125,725.2656 80.6563,725.4375 Q80.5,725.6094 80.2656,725.6094 Q80.0469,725.6094 79.9063,725.4844 Q79.7656,725.3594 79.7031,725.0313 Q79.6719,724.7969 79.5625,724.6719 Q79.3438,724.4375 78.9453,724.2891 Q78.5469,724.1406 78.1563,724.1406 Q77.6563,724.1406 77.2422,724.3594 Q76.8281,724.5781 76.5078,725.0625 Q76.1875,725.5469 76.1875,726.2031 L76.1875,726.9219 Q76.1875,727.7188 76.7656,728.25 Q77.3438,728.7813 78.375,728.7813 Q78.9844,728.7813 79.4063,728.6094 Q79.6563,728.5156 79.9375,728.2344 Q80.1094,728.0625 80.2031,728.0078 Q80.2969,727.9531 80.4219,727.9531 Q80.6406,727.9531 80.8125,728.125 Q80.9844,728.2969 80.9844,728.5156 Q80.9844,728.7344 80.75,729 Q80.4219,729.375 79.9063,729.5938 Q79.2188,729.875 78.375,729.875 Q77.4063,729.875 76.625,729.4844 Q75.9844,729.1563 75.5391,728.4609 Q75.0938,727.7656 75.0938,726.9375 L75.0938,726.1875 Q75.0938,725.3281 75.4922,724.5859 Q75.8906,723.8438 76.6016,723.4453 Q77.3125,723.0469 78.1094,723.0469 Q78.5781,723.0469 79,723.1563 Q79.4219,723.2656 79.7813,723.4844 Z " fill="#000000"/><text fill="#000000" font-family="sans-serif" font-size="11" lengthAdjust="spacing" textLength="48" x="95.75" y="730.7197">Histogram</text><line style="stroke:#181818;stroke-width:0.5;" x1="34" x2="178" y1="740.2188" y2="740.2188"/><text fill="#000000" font-family="sans-serif" font-size="11" lengthAdjust="spacing" textLength="41" x="39" y="755.6377">-id: UUID</text><text fill="#000000" font-family="sans-serif" font-size="11" lengthAdjust="spacing" textLength="85" x="39" y="769.4736">-binCount: Integer</text><line style="stroke:#181818;stroke-width:0.5;" x1="34" x2="178" y1="775.8906" y2="775.8906"/><text fill="#000000" font-family="sans-serif" font-size="11" lengthAdjust="spacing" textLength="134" x="39" y="791.3096">+getBin(value: Decimal): Bin</text><text fill="#000000" font-family="sans-serif" font-size="11" lengthAdjust="spacing" textLength="63" x="39" y="805.1455">+plot(): Chart</text></g><!--class Bin--><g id="elem_Bin"><rect codeLine="73" fill="#F1F1F1" height="99.3438" id="Bin" rx="2.5" ry="2.5" style="stroke:#181818;stroke-width:0.5;" width="181" x="23.5" y="871.2188"/><ellipse cx="102.75" cy="885.2188" fill="#ADD1B2" rx="9" ry="9" style="stroke:#181818;stroke-width:1.0;"/><path d="M104.2813,882.4844 Q104.375,882.3438 104.5,882.2734 Q104.625,882.2031 104.7656,882.2031 Q105,882.2031 105.1563,882.375 Q105.3125,882.5469 105.3125,882.9375 L105.3125,883.875 Q105.3125,884.2656 105.1563,884.4375 Q105,884.6094 104.7656,884.6094 Q104.5469,884.6094 104.4063,884.4844 Q104.2656,884.3594 104.2031,884.0313 Q104.1719,883.7969 104.0625,883.6719 Q103.8438,883.4375 103.4453,883.2891 Q103.0469,883.1406 102.6563,883.1406 Q102.1563,883.1406 101.7422,883.3594 Q101.3281,883.5781 101.0078,884.0625 Q100.6875,884.5469 100.6875,885.2031 L100.6875,885.9219 Q100.6875,886.7188 101.2656,887.25 Q101.8438,887.7813 102.875,887.7813 Q103.4844,887.7813 103.9063,887.6094 Q104.1563,887.5156 104.4375,887.2344 Q104.6094,887.0625 104.7031,887.0078 Q104.7969,886.9531 104.9219,886.9531 Q105.1406,886.9531 105.3125,887.125 Q105.4844,887.2969 105.4844,887.5156 Q105.4844,887.7344 105.25,888 Q104.9219,888.375 104.4063,888.5938 Q103.7188,888.875 102.875,888.875 Q101.9063,888.875 101.125,888.4844 Q100.4844,888.1563 100.0391,887.4609 Q99.5938,886.7656 99.5938,885.9375 L99.5938,885.1875 Q99.5938,884.3281 99.9922,883.5859 Q100.3906,882.8438 101.1016,882.4453 Q101.8125,882.0469 102.6094,882.0469 Q103.0781,882.0469 103.5,882.1563 Q103.9219,882.2656 104.2813,882.4844 Z " fill="#000000"/><text fill="#000000" font-family="sans-serif" font-size="11" lengthAdjust="spacing" textLength="15" x="120.25" y="889.7197">Bin</text><line style="stroke:#181818;stroke-width:0.5;" x1="24.5" x2="203.5" y1="899.2188" y2="899.2188"/><text fill="#000000" font-family="sans-serif" font-size="11" lengthAdjust="spacing" textLength="91" x="29.5" y="914.6377">-minValue: Decimal</text><text fill="#000000" font-family="sans-serif" font-size="11" lengthAdjust="spacing" textLength="95" x="29.5" y="928.4736">-maxValue: Decimal</text><text fill="#000000" font-family="sans-serif" font-size="11" lengthAdjust="spacing" textLength="61" x="29.5" y="942.3096">-count: Long</text><line style="stroke:#181818;stroke-width:0.5;" x1="24.5" x2="203.5" y1="948.7266" y2="948.7266"/><text fill="#000000" font-family="sans-serif" font-size="11" lengthAdjust="spacing" textLength="169" x="29.5" y="964.1455">+contains(value: Decimal): Boolean</text></g><!--reverse link DataProfile to ColumnProfile--><g id="link_DataProfile_ColumnProfile"><path codeLine="82" d="M283,262.4288 C283,281.6287 283,290.5187 283,310.0688 " fill="none" id="DataProfile-backto-ColumnProfile" style="stroke:#181818;stroke-width:1.0;"/><polygon fill="#181818" points="283,250.4288,279,256.4288,283,262.4288,287,256.4288,283,250.4288" style="stroke:#181818;stroke-width:1.0;"/><polygon fill="#000000" points="230,277.1667,232.3511,269.9307,227.6489,269.9307,230,277.1667" style="stroke:#000000;stroke-width:1.0;"/><text fill="#000000" font-family="sans-serif" font-size="11" lengthAdjust="spacing" textLength="44" x="238" y="277.6677">analyzes</text><text fill="#000000" font-family="sans-serif" font-size="11" lengthAdjust="spacing" textLength="6" x="276.7047" y="269.4965">1</text><text fill="#000000" font-family="sans-serif" font-size="11" lengthAdjust="spacing" textLength="16" x="266.175" y="299.8689">1..*</text></g><!--link ColumnProfile to Distribution--><g id="link_ColumnProfile_Distribution"><path codeLine="83" d="M206.42,388.2188 C155.52,388.2188 98,388.2188 98,388.2188 C98,388.2188 98,479.7787 98,539.1588 " fill="none" id="ColumnProfile-Distribution" style="stroke:#181818;stroke-width:1.0;"/><polygon fill="#000000" points="68.6664,405.6455,74.7975,401.1401,70.9783,398.3968,68.6664,405.6455" style="stroke:#000000;stroke-width:1.0;"/><text fill="#000000" font-family="sans-serif" font-size="11" lengthAdjust="spacing" textLength="18" x="79" y="406.8977">has</text><text fill="#000000" font-family="sans-serif" font-size="11" lengthAdjust="spacing" textLength="6" x="192.5863" y="386.1036">1</text><text fill="#000000" font-family="sans-serif" font-size="11" lengthAdjust="spacing" textLength="18" x="78.5656" y="528.6824">0..1</text></g><!--link ColumnProfile to Pattern--><g id="link_ColumnProfile_Pattern"><path codeLine="84" d="M283,465.4288 C283,485.2088 283,506.2188 283,525.1988 " fill="none" id="ColumnProfile-Pattern" style="stroke:#181818;stroke-width:1.0;"/><polygon fill="#000000" points="238,492.2267,240.3511,484.9907,235.6489,484.9907,238,492.2267" style="stroke:#000000;stroke-width:1.0;"/><text fill="#000000" font-family="sans-serif" font-size="11" lengthAdjust="spacing" textLength="36" x="246" y="492.7277">detects</text><text fill="#000000" font-family="sans-serif" font-size="11" lengthAdjust="spacing" textLength="6" x="276.7328" y="484.3988">1</text><text fill="#000000" font-family="sans-serif" font-size="11" lengthAdjust="spacing" textLength="16" x="265.975" y="514.6989">0..*</text></g><!--link ColumnProfile to Outlier--><g id="link_ColumnProfile_Outlier"><path codeLine="85" d="M359.55,388.2188 C409.69,388.2188 466,388.2188 466,388.2188 C466,388.2188 466,472.7787 466,532.0688 " fill="none" id="ColumnProfile-Outlier" style="stroke:#181818;stroke-width:1.0;"/><polygon fill="#000000" points="435.3794,403.0521,432.965,395.8369,429.1851,398.634,435.3794,403.0521" style="stroke:#000000;stroke-width:1.0;"/><text fill="#000000" font-family="sans-serif" font-size="11" lengthAdjust="spacing" textLength="24" x="441" y="404.3377">finds</text><text fill="#000000" font-family="sans-serif" font-size="11" lengthAdjust="spacing" textLength="6" x="367.3807" y="386.1036">1</text><text fill="#000000" font-family="sans-serif" font-size="11" lengthAdjust="spacing" textLength="16" x="448.875" y="521.6534">0..*</text></g><!--reverse link Distribution to Histogram--><g id="link_Distribution_Histogram"><path codeLine="86" d="M103,650.2887 C103,673.4588 103,688.9688 103,712.1388 " fill="none" id="Distribution-backto-Histogram" style="stroke:#181818;stroke-width:1.0;"/><polygon fill="#181818" points="103,638.2887,99,644.2887,103,650.2887,107,644.2887,103,638.2887" style="stroke:#181818;stroke-width:1.0;"/><polygon fill="#000000" points="31,672.1367,33.3511,664.9007,28.6489,664.9007,31,672.1367" style="stroke:#000000;stroke-width:1.0;"/><text fill="#000000" font-family="sans-serif" font-size="11" lengthAdjust="spacing" textLength="63" x="39" y="672.6377">visualized as</text><text fill="#000000" font-family="sans-serif" font-size="11" lengthAdjust="spacing" textLength="6" x="97.2938" y="657.9791">1</text><text fill="#000000" font-family="sans-serif" font-size="11" lengthAdjust="spacing" textLength="18" x="83.0875" y="701.6592">0..1</text></g><!--reverse link Histogram to Bin--><g id="link_Histogram_Bin"><path codeLine="87" d="M106,823.5888 C106,842.5387 106,852.0988 106,871.0188 " fill="none" id="Histogram-backto-Bin" style="stroke:#181818;stroke-width:1.0;"/><polygon fill="#181818" points="106,811.5888,102,817.5888,106,823.5888,110,817.5888,106,811.5888" style="stroke:#181818;stroke-width:1.0;"/><polygon fill="#000000" points="43,838.2267,45.3511,830.9907,40.6489,830.9907,43,838.2267" style="stroke:#000000;stroke-width:1.0;"/><text fill="#000000" font-family="sans-serif" font-size="11" lengthAdjust="spacing" textLength="54" x="51" y="838.7277">divided into</text><text fill="#000000" font-family="sans-serif" font-size="11" lengthAdjust="spacing" textLength="6" x="99.5781" y="830.9693">1</text><text fill="#000000" font-family="sans-serif" font-size="11" lengthAdjust="spacing" textLength="16" x="87.55" y="860.8698">1..*</text></g><!--SRC=[ZLLBRjim4Dth5AoxQEh2HbmW6o48uDX9QZI93UUpQGk3aIOo4OeKg97pANA1Rdk0Nh57w92MRSgVg5hOqdmuRzuRakzYk1SAs6WyF1sS3oxF9htX-N3CtlSEJZhTWo387uJAkE4fotZqm1EumcS9p424N2KIl81yocFzA5J2xhdCVSyTfIP65ohkQQaDUvmAzFq4WXSIJxN2A_42hDFnd9BmuNC6J1kSQiyHIPxdNKGZxWg4GQILIzuF0XH869lDlawvKAppEMHzZfoDZBuNqYAy0EIj2ns3R3Q_go0ecsEDltz-_sBzxdLtHKc3yPoDlfvDbXPsUDZlV3uwsg3jPy3eSJyEdIixhmgbqpuj9kAGtTmC-fw9mW47ctQZ7tj47ORiNAl4SsJpTQa4kFxWMgImz4ycozTF95S22Wp5x7qCsKoBs7CcW5V8KUGeejpwLr_LA1AlI5NPZekiMBxzSE6lwnnKWkfOY5pm9K_1uZ2Yqd5CR5xJA6npMS0gmkrKgKBARPuAIPO7dcOIRhaie6J2bYaRMqRrgPOREg6LZVA_lSWOa7R9i40fmBZbolTTHFdhrF4KUx5RAQcqbacDJgyfDxWfVRxUXJDk1pdYY61gyMNpi1r2sdbysc9FEKRJMg4GSjoRMP4MIn3yOwqbS5LjxkJ92RgfvKPRfJHrRLMgUlOyqiRkGeX4ogMlani2efHEdAcEtvP9g1cr9f9odvQOnf3fKhKDs5z8D9tOqx06-9rG9Qy3XSI-sRa7ZeLQa5ksOzaLwirnsW162HL8gL2tbKKhgZ_jz4Lrmq37Fj8Xds_1x4s4X-y36uFaLfBvXFj7TAFJOCrMY_xRxMPZxUGA6LTSFhz0pevSPjLjSstgVhjDRvMz7B8fhqsYUekz5PPZypyvYy4D6LtayIAZKdxPrHpQQcReAX1vmILTcp5R8bpvr-YmcX8qCHCnnGk5cZ9UWty0]--></g></svg>