<?xml version="1.0" encoding="us-ascii" standalone="no"?><svg xmlns="http://www.w3.org/2000/svg" xmlns:xlink="http://www.w3.org/1999/xlink" contentStyleType="text/css" height="611px" preserveAspectRatio="none" style="width:1142px;height:611px;background:#FFFFFF;" version="1.1" viewBox="0 0 1142 611" width="1142px" zoomAndPan="magnify"><defs/><g><text fill="#000000" font-family="sans-serif" font-size="14" font-weight="bold" lengthAdjust="spacing" textLength="274" x="427" y="24.5332">Domain 2: Data Processing Meta-Model</text><text fill="#000000" font-family="sans-serif" font-size="14" font-weight="bold" lengthAdjust="spacing" textLength="4" x="562" y="42.1426">&#160;</text><!--cluster PKG_PROCESS--><g id="cluster_PKG_PROCESS"><rect fill="#FFE082" height="542" rx="2.5" ry="2.5" style="stroke:#000000;stroke-width:1.5;" width="1129" x="7" y="63.2188"/><text fill="#000000" font-family="sans-serif" font-size="11" font-style="italic" lengthAdjust="spacing" textLength="26" x="558.5" y="76.6377">&#171;D2&#187;</text><text fill="#000000" font-family="sans-serif" font-size="11" font-weight="bold" lengthAdjust="spacing" textLength="122" x="510.5" y="90.4736">&#9881;&#65039; DATA PROCESSING</text></g><!--class Process--><g id="elem_Process"><rect codeLine="15" fill="#F1F1F1" height="223.8672" id="Process" rx="2.5" ry="2.5" style="stroke:#181818;stroke-width:0.5;" width="153" x="505.5" y="109.2188"/><ellipse cx="557.75" cy="123.2188" fill="#A9DCDF" rx="9" ry="9" style="stroke:#181818;stroke-width:1.0;"/><path d="M558.8906,124.9531 L556.2188,124.9531 L555.9531,125.625 L556.2188,125.625 Q556.625,125.625 556.7891,125.7734 Q556.9531,125.9219 556.9531,126.1719 Q556.9531,126.4063 556.7891,126.5625 Q556.625,126.7188 556.2188,126.7188 L554.7344,126.7188 Q554.3438,126.7188 554.1719,126.5625 Q554,126.4063 554,126.1719 Q554,125.9219 554.1797,125.7656 Q554.3594,125.6094 554.7656,125.625 L556.5,121.3125 L555.7813,121.3125 Q555.375,121.3125 555.2109,121.1563 Q555.0469,121 555.0469,120.75 Q555.0469,120.5156 555.2109,120.3594 Q555.375,120.2031 555.7813,120.2031 L558.1563,120.2031 L560.3438,125.625 Q560.7344,125.625 560.8594,125.7031 Q561.1094,125.875 561.1094,126.1719 Q561.1094,126.4063 560.9375,126.5625 Q560.7656,126.7188 560.375,126.7188 L558.8906,126.7188 Q558.5,126.7188 558.3281,126.5625 Q558.1563,126.4063 558.1563,126.1719 Q558.1563,125.9219 558.3281,125.7734 Q558.5,125.625 558.8906,125.625 L559.1563,125.625 L558.8906,124.9531 Z M558.4375,123.8438 L557.5469,121.6719 L556.6563,123.8438 L558.4375,123.8438 Z " fill="#000000"/><text fill="#000000" font-family="sans-serif" font-size="11" font-style="italic" lengthAdjust="spacing" textLength="41" x="575.25" y="127.7197">Process</text><line style="stroke:#181818;stroke-width:0.5;" x1="506.5" x2="657.5" y1="137.2188" y2="137.2188"/><text fill="#000000" font-family="sans-serif" font-size="11" lengthAdjust="spacing" textLength="41" x="511.5" y="152.6377">-id: UUID</text><text fill="#000000" font-family="sans-serif" font-size="11" lengthAdjust="spacing" textLength="64" x="511.5" y="166.4736">-name: String</text><text fill="#000000" font-family="sans-serif" font-size="11" lengthAdjust="spacing" textLength="102" x="511.5" y="180.3096">-processType: String</text><text fill="#000000" font-family="sans-serif" font-size="11" lengthAdjust="spacing" textLength="118" x="511.5" y="194.1455">-processingMode: String</text><text fill="#000000" font-family="sans-serif" font-size="11" lengthAdjust="spacing" textLength="82" x="511.5" y="207.9814">-schedule: String</text><text fill="#000000" font-family="sans-serif" font-size="11" lengthAdjust="spacing" textLength="68" x="511.5" y="221.8174">-status: String</text><text fill="#000000" font-family="sans-serif" font-size="11" lengthAdjust="spacing" textLength="102" x="511.5" y="235.6533">-createdAt: DateTime</text><line style="stroke:#181818;stroke-width:0.5;" x1="506.5" x2="657.5" y1="242.0703" y2="242.0703"/><text fill="#000000" font-family="sans-serif" font-size="11" font-style="italic" lengthAdjust="spacing" textLength="140" x="511.5" y="257.4893">+execute(): ExecutionResult</text><text fill="#000000" font-family="sans-serif" font-size="11" font-style="italic" lengthAdjust="spacing" textLength="139" x="511.5" y="271.3252">+validate(): ValidationResult</text><text fill="#000000" font-family="sans-serif" font-size="11" lengthAdjust="spacing" textLength="70" x="511.5" y="285.1611">+pause(): void</text><text fill="#000000" font-family="sans-serif" font-size="11" lengthAdjust="spacing" textLength="76" x="511.5" y="298.9971">+resume(): void</text><text fill="#000000" font-family="sans-serif" font-size="11" lengthAdjust="spacing" textLength="72" x="511.5" y="312.833">+cancel(): void</text><text fill="#000000" font-family="sans-serif" font-size="11" lengthAdjust="spacing" textLength="141" x="511.5" y="326.6689">+getLineage(): LineageGraph</text></g><!--class DataPipeline--><g id="elem_DataPipeline"><rect codeLine="32" fill="#F1F1F1" height="154.6875" id="DataPipeline" rx="2.5" ry="2.5" style="stroke:#181818;stroke-width:0.5;" width="151" x="23.5" y="413.7188"/><ellipse cx="66.25" cy="427.7188" fill="#ADD1B2" rx="9" ry="9" style="stroke:#181818;stroke-width:1.0;"/><path d="M67.7813,424.9844 Q67.875,424.8438 68,424.7734 Q68.125,424.7031 68.2656,424.7031 Q68.5,424.7031 68.6563,424.875 Q68.8125,425.0469 68.8125,425.4375 L68.8125,426.375 Q68.8125,426.7656 68.6563,426.9375 Q68.5,427.1094 68.2656,427.1094 Q68.0469,427.1094 67.9063,426.9844 Q67.7656,426.8594 67.7031,426.5313 Q67.6719,426.2969 67.5625,426.1719 Q67.3438,425.9375 66.9453,425.7891 Q66.5469,425.6406 66.1563,425.6406 Q65.6563,425.6406 65.2422,425.8594 Q64.8281,426.0781 64.5078,426.5625 Q64.1875,427.0469 64.1875,427.7031 L64.1875,428.4219 Q64.1875,429.2188 64.7656,429.75 Q65.3438,430.2813 66.375,430.2813 Q66.9844,430.2813 67.4063,430.1094 Q67.6563,430.0156 67.9375,429.7344 Q68.1094,429.5625 68.2031,429.5078 Q68.2969,429.4531 68.4219,429.4531 Q68.6406,429.4531 68.8125,429.625 Q68.9844,429.7969 68.9844,430.0156 Q68.9844,430.2344 68.75,430.5 Q68.4219,430.875 67.9063,431.0938 Q67.2188,431.375 66.375,431.375 Q65.4063,431.375 64.625,430.9844 Q63.9844,430.6563 63.5391,429.9609 Q63.0938,429.2656 63.0938,428.4375 L63.0938,427.6875 Q63.0938,426.8281 63.4922,426.0859 Q63.8906,425.3438 64.6016,424.9453 Q65.3125,424.5469 66.1094,424.5469 Q66.5781,424.5469 67,424.6563 Q67.4219,424.7656 67.7813,424.9844 Z " fill="#000000"/><text fill="#000000" font-family="sans-serif" font-size="11" lengthAdjust="spacing" textLength="58" x="83.75" y="432.2197">DataPipeline</text><line style="stroke:#181818;stroke-width:0.5;" x1="24.5" x2="173.5" y1="441.7188" y2="441.7188"/><text fill="#000000" font-family="sans-serif" font-size="11" lengthAdjust="spacing" textLength="101" x="29.5" y="457.1377">-pipelineName: String</text><text fill="#000000" font-family="sans-serif" font-size="11" lengthAdjust="spacing" textLength="98" x="29.5" y="470.9736">-orchestrator: String</text><text fill="#000000" font-family="sans-serif" font-size="11" lengthAdjust="spacing" textLength="93" x="29.5" y="484.8096">-parallelism: Integer</text><line style="stroke:#181818;stroke-width:0.5;" x1="24.5" x2="173.5" y1="491.2266" y2="491.2266"/><text fill="#000000" font-family="sans-serif" font-size="11" lengthAdjust="spacing" textLength="136" x="29.5" y="506.6455">+execute(): ExecutionResult</text><text fill="#000000" font-family="sans-serif" font-size="11" lengthAdjust="spacing" textLength="134" x="29.5" y="520.4814">+validate(): ValidationResult</text><text fill="#000000" font-family="sans-serif" font-size="11" lengthAdjust="spacing" textLength="129" x="29.5" y="534.3174">+addStep(step: Step): void</text><text fill="#000000" font-family="sans-serif" font-size="11" lengthAdjust="spacing" textLength="139" x="29.5" y="548.1533">+executeSequential(): Result</text><text fill="#000000" font-family="sans-serif" font-size="11" lengthAdjust="spacing" textLength="123" x="29.5" y="561.9893">+executeParallel(): Result</text></g><!--class DataIngestion--><g id="elem_DataIngestion"><rect codeLine="44" fill="#F1F1F1" height="182.3594" id="DataIngestion" rx="2.5" ry="2.5" style="stroke:#181818;stroke-width:0.5;" width="148" x="210" y="400.2188"/><ellipse cx="247.75" cy="414.2188" fill="#ADD1B2" rx="9" ry="9" style="stroke:#181818;stroke-width:1.0;"/><path d="M249.2813,411.4844 Q249.375,411.3438 249.5,411.2734 Q249.625,411.2031 249.7656,411.2031 Q250,411.2031 250.1563,411.375 Q250.3125,411.5469 250.3125,411.9375 L250.3125,412.875 Q250.3125,413.2656 250.1563,413.4375 Q250,413.6094 249.7656,413.6094 Q249.5469,413.6094 249.4063,413.4844 Q249.2656,413.3594 249.2031,413.0313 Q249.1719,412.7969 249.0625,412.6719 Q248.8438,412.4375 248.4453,412.2891 Q248.0469,412.1406 247.6563,412.1406 Q247.1563,412.1406 246.7422,412.3594 Q246.3281,412.5781 246.0078,413.0625 Q245.6875,413.5469 245.6875,414.2031 L245.6875,414.9219 Q245.6875,415.7188 246.2656,416.25 Q246.8438,416.7813 247.875,416.7813 Q248.4844,416.7813 248.9063,416.6094 Q249.1563,416.5156 249.4375,416.2344 Q249.6094,416.0625 249.7031,416.0078 Q249.7969,415.9531 249.9219,415.9531 Q250.1406,415.9531 250.3125,416.125 Q250.4844,416.2969 250.4844,416.5156 Q250.4844,416.7344 250.25,417 Q249.9219,417.375 249.4063,417.5938 Q248.7188,417.875 247.875,417.875 Q246.9063,417.875 246.125,417.4844 Q245.4844,417.1563 245.0391,416.4609 Q244.5938,415.7656 244.5938,414.9375 L244.5938,414.1875 Q244.5938,413.3281 244.9922,412.5859 Q245.3906,411.8438 246.1016,411.4453 Q246.8125,411.0469 247.6094,411.0469 Q248.0781,411.0469 248.5,411.1563 Q248.9219,411.2656 249.2813,411.4844 Z " fill="#000000"/><text fill="#000000" font-family="sans-serif" font-size="11" lengthAdjust="spacing" textLength="65" x="265.25" y="418.7197">DataIngestion</text><line style="stroke:#181818;stroke-width:0.5;" x1="211" x2="357" y1="428.2188" y2="428.2188"/><text fill="#000000" font-family="sans-serif" font-size="11" lengthAdjust="spacing" textLength="75" x="216" y="443.6377">-sourceId: UUID</text><text fill="#000000" font-family="sans-serif" font-size="11" lengthAdjust="spacing" textLength="69" x="216" y="457.4736">-targetId: UUID</text><text fill="#000000" font-family="sans-serif" font-size="11" lengthAdjust="spacing" textLength="116" x="216" y="471.3096">-ingestionMethod: String</text><text fill="#000000" font-family="sans-serif" font-size="11" lengthAdjust="spacing" textLength="133" x="216" y="485.1455">-ingestionFrequency: String</text><text fill="#000000" font-family="sans-serif" font-size="11" lengthAdjust="spacing" textLength="112" x="216" y="498.9814">-lastRunTime: DateTime</text><line style="stroke:#181818;stroke-width:0.5;" x1="211" x2="357" y1="505.3984" y2="505.3984"/><text fill="#000000" font-family="sans-serif" font-size="11" lengthAdjust="spacing" textLength="136" x="216" y="520.8174">+execute(): ExecutionResult</text><text fill="#000000" font-family="sans-serif" font-size="11" lengthAdjust="spacing" textLength="134" x="216" y="534.6533">+validate(): ValidationResult</text><text fill="#000000" font-family="sans-serif" font-size="11" lengthAdjust="spacing" textLength="79" x="216" y="548.4893">+ingest(): Result</text><text fill="#000000" font-family="sans-serif" font-size="11" lengthAdjust="spacing" textLength="131" x="216" y="562.3252">+validateSource(): Boolean</text><text fill="#000000" font-family="sans-serif" font-size="11" lengthAdjust="spacing" textLength="127" x="216" y="576.1611">+validateTarget(): Boolean</text></g><!--class Transformation--><g id="elem_Transformation"><rect codeLine="58" fill="#F1F1F1" height="140.8516" id="Transformation" rx="2.5" ry="2.5" style="stroke:#181818;stroke-width:0.5;" width="180" x="393" y="420.7188"/><ellipse cx="442.75" cy="434.7188" fill="#ADD1B2" rx="9" ry="9" style="stroke:#181818;stroke-width:1.0;"/><path d="M444.2813,431.9844 Q444.375,431.8438 444.5,431.7734 Q444.625,431.7031 444.7656,431.7031 Q445,431.7031 445.1563,431.875 Q445.3125,432.0469 445.3125,432.4375 L445.3125,433.375 Q445.3125,433.7656 445.1563,433.9375 Q445,434.1094 444.7656,434.1094 Q444.5469,434.1094 444.4063,433.9844 Q444.2656,433.8594 444.2031,433.5313 Q444.1719,433.2969 444.0625,433.1719 Q443.8438,432.9375 443.4453,432.7891 Q443.0469,432.6406 442.6563,432.6406 Q442.1563,432.6406 441.7422,432.8594 Q441.3281,433.0781 441.0078,433.5625 Q440.6875,434.0469 440.6875,434.7031 L440.6875,435.4219 Q440.6875,436.2188 441.2656,436.75 Q441.8438,437.2813 442.875,437.2813 Q443.4844,437.2813 443.9063,437.1094 Q444.1563,437.0156 444.4375,436.7344 Q444.6094,436.5625 444.7031,436.5078 Q444.7969,436.4531 444.9219,436.4531 Q445.1406,436.4531 445.3125,436.625 Q445.4844,436.7969 445.4844,437.0156 Q445.4844,437.2344 445.25,437.5 Q444.9219,437.875 444.4063,438.0938 Q443.7188,438.375 442.875,438.375 Q441.9063,438.375 441.125,437.9844 Q440.4844,437.6563 440.0391,436.9609 Q439.5938,436.2656 439.5938,435.4375 L439.5938,434.6875 Q439.5938,433.8281 439.9922,433.0859 Q440.3906,432.3438 441.1016,431.9453 Q441.8125,431.5469 442.6094,431.5469 Q443.0781,431.5469 443.5,431.6563 Q443.9219,431.7656 444.2813,431.9844 Z " fill="#000000"/><text fill="#000000" font-family="sans-serif" font-size="11" lengthAdjust="spacing" textLength="73" x="460.25" y="439.2197">Transformation</text><line style="stroke:#181818;stroke-width:0.5;" x1="394" x2="572" y1="448.7188" y2="448.7188"/><text fill="#000000" font-family="sans-serif" font-size="11" lengthAdjust="spacing" textLength="135" x="399" y="464.1377">-transformationName: String</text><text fill="#000000" font-family="sans-serif" font-size="11" lengthAdjust="spacing" textLength="132" x="399" y="477.9736">-transformationType: String</text><text fill="#000000" font-family="sans-serif" font-size="11" lengthAdjust="spacing" textLength="62" x="399" y="491.8096">-code: String</text><line style="stroke:#181818;stroke-width:0.5;" x1="394" x2="572" y1="498.2266" y2="498.2266"/><text fill="#000000" font-family="sans-serif" font-size="11" lengthAdjust="spacing" textLength="136" x="399" y="513.6455">+execute(): ExecutionResult</text><text fill="#000000" font-family="sans-serif" font-size="11" lengthAdjust="spacing" textLength="134" x="399" y="527.4814">+validate(): ValidationResult</text><text fill="#000000" font-family="sans-serif" font-size="11" lengthAdjust="spacing" textLength="151" x="399" y="541.3174">+apply(input: DataSet): DataSet</text><text fill="#000000" font-family="sans-serif" font-size="11" lengthAdjust="spacing" textLength="168" x="399" y="555.1533">+test(sampleData: DataSet): Result</text></g><!--class StreamingProcess--><g id="elem_StreamingProcess"><rect codeLine="69" fill="#F1F1F1" height="154.6875" id="StreamingProcess" rx="2.5" ry="2.5" style="stroke:#181818;stroke-width:0.5;" width="148" x="608" y="413.7188"/><ellipse cx="635.4" cy="427.7188" fill="#ADD1B2" rx="9" ry="9" style="stroke:#181818;stroke-width:1.0;"/><path d="M636.9313,424.9844 Q637.025,424.8438 637.15,424.7734 Q637.275,424.7031 637.4156,424.7031 Q637.65,424.7031 637.8063,424.875 Q637.9625,425.0469 637.9625,425.4375 L637.9625,426.375 Q637.9625,426.7656 637.8063,426.9375 Q637.65,427.1094 637.4156,427.1094 Q637.1969,427.1094 637.0563,426.9844 Q636.9156,426.8594 636.8531,426.5313 Q636.8219,426.2969 636.7125,426.1719 Q636.4938,425.9375 636.0953,425.7891 Q635.6969,425.6406 635.3063,425.6406 Q634.8063,425.6406 634.3922,425.8594 Q633.9781,426.0781 633.6578,426.5625 Q633.3375,427.0469 633.3375,427.7031 L633.3375,428.4219 Q633.3375,429.2188 633.9156,429.75 Q634.4938,430.2813 635.525,430.2813 Q636.1344,430.2813 636.5563,430.1094 Q636.8063,430.0156 637.0875,429.7344 Q637.2594,429.5625 637.3531,429.5078 Q637.4469,429.4531 637.5719,429.4531 Q637.7906,429.4531 637.9625,429.625 Q638.1344,429.7969 638.1344,430.0156 Q638.1344,430.2344 637.9,430.5 Q637.5719,430.875 637.0563,431.0938 Q636.3688,431.375 635.525,431.375 Q634.5563,431.375 633.775,430.9844 Q633.1344,430.6563 632.6891,429.9609 Q632.2438,429.2656 632.2438,428.4375 L632.2438,427.6875 Q632.2438,426.8281 632.6422,426.0859 Q633.0406,425.3438 633.7516,424.9453 Q634.4625,424.5469 635.2594,424.5469 Q635.7281,424.5469 636.15,424.6563 Q636.5719,424.7656 636.9313,424.9844 Z " fill="#000000"/><text fill="#000000" font-family="sans-serif" font-size="11" lengthAdjust="spacing" textLength="88" x="650.6" y="432.2197">StreamingProcess</text><line style="stroke:#181818;stroke-width:0.5;" x1="609" x2="755" y1="441.7188" y2="441.7188"/><text fill="#000000" font-family="sans-serif" font-size="11" lengthAdjust="spacing" textLength="98" x="614" y="457.1377">-streamName: String</text><text fill="#000000" font-family="sans-serif" font-size="11" lengthAdjust="spacing" textLength="106" x="614" y="470.9736">-streamSource: String</text><text fill="#000000" font-family="sans-serif" font-size="11" lengthAdjust="spacing" textLength="124" x="614" y="484.8096">-processingEngine: String</text><text fill="#000000" font-family="sans-serif" font-size="11" lengthAdjust="spacing" textLength="111" x="614" y="498.6455">-windowSize: Duration</text><line style="stroke:#181818;stroke-width:0.5;" x1="609" x2="755" y1="505.0625" y2="505.0625"/><text fill="#000000" font-family="sans-serif" font-size="11" lengthAdjust="spacing" textLength="136" x="614" y="520.4814">+execute(): ExecutionResult</text><text fill="#000000" font-family="sans-serif" font-size="11" lengthAdjust="spacing" textLength="134" x="614" y="534.3174">+validate(): ValidationResult</text><text fill="#000000" font-family="sans-serif" font-size="11" lengthAdjust="spacing" textLength="96" x="614" y="548.1533">+startStream(): void</text><text fill="#000000" font-family="sans-serif" font-size="11" lengthAdjust="spacing" textLength="95" x="614" y="561.9893">+stopStream(): void</text></g><!--class BatchProcess--><g id="elem_BatchProcess"><rect codeLine="81" fill="#F1F1F1" height="127.0156" id="BatchProcess" rx="2.5" ry="2.5" style="stroke:#181818;stroke-width:0.5;" width="157" x="791.5" y="427.7188"/><ellipse cx="832.25" cy="441.7188" fill="#ADD1B2" rx="9" ry="9" style="stroke:#181818;stroke-width:1.0;"/><path d="M833.7813,438.9844 Q833.875,438.8438 834,438.7734 Q834.125,438.7031 834.2656,438.7031 Q834.5,438.7031 834.6563,438.875 Q834.8125,439.0469 834.8125,439.4375 L834.8125,440.375 Q834.8125,440.7656 834.6563,440.9375 Q834.5,441.1094 834.2656,441.1094 Q834.0469,441.1094 833.9063,440.9844 Q833.7656,440.8594 833.7031,440.5313 Q833.6719,440.2969 833.5625,440.1719 Q833.3438,439.9375 832.9453,439.7891 Q832.5469,439.6406 832.1563,439.6406 Q831.6563,439.6406 831.2422,439.8594 Q830.8281,440.0781 830.5078,440.5625 Q830.1875,441.0469 830.1875,441.7031 L830.1875,442.4219 Q830.1875,443.2188 830.7656,443.75 Q831.3438,444.2813 832.375,444.2813 Q832.9844,444.2813 833.4063,444.1094 Q833.6563,444.0156 833.9375,443.7344 Q834.1094,443.5625 834.2031,443.5078 Q834.2969,443.4531 834.4219,443.4531 Q834.6406,443.4531 834.8125,443.625 Q834.9844,443.7969 834.9844,444.0156 Q834.9844,444.2344 834.75,444.5 Q834.4219,444.875 833.9063,445.0938 Q833.2188,445.375 832.375,445.375 Q831.4063,445.375 830.625,444.9844 Q829.9844,444.6563 829.5391,443.9609 Q829.0938,443.2656 829.0938,442.4375 L829.0938,441.6875 Q829.0938,440.8281 829.4922,440.0859 Q829.8906,439.3438 830.6016,438.9453 Q831.3125,438.5469 832.1094,438.5469 Q832.5781,438.5469 833,438.6563 Q833.4219,438.7656 833.7813,438.9844 Z " fill="#000000"/><text fill="#000000" font-family="sans-serif" font-size="11" lengthAdjust="spacing" textLength="68" x="849.75" y="446.2197">BatchProcess</text><line style="stroke:#181818;stroke-width:0.5;" x1="792.5" x2="947.5" y1="455.7188" y2="455.7188"/><text fill="#000000" font-family="sans-serif" font-size="11" lengthAdjust="spacing" textLength="92" x="797.5" y="471.1377">-batchName: String</text><text fill="#000000" font-family="sans-serif" font-size="11" lengthAdjust="spacing" textLength="91" x="797.5" y="484.9736">-batchSize: Integer</text><text fill="#000000" font-family="sans-serif" font-size="11" lengthAdjust="spacing" textLength="114" x="797.5" y="498.8096">-cronExpression: String</text><line style="stroke:#181818;stroke-width:0.5;" x1="792.5" x2="947.5" y1="505.2266" y2="505.2266"/><text fill="#000000" font-family="sans-serif" font-size="11" lengthAdjust="spacing" textLength="136" x="797.5" y="520.6455">+execute(): ExecutionResult</text><text fill="#000000" font-family="sans-serif" font-size="11" lengthAdjust="spacing" textLength="134" x="797.5" y="534.4814">+validate(): ValidationResult</text><text fill="#000000" font-family="sans-serif" font-size="11" lengthAdjust="spacing" textLength="145" x="797.5" y="548.3174">+executeBatch(): BatchResult</text></g><!--class Job--><g id="elem_Job"><rect codeLine="91" fill="#F1F1F1" height="196.1953" id="Job" rx="2.5" ry="2.5" style="stroke:#181818;stroke-width:0.5;" width="136" x="984" y="393.2188"/><ellipse cx="1039.75" cy="407.2188" fill="#ADD1B2" rx="9" ry="9" style="stroke:#181818;stroke-width:1.0;"/><path d="M1041.2813,404.4844 Q1041.375,404.3438 1041.5,404.2734 Q1041.625,404.2031 1041.7656,404.2031 Q1042,404.2031 1042.1563,404.375 Q1042.3125,404.5469 1042.3125,404.9375 L1042.3125,405.875 Q1042.3125,406.2656 1042.1563,406.4375 Q1042,406.6094 1041.7656,406.6094 Q1041.5469,406.6094 1041.4063,406.4844 Q1041.2656,406.3594 1041.2031,406.0313 Q1041.1719,405.7969 1041.0625,405.6719 Q1040.8438,405.4375 1040.4453,405.2891 Q1040.0469,405.1406 1039.6563,405.1406 Q1039.1563,405.1406 1038.7422,405.3594 Q1038.3281,405.5781 1038.0078,406.0625 Q1037.6875,406.5469 1037.6875,407.2031 L1037.6875,407.9219 Q1037.6875,408.7188 1038.2656,409.25 Q1038.8438,409.7813 1039.875,409.7813 Q1040.4844,409.7813 1040.9063,409.6094 Q1041.1563,409.5156 1041.4375,409.2344 Q1041.6094,409.0625 1041.7031,409.0078 Q1041.7969,408.9531 1041.9219,408.9531 Q1042.1406,408.9531 1042.3125,409.125 Q1042.4844,409.2969 1042.4844,409.5156 Q1042.4844,409.7344 1042.25,410 Q1041.9219,410.375 1041.4063,410.5938 Q1040.7188,410.875 1039.875,410.875 Q1038.9063,410.875 1038.125,410.4844 Q1037.4844,410.1563 1037.0391,409.4609 Q1036.5938,408.7656 1036.5938,407.9375 L1036.5938,407.1875 Q1036.5938,406.3281 1036.9922,405.5859 Q1037.3906,404.8438 1038.1016,404.4453 Q1038.8125,404.0469 1039.6094,404.0469 Q1040.0781,404.0469 1040.5,404.1563 Q1040.9219,404.2656 1041.2813,404.4844 Z " fill="#000000"/><text fill="#000000" font-family="sans-serif" font-size="11" lengthAdjust="spacing" textLength="17" x="1057.25" y="411.7197">Job</text><line style="stroke:#181818;stroke-width:0.5;" x1="985" x2="1119" y1="421.2188" y2="421.2188"/><text fill="#000000" font-family="sans-serif" font-size="11" lengthAdjust="spacing" textLength="41" x="990" y="436.6377">-id: UUID</text><text fill="#000000" font-family="sans-serif" font-size="11" lengthAdjust="spacing" textLength="81" x="990" y="450.4736">-processId: UUID</text><text fill="#000000" font-family="sans-serif" font-size="11" lengthAdjust="spacing" textLength="98" x="990" y="464.3096">-startTime: DateTime</text><text fill="#000000" font-family="sans-serif" font-size="11" lengthAdjust="spacing" textLength="94" x="990" y="478.1455">-endTime: DateTime</text><text fill="#000000" font-family="sans-serif" font-size="11" lengthAdjust="spacing" textLength="68" x="990" y="491.9814">-status: String</text><text fill="#000000" font-family="sans-serif" font-size="11" lengthAdjust="spacing" textLength="124" x="990" y="505.8174">-recordsProcessed: Long</text><text fill="#000000" font-family="sans-serif" font-size="11" lengthAdjust="spacing" textLength="95" x="990" y="519.6533">-errorCount: Integer</text><line style="stroke:#181818;stroke-width:0.5;" x1="985" x2="1119" y1="526.0703" y2="526.0703"/><text fill="#000000" font-family="sans-serif" font-size="11" lengthAdjust="spacing" textLength="62" x="990" y="541.4893">+start(): void</text><text fill="#000000" font-family="sans-serif" font-size="11" lengthAdjust="spacing" textLength="70" x="990" y="555.3252">+pause(): void</text><text fill="#000000" font-family="sans-serif" font-size="11" lengthAdjust="spacing" textLength="72" x="990" y="569.1611">+cancel(): void</text><text fill="#000000" font-family="sans-serif" font-size="11" lengthAdjust="spacing" textLength="122" x="990" y="582.9971">+getMetrics(): JobMetrics</text></g><!--reverse link Process to DataPipeline--><g id="link_Process_DataPipeline"><path codeLine="107" d="M487.47,221.2188 C351.27,221.2188 99,221.2188 99,221.2188 C99,221.2188 99,333.7188 99,413.4888 " fill="none" id="Process-backto-DataPipeline" style="stroke:#181818;stroke-width:1.0;"/><polygon fill="none" points="505.47,221.2188,487.47,215.2188,487.47,227.2188,505.47,221.2188" style="stroke:#181818;stroke-width:1.0;"/></g><!--reverse link Process to DataIngestion--><g id="link_Process_DataIngestion"><path codeLine="108" d="M528,351.4388 C528,390.7188 528,407.2188 528,407.2188 C528,407.2188 429.99,407.2188 358.2,407.2188 " fill="none" id="Process-backto-DataIngestion" style="stroke:#181818;stroke-width:1.0;"/><polygon fill="none" points="528,333.4388,522,351.4388,534,351.4388,528,333.4388" style="stroke:#181818;stroke-width:1.0;"/></g><!--reverse link Process to Transformation--><g id="link_Process_Transformation"><path codeLine="109" d="M550.5,351.3788 C550.5,380.9388 550.5,393.9988 550.5,420.6688 " fill="none" id="Process-backto-Transformation" style="stroke:#181818;stroke-width:1.0;"/><polygon fill="none" points="550.5,333.3788,544.5,351.3788,556.5,351.3788,550.5,333.3788" style="stroke:#181818;stroke-width:1.0;"/></g><!--reverse link Process to StreamingProcess--><g id="link_Process_StreamingProcess"><path codeLine="110" d="M624.83,351.3788 C624.83,378.3288 624.83,388.5288 624.83,413.5087 " fill="none" id="Process-backto-StreamingProcess" style="stroke:#181818;stroke-width:1.0;"/><polygon fill="none" points="624.83,333.3788,618.83,351.3788,630.83,351.3788,624.83,333.3788" style="stroke:#181818;stroke-width:1.0;"/></g><!--reverse link Process to BatchProcess--><g id="link_Process_BatchProcess"><path codeLine="111" d="M676.8,221.2188 C762.12,221.2188 870,221.2188 870,221.2188 C870,221.2188 870,347.7488 870,427.5788 " fill="none" id="Process-backto-BatchProcess" style="stroke:#181818;stroke-width:1.0;"/><polygon fill="none" points="658.8,221.2188,676.8,227.2188,676.8,215.2188,658.8,221.2188" style="stroke:#181818;stroke-width:1.0;"/></g><!--link Process to Job--><g id="link_Process_Job"><path codeLine="113" d="M641.67,333.6788 C641.67,368.1688 641.67,397.2188 641.67,397.2188 C641.67,397.2188 867.1,397.2188 983.78,397.2188 " fill="none" id="Process-Job" style="stroke:#181818;stroke-width:1.0;"/><polygon fill="#000000" points="730.8827,390.8671,724.1977,387.2342,723.339,391.8574,730.8827,390.8671" style="stroke:#000000;stroke-width:1.0;"/><text fill="#000000" font-family="sans-serif" font-size="11" lengthAdjust="spacing" textLength="45" x="734.95" y="394.6377">executes</text><text fill="#000000" font-family="sans-serif" font-size="11" lengthAdjust="spacing" textLength="6" x="639.1233" y="352.3763">1</text><text fill="#000000" font-family="sans-serif" font-size="11" lengthAdjust="spacing" textLength="16" x="959.9198" y="385.3067">0..*</text></g><!--SRC=[lLR1Rjiu4BthAxZUmwPUk4XoAemWG1exWRjfOqJkdXO8nj949YgHAZbgcxRvXfxRB-dtz0Vw2pkaP5UsgAI7xVfWq7oFqioRnnd_bkADL2ZcLvUdqpY-FhsykBmIlv-TJVUV74QHVILL2GOAKKBo2ZACwJP7OJ0XK5cEBO9TGQhVIfM96yXj6rdoqSpeIgMdEjT6l5r9QkCS0bGvdMb5iNoFuk2W1UOS7TsMABIXbMu1IGxMdX0PkQm8PubM_l1-594aZd4udEW2f1A7Op410Z4tEa5hNOJFaM3qNAUO3uV_g2XgaXE3Rry-V__wIKnE5YThIMOlpWS2h9Z_TNxTR8cZeydXyV6EQ1yYmH__1KjB1XAgWro_kM6upqZ8T2nUlfnDMbiA2XoBc3DIMMkxh4ylM8H-b3TTFW62JLQOLdaG8g3A1e34812c9-IbmuKiS8DUNs-MVueFwqpl1Bx3X0knzsWifdufjRf2ouKDyzz0BbEe3_nThqCdIgYivxpHCctj6oOM8I01bM0U03Aa2pOJrzc1pVBSGBdofBiVvQkhvampboKw1swLhcmsNuJhfGqhxh8aRK85O_VcEJ_05cCnKuGPch2uFwNeJye8QHeJbdkMlrnGM7O5QjuNu-iA5Kdm8dQUrB3cJHexdA2ACvMn81pMbenMLoR1MVSU41YkLG2Gw-Vm_LtfD23kXd5cV1R9RO34ST5LfPoh7_BtVrc2EhQWfkidn5uIHtcgTOwW0fo5LsUNqz5zOK3P6sqAw0XFMr2FYxT9FSqd2RMSN-VXiinlzxZ_LtLVWXZfqMRL8fBJsK9HvkZ0Dla-gt8U20Md4khNreCzOjLWNRrxU_HKPTmu0XGUd3mztGJZQ2lZ1VZrYl80C5Id7MYObdGP03kwFGLALY7DbWxeaSnZTRwxJT3D7wscxqhZHDFg_tDOyooVaBzXRd6VPPxfvKDJlIb-e9rvzNkwq4YWIdknti7DVyoqIMrJ3EHtNkWj0XgZpId_5wC7XeyFBc2AldbytzZbTcraOXt8WZM_TWNzW-zcxijIGsj37NqSZRPcSHZTp9WklDqAk_ZklUyosWx_4V6QCZWO22ODzXy_7Wwy9SPh9rbn7Dr5_m80]--></g></svg>