<?xml version="1.0" encoding="us-ascii" standalone="no"?><svg xmlns="http://www.w3.org/2000/svg" xmlns:xlink="http://www.w3.org/1999/xlink" contentStyleType="text/css" height="597px" preserveAspectRatio="none" style="width:832px;height:597px;background:#FFFFFF;" version="1.1" viewBox="0 0 832 597" width="832px" zoomAndPan="magnify"><defs/><g><text fill="#000000" font-family="sans-serif" font-size="14" font-weight="bold" lengthAdjust="spacing" textLength="250" x="284" y="24.5332">Domain 3: Data Storage Meta-Model</text><text fill="#000000" font-family="sans-serif" font-size="14" font-weight="bold" lengthAdjust="spacing" textLength="4" x="407" y="42.1426">&#160;</text><!--cluster PKG_STORAGE--><g id="cluster_PKG_STORAGE"><rect fill="#EEEEEE" height="528" rx="2.5" ry="2.5" style="stroke:#000000;stroke-width:1.5;" width="819" x="7" y="63.2188"/><text fill="#000000" font-family="sans-serif" font-size="11" font-style="italic" lengthAdjust="spacing" textLength="26" x="403.5" y="76.6377">&#171;D3&#187;</text><text fill="#000000" font-family="sans-serif" font-size="11" font-weight="bold" lengthAdjust="spacing" textLength="99" x="367" y="90.4736">&#128190; DATA STORAGE</text></g><!--class DataStorage--><g id="elem_DataStorage"><rect codeLine="15" fill="#F1F1F1" height="210.0313" id="DataStorage" rx="2.5" ry="2.5" style="stroke:#181818;stroke-width:0.5;" width="170" x="308" y="109.2188"/><ellipse cx="359.25" cy="123.2188" fill="#ADD1B2" rx="9" ry="9" style="stroke:#181818;stroke-width:1.0;"/><path d="M360.7813,120.4844 Q360.875,120.3438 361,120.2734 Q361.125,120.2031 361.2656,120.2031 Q361.5,120.2031 361.6563,120.375 Q361.8125,120.5469 361.8125,120.9375 L361.8125,121.875 Q361.8125,122.2656 361.6563,122.4375 Q361.5,122.6094 361.2656,122.6094 Q361.0469,122.6094 360.9063,122.4844 Q360.7656,122.3594 360.7031,122.0313 Q360.6719,121.7969 360.5625,121.6719 Q360.3438,121.4375 359.9453,121.2891 Q359.5469,121.1406 359.1563,121.1406 Q358.6563,121.1406 358.2422,121.3594 Q357.8281,121.5781 357.5078,122.0625 Q357.1875,122.5469 357.1875,123.2031 L357.1875,123.9219 Q357.1875,124.7188 357.7656,125.25 Q358.3438,125.7813 359.375,125.7813 Q359.9844,125.7813 360.4063,125.6094 Q360.6563,125.5156 360.9375,125.2344 Q361.1094,125.0625 361.2031,125.0078 Q361.2969,124.9531 361.4219,124.9531 Q361.6406,124.9531 361.8125,125.125 Q361.9844,125.2969 361.9844,125.5156 Q361.9844,125.7344 361.75,126 Q361.4219,126.375 360.9063,126.5938 Q360.2188,126.875 359.375,126.875 Q358.4063,126.875 357.625,126.4844 Q356.9844,126.1563 356.5391,125.4609 Q356.0938,124.7656 356.0938,123.9375 L356.0938,123.1875 Q356.0938,122.3281 356.4922,121.5859 Q356.8906,120.8438 357.6016,120.4453 Q358.3125,120.0469 359.1094,120.0469 Q359.5781,120.0469 360,120.1563 Q360.4219,120.2656 360.7813,120.4844 Z " fill="#000000"/><text fill="#000000" font-family="sans-serif" font-size="11" lengthAdjust="spacing" textLength="60" x="376.75" y="127.7197">DataStorage</text><line style="stroke:#181818;stroke-width:0.5;" x1="309" x2="477" y1="137.2188" y2="137.2188"/><text fill="#000000" font-family="sans-serif" font-size="11" lengthAdjust="spacing" textLength="41" x="314" y="152.6377">-id: UUID</text><text fill="#000000" font-family="sans-serif" font-size="11" lengthAdjust="spacing" textLength="64" x="314" y="166.4736">-name: String</text><text fill="#000000" font-family="sans-serif" font-size="11" lengthAdjust="spacing" textLength="99" x="314" y="180.3096">-storageType: String</text><text fill="#000000" font-family="sans-serif" font-size="11" lengthAdjust="spacing" textLength="63" x="314" y="194.1455">-location: URI</text><text fill="#000000" font-family="sans-serif" font-size="11" lengthAdjust="spacing" textLength="75" x="314" y="207.9814">-capacity: Long</text><text fill="#000000" font-family="sans-serif" font-size="11" lengthAdjust="spacing" textLength="89" x="314" y="221.8174">-usedSpace: Long</text><text fill="#000000" font-family="sans-serif" font-size="11" lengthAdjust="spacing" textLength="106" x="314" y="235.6533">-isEncrypted: Boolean</text><line style="stroke:#181818;stroke-width:0.5;" x1="309" x2="477" y1="242.0703" y2="242.0703"/><text fill="#000000" font-family="sans-serif" font-size="11" lengthAdjust="spacing" textLength="134" x="314" y="257.4893">+getAvailableSpace(): Long</text><text fill="#000000" font-family="sans-serif" font-size="11" lengthAdjust="spacing" textLength="158" x="314" y="271.3252">+getUsagePercentage(): Decimal</text><text fill="#000000" font-family="sans-serif" font-size="11" lengthAdjust="spacing" textLength="78" x="314" y="285.1611">+cleanup(): void</text><text fill="#000000" font-family="sans-serif" font-size="11" lengthAdjust="spacing" textLength="141" x="314" y="298.9971">+archive(data: DataSet): void</text><text fill="#000000" font-family="sans-serif" font-size="11" lengthAdjust="spacing" textLength="79" x="314" y="312.833">+optimize(): void</text></g><!--class StoragePartition--><g id="elem_StoragePartition"><rect codeLine="31" fill="#F1F1F1" height="196.1953" id="StoragePartition" rx="2.5" ry="2.5" style="stroke:#181818;stroke-width:0.5;" width="142" x="23" y="379.2188"/><ellipse cx="53.1" cy="393.2188" fill="#ADD1B2" rx="9" ry="9" style="stroke:#181818;stroke-width:1.0;"/><path d="M54.6313,390.4844 Q54.725,390.3438 54.85,390.2734 Q54.975,390.2031 55.1156,390.2031 Q55.35,390.2031 55.5063,390.375 Q55.6625,390.5469 55.6625,390.9375 L55.6625,391.875 Q55.6625,392.2656 55.5063,392.4375 Q55.35,392.6094 55.1156,392.6094 Q54.8969,392.6094 54.7563,392.4844 Q54.6156,392.3594 54.5531,392.0313 Q54.5219,391.7969 54.4125,391.6719 Q54.1938,391.4375 53.7953,391.2891 Q53.3969,391.1406 53.0063,391.1406 Q52.5063,391.1406 52.0922,391.3594 Q51.6781,391.5781 51.3578,392.0625 Q51.0375,392.5469 51.0375,393.2031 L51.0375,393.9219 Q51.0375,394.7188 51.6156,395.25 Q52.1938,395.7813 53.225,395.7813 Q53.8344,395.7813 54.2563,395.6094 Q54.5063,395.5156 54.7875,395.2344 Q54.9594,395.0625 55.0531,395.0078 Q55.1469,394.9531 55.2719,394.9531 Q55.4906,394.9531 55.6625,395.125 Q55.8344,395.2969 55.8344,395.5156 Q55.8344,395.7344 55.6,396 Q55.2719,396.375 54.7563,396.5938 Q54.0688,396.875 53.225,396.875 Q52.2563,396.875 51.475,396.4844 Q50.8344,396.1563 50.3891,395.4609 Q49.9438,394.7656 49.9438,393.9375 L49.9438,393.1875 Q49.9438,392.3281 50.3422,391.5859 Q50.7406,390.8438 51.4516,390.4453 Q52.1625,390.0469 52.9594,390.0469 Q53.4281,390.0469 53.85,390.1563 Q54.2719,390.2656 54.6313,390.4844 Z " fill="#000000"/><text fill="#000000" font-family="sans-serif" font-size="11" lengthAdjust="spacing" textLength="76" x="68.9" y="397.7197">StoragePartition</text><line style="stroke:#181818;stroke-width:0.5;" x1="24" x2="164" y1="407.2188" y2="407.2188"/><text fill="#000000" font-family="sans-serif" font-size="11" lengthAdjust="spacing" textLength="41" x="29" y="422.6377">-id: UUID</text><text fill="#000000" font-family="sans-serif" font-size="11" lengthAdjust="spacing" textLength="78" x="29" y="436.4736">-storageId: UUID</text><text fill="#000000" font-family="sans-serif" font-size="11" lengthAdjust="spacing" textLength="95" x="29" y="450.3096">-partitionKey: String</text><text fill="#000000" font-family="sans-serif" font-size="11" lengthAdjust="spacing" textLength="104" x="29" y="464.1455">-partitionValue: String</text><text fill="#000000" font-family="sans-serif" font-size="11" lengthAdjust="spacing" textLength="63" x="29" y="477.9814">-location: URI</text><text fill="#000000" font-family="sans-serif" font-size="11" lengthAdjust="spacing" textLength="94" x="29" y="491.8174">-recordCount: Long</text><text fill="#000000" font-family="sans-serif" font-size="11" lengthAdjust="spacing" textLength="54" x="29" y="505.6533">-size: Long</text><line style="stroke:#181818;stroke-width:0.5;" x1="24" x2="164" y1="512.0703" y2="512.0703"/><text fill="#000000" font-family="sans-serif" font-size="11" lengthAdjust="spacing" textLength="80" x="29" y="527.4893">+read(): DataSet</text><text fill="#000000" font-family="sans-serif" font-size="11" lengthAdjust="spacing" textLength="130" x="29" y="541.3252">+write(data: DataSet): void</text><text fill="#000000" font-family="sans-serif" font-size="11" lengthAdjust="spacing" textLength="69" x="29" y="555.1611">+delete(): void</text><text fill="#000000" font-family="sans-serif" font-size="11" lengthAdjust="spacing" textLength="81" x="29" y="568.9971">+compact(): void</text></g><!--class StorageZone--><g id="elem_StorageZone"><rect codeLine="46" fill="#F1F1F1" height="154.6875" id="StorageZone" rx="2.5" ry="2.5" style="stroke:#181818;stroke-width:0.5;" width="165" x="200.5" y="399.7188"/><ellipse cx="247.75" cy="413.7188" fill="#ADD1B2" rx="9" ry="9" style="stroke:#181818;stroke-width:1.0;"/><path d="M249.2813,410.9844 Q249.375,410.8438 249.5,410.7734 Q249.625,410.7031 249.7656,410.7031 Q250,410.7031 250.1563,410.875 Q250.3125,411.0469 250.3125,411.4375 L250.3125,412.375 Q250.3125,412.7656 250.1563,412.9375 Q250,413.1094 249.7656,413.1094 Q249.5469,413.1094 249.4063,412.9844 Q249.2656,412.8594 249.2031,412.5313 Q249.1719,412.2969 249.0625,412.1719 Q248.8438,411.9375 248.4453,411.7891 Q248.0469,411.6406 247.6563,411.6406 Q247.1563,411.6406 246.7422,411.8594 Q246.3281,412.0781 246.0078,412.5625 Q245.6875,413.0469 245.6875,413.7031 L245.6875,414.4219 Q245.6875,415.2188 246.2656,415.75 Q246.8438,416.2813 247.875,416.2813 Q248.4844,416.2813 248.9063,416.1094 Q249.1563,416.0156 249.4375,415.7344 Q249.6094,415.5625 249.7031,415.5078 Q249.7969,415.4531 249.9219,415.4531 Q250.1406,415.4531 250.3125,415.625 Q250.4844,415.7969 250.4844,416.0156 Q250.4844,416.2344 250.25,416.5 Q249.9219,416.875 249.4063,417.0938 Q248.7188,417.375 247.875,417.375 Q246.9063,417.375 246.125,416.9844 Q245.4844,416.6563 245.0391,415.9609 Q244.5938,415.2656 244.5938,414.4375 L244.5938,413.6875 Q244.5938,412.8281 244.9922,412.0859 Q245.3906,411.3438 246.1016,410.9453 Q246.8125,410.5469 247.6094,410.5469 Q248.0781,410.5469 248.5,410.6563 Q248.9219,410.7656 249.2813,410.9844 Z " fill="#000000"/><text fill="#000000" font-family="sans-serif" font-size="11" lengthAdjust="spacing" textLength="63" x="265.25" y="418.2197">StorageZone</text><line style="stroke:#181818;stroke-width:0.5;" x1="201.5" x2="364.5" y1="427.7188" y2="427.7188"/><text fill="#000000" font-family="sans-serif" font-size="11" lengthAdjust="spacing" textLength="41" x="206.5" y="443.1377">-id: UUID</text><text fill="#000000" font-family="sans-serif" font-size="11" lengthAdjust="spacing" textLength="78" x="206.5" y="456.9736">-storageId: UUID</text><text fill="#000000" font-family="sans-serif" font-size="11" lengthAdjust="spacing" textLength="89" x="206.5" y="470.8096">-zoneName: String</text><text fill="#000000" font-family="sans-serif" font-size="11" lengthAdjust="spacing" textLength="86" x="206.5" y="484.6455">-zoneType: String</text><text fill="#000000" font-family="sans-serif" font-size="11" lengthAdjust="spacing" textLength="110" x="206.5" y="498.4814">-retentionDays: Integer</text><line style="stroke:#181818;stroke-width:0.5;" x1="201.5" x2="364.5" y1="504.8984" y2="504.8984"/><text fill="#000000" font-family="sans-serif" font-size="11" lengthAdjust="spacing" textLength="153" x="206.5" y="520.3174">+moveData(data: DataSet): void</text><text fill="#000000" font-family="sans-serif" font-size="11" lengthAdjust="spacing" textLength="111" x="206.5" y="534.1533">+applyRetention(): void</text><text fill="#000000" font-family="sans-serif" font-size="11" lengthAdjust="spacing" textLength="122" x="206.5" y="547.9893">+getDatasets(): DataSet[]</text></g><!--class StoragePolicy--><g id="elem_StoragePolicy"><rect codeLine="58" fill="#F1F1F1" height="154.6875" id="StoragePolicy" rx="2.5" ry="2.5" style="stroke:#181818;stroke-width:0.5;" width="206" x="401" y="399.7188"/><ellipse cx="467.25" cy="413.7188" fill="#ADD1B2" rx="9" ry="9" style="stroke:#181818;stroke-width:1.0;"/><path d="M468.7813,410.9844 Q468.875,410.8438 469,410.7734 Q469.125,410.7031 469.2656,410.7031 Q469.5,410.7031 469.6563,410.875 Q469.8125,411.0469 469.8125,411.4375 L469.8125,412.375 Q469.8125,412.7656 469.6563,412.9375 Q469.5,413.1094 469.2656,413.1094 Q469.0469,413.1094 468.9063,412.9844 Q468.7656,412.8594 468.7031,412.5313 Q468.6719,412.2969 468.5625,412.1719 Q468.3438,411.9375 467.9453,411.7891 Q467.5469,411.6406 467.1563,411.6406 Q466.6563,411.6406 466.2422,411.8594 Q465.8281,412.0781 465.5078,412.5625 Q465.1875,413.0469 465.1875,413.7031 L465.1875,414.4219 Q465.1875,415.2188 465.7656,415.75 Q466.3438,416.2813 467.375,416.2813 Q467.9844,416.2813 468.4063,416.1094 Q468.6563,416.0156 468.9375,415.7344 Q469.1094,415.5625 469.2031,415.5078 Q469.2969,415.4531 469.4219,415.4531 Q469.6406,415.4531 469.8125,415.625 Q469.9844,415.7969 469.9844,416.0156 Q469.9844,416.2344 469.75,416.5 Q469.4219,416.875 468.9063,417.0938 Q468.2188,417.375 467.375,417.375 Q466.4063,417.375 465.625,416.9844 Q464.9844,416.6563 464.5391,415.9609 Q464.0938,415.2656 464.0938,414.4375 L464.0938,413.6875 Q464.0938,412.8281 464.4922,412.0859 Q464.8906,411.3438 465.6016,410.9453 Q466.3125,410.5469 467.1094,410.5469 Q467.5781,410.5469 468,410.6563 Q468.4219,410.7656 468.7813,410.9844 Z " fill="#000000"/><text fill="#000000" font-family="sans-serif" font-size="11" lengthAdjust="spacing" textLength="66" x="484.75" y="418.2197">StoragePolicy</text><line style="stroke:#181818;stroke-width:0.5;" x1="402" x2="606" y1="427.7188" y2="427.7188"/><text fill="#000000" font-family="sans-serif" font-size="11" lengthAdjust="spacing" textLength="41" x="407" y="443.1377">-id: UUID</text><text fill="#000000" font-family="sans-serif" font-size="11" lengthAdjust="spacing" textLength="78" x="407" y="456.9736">-storageId: UUID</text><text fill="#000000" font-family="sans-serif" font-size="11" lengthAdjust="spacing" textLength="93" x="407" y="470.8096">-policyName: String</text><text fill="#000000" font-family="sans-serif" font-size="11" lengthAdjust="spacing" textLength="122" x="407" y="484.6455">-retentionPeriod: Duration</text><text fill="#000000" font-family="sans-serif" font-size="11" lengthAdjust="spacing" textLength="111" x="407" y="498.4814">-archiveAfter: Duration</text><line style="stroke:#181818;stroke-width:0.5;" x1="402" x2="606" y1="504.8984" y2="504.8984"/><text fill="#000000" font-family="sans-serif" font-size="11" lengthAdjust="spacing" textLength="66" x="407" y="520.3174">+apply(): void</text><text fill="#000000" font-family="sans-serif" font-size="11" lengthAdjust="spacing" textLength="194" x="407" y="534.1533">+shouldArchive(data: DataSet): Boolean</text><text fill="#000000" font-family="sans-serif" font-size="11" lengthAdjust="spacing" textLength="186" x="407" y="547.9893">+shouldDelete(data: DataSet): Boolean</text></g><!--class StorageMetrics--><g id="elem_StorageMetrics"><rect codeLine="70" fill="#F1F1F1" height="154.6875" id="StorageMetrics" rx="2.5" ry="2.5" style="stroke:#181818;stroke-width:0.5;" width="168" x="642" y="399.7188"/><ellipse cx="685.75" cy="413.7188" fill="#ADD1B2" rx="9" ry="9" style="stroke:#181818;stroke-width:1.0;"/><path d="M687.2813,410.9844 Q687.375,410.8438 687.5,410.7734 Q687.625,410.7031 687.7656,410.7031 Q688,410.7031 688.1563,410.875 Q688.3125,411.0469 688.3125,411.4375 L688.3125,412.375 Q688.3125,412.7656 688.1563,412.9375 Q688,413.1094 687.7656,413.1094 Q687.5469,413.1094 687.4063,412.9844 Q687.2656,412.8594 687.2031,412.5313 Q687.1719,412.2969 687.0625,412.1719 Q686.8438,411.9375 686.4453,411.7891 Q686.0469,411.6406 685.6563,411.6406 Q685.1563,411.6406 684.7422,411.8594 Q684.3281,412.0781 684.0078,412.5625 Q683.6875,413.0469 683.6875,413.7031 L683.6875,414.4219 Q683.6875,415.2188 684.2656,415.75 Q684.8438,416.2813 685.875,416.2813 Q686.4844,416.2813 686.9063,416.1094 Q687.1563,416.0156 687.4375,415.7344 Q687.6094,415.5625 687.7031,415.5078 Q687.7969,415.4531 687.9219,415.4531 Q688.1406,415.4531 688.3125,415.625 Q688.4844,415.7969 688.4844,416.0156 Q688.4844,416.2344 688.25,416.5 Q687.9219,416.875 687.4063,417.0938 Q686.7188,417.375 685.875,417.375 Q684.9063,417.375 684.125,416.9844 Q683.4844,416.6563 683.0391,415.9609 Q682.5938,415.2656 682.5938,414.4375 L682.5938,413.6875 Q682.5938,412.8281 682.9922,412.0859 Q683.3906,411.3438 684.1016,410.9453 Q684.8125,410.5469 685.6094,410.5469 Q686.0781,410.5469 686.5,410.6563 Q686.9219,410.7656 687.2813,410.9844 Z " fill="#000000"/><text fill="#000000" font-family="sans-serif" font-size="11" lengthAdjust="spacing" textLength="73" x="703.25" y="418.2197">StorageMetrics</text><line style="stroke:#181818;stroke-width:0.5;" x1="643" x2="809" y1="427.7188" y2="427.7188"/><text fill="#000000" font-family="sans-serif" font-size="11" lengthAdjust="spacing" textLength="41" x="648" y="443.1377">-id: UUID</text><text fill="#000000" font-family="sans-serif" font-size="11" lengthAdjust="spacing" textLength="78" x="648" y="456.9736">-storageId: UUID</text><text fill="#000000" font-family="sans-serif" font-size="11" lengthAdjust="spacing" textLength="102" x="648" y="470.8096">-timestamp: DateTime</text><text fill="#000000" font-family="sans-serif" font-size="11" lengthAdjust="spacing" textLength="109" x="648" y="484.6455">-readOperations: Long</text><text fill="#000000" font-family="sans-serif" font-size="11" lengthAdjust="spacing" textLength="112" x="648" y="498.4814">-writeOperations: Long</text><text fill="#000000" font-family="sans-serif" font-size="11" lengthAdjust="spacing" textLength="86" x="648" y="512.3174">-throughput: Long</text><line style="stroke:#181818;stroke-width:0.5;" x1="643" x2="809" y1="518.7344" y2="518.7344"/><text fill="#000000" font-family="sans-serif" font-size="11" lengthAdjust="spacing" textLength="83" x="648" y="534.1533">+calculate(): void</text><text fill="#000000" font-family="sans-serif" font-size="11" lengthAdjust="spacing" textLength="156" x="648" y="547.9893">+getAverageLatency(): Duration</text></g><!--link DataStorage to StoragePartition--><g id="link_DataStorage_StoragePartition"><path codeLine="83" d="M327.17,319.3888 C327.17,356.9788 327.17,390.2188 327.17,390.2188 C327.17,390.2188 233.79,390.2188 165.22,390.2188 " fill="none" id="DataStorage-StoragePartition" style="stroke:#181818;stroke-width:1.0;"/><polygon fill="#000000" points="227.9452,384.7396,235.517,383.9941,233.6328,379.6859,227.9452,384.7396" style="stroke:#000000;stroke-width:1.0;"/><text fill="#000000" font-family="sans-serif" font-size="11" lengthAdjust="spacing" textLength="41" x="239.61" y="387.6377">contains</text><text fill="#000000" font-family="sans-serif" font-size="11" lengthAdjust="spacing" textLength="6" x="316.3304" y="338.6878">1</text><text fill="#000000" font-family="sans-serif" font-size="11" lengthAdjust="spacing" textLength="16" x="173.0182" y="379.4653">0..*</text></g><!--link DataStorage to StorageZone--><g id="link_DataStorage_StorageZone"><path codeLine="84" d="M346.33,319.2988 C346.33,346.0488 346.33,374.3288 346.33,399.4488 " fill="none" id="DataStorage-StorageZone" style="stroke:#181818;stroke-width:1.0;"/><polygon fill="#000000" points="278.33,356.2867,280.6811,349.0507,275.9789,349.0507,278.33,356.2867" style="stroke:#000000;stroke-width:1.0;"/><text fill="#000000" font-family="sans-serif" font-size="11" lengthAdjust="spacing" textLength="59" x="286.33" y="356.7877">organized in</text><text fill="#000000" font-family="sans-serif" font-size="11" lengthAdjust="spacing" textLength="6" x="336.8376" y="338.5915">1</text><text fill="#000000" font-family="sans-serif" font-size="11" lengthAdjust="spacing" textLength="16" x="336.0359" y="389.2366">0..*</text></g><!--link DataStorage to StoragePolicy--><g id="link_DataStorage_StoragePolicy"><path codeLine="85" d="M439.5,319.2988 C439.5,346.0488 439.5,374.3288 439.5,399.4488 " fill="none" id="DataStorage-StoragePolicy" style="stroke:#181818;stroke-width:1.0;"/><polygon fill="#000000" points="369.5,356.2867,371.8511,349.0507,367.1489,349.0507,369.5,356.2867" style="stroke:#000000;stroke-width:1.0;"/><text fill="#000000" font-family="sans-serif" font-size="11" lengthAdjust="spacing" textLength="61" x="377.5" y="356.7877">governed by</text><text fill="#000000" font-family="sans-serif" font-size="11" lengthAdjust="spacing" textLength="6" x="436.5586" y="338.5915">1</text><text fill="#000000" font-family="sans-serif" font-size="11" lengthAdjust="spacing" textLength="16" x="416.0234" y="389.2366">0..*</text></g><!--link DataStorage to StorageMetrics--><g id="link_DataStorage_StorageMetrics"><path codeLine="86" d="M478.32,214.2188 C576.99,214.2188 726,214.2188 726,214.2188 C726,214.2188 726,321.8288 726,399.3787 " fill="none" id="DataStorage-StorageMetrics" style="stroke:#181818;stroke-width:1.0;"/><polygon fill="#000000" points="626.9437,209.5317,622.5559,203.316,619.7404,207.0822,626.9437,209.5317" style="stroke:#000000;stroke-width:1.0;"/><text fill="#000000" font-family="sans-serif" font-size="11" lengthAdjust="spacing" textLength="62" x="631.74" y="211.6377">monitored by</text><text fill="#000000" font-family="sans-serif" font-size="11" lengthAdjust="spacing" textLength="6" x="485.91" y="212.1137">1</text><text fill="#000000" font-family="sans-serif" font-size="11" lengthAdjust="spacing" textLength="16" x="709.175" y="389.1593">0..*</text></g><!--SRC=[fLLBRjim4Dth5AoxQEl2GOBiX2206gM1aQGERAUBVc2CgObCX285adAW5Bb4Bz2Rz4mzGaVq1x8jEsxAXI3opP33D_E6hnAy4mhPODZhHnVdexFULQ_FNf_x4GJsNgWS36Gi1tuFAGvSAP4Pv0vKAh5cO2UGw0UXKdO7qjQHCRccHXSgETDI6_Om4QwEKmXGIFTHApSGZyYEZcgWfEXScIFJnarq3U0Ih8sSCs9SEEnohRppOH0uuIZ6TZlM6GZ5ZaCMWmCsSDhG3TWrEkXSwmHbk_rD1S7yPgprvzVFtooEXj62ZHO3osukBqRpEJivYOzFJzV8-X4m6lxZO_AdBGwRWTNeC964xFQs6zUM56GOKcI6UAijsvdtaExTW4hDmGcjQBT-jxREWQuYN1coAxtYK5XC1eJX1YBikUAcp1rIR1-qbWXg2Oz6oz_tB4KNJK5864lqUxrzjxQRjxcr5FSD6exAqLzb52CN6SYQ7Q-EAV8Ad6gHr10mV2Ac-3OX2cTf6w3RDDEv4nbbUsM7f_Kyp7Dm0uOgWlXwBXbprhkRIBxOuXBBXeGiuSyWYt_96Eb86r95eTn6QYpTRsrn9I468V7qpaYg8G-6zFKSXLJ-wB0X1Lndb5wt5xLVjCANi_f8tf-Q1L11MwhVKDYg8ZE6qeQignocQ9evolGKAmQU8mFoN9RznSODf51bLyuMdQrn_lNxxiBJKl3oFwhE-szXQ4a3YKreSeuBuskiPZDNKtJdq3GOh53bAMYukPteGYRH5bskjuo5VJohhbtcsrYZzcm4jo-dZLe3MWTPxa_68KrNU8Eab-EC2hkXEg-T7RYRq4EMJlB2xT8c1yaB2OtwyeqKgzYlo41nJ_fARchCl65zbBDG_Bp-jBIEMgpJOQt3WuDsQxFPXQHawi52MNQwdwzNSqWFRGgAca_2wF7SqtLUwY5BIN56aU-utDTtaV2GvAe4hIsyduBWBm00]--></g></svg>