<?xml version="1.0" encoding="us-ascii" standalone="no"?><svg xmlns="http://www.w3.org/2000/svg" xmlns:xlink="http://www.w3.org/1999/xlink" contentStyleType="text/css" height="916px" preserveAspectRatio="none" style="width:866px;height:916px;background:#FFFFFF;" version="1.1" viewBox="0 0 866 916" width="866px" zoomAndPan="magnify"><defs/><g><text fill="#000000" font-family="sans-serif" font-size="14" font-weight="bold" lengthAdjust="spacing" textLength="280" x="286" y="24.5332">Domain 4: Core Data Assets Meta-Model</text><text fill="#000000" font-family="sans-serif" font-size="14" font-weight="bold" lengthAdjust="spacing" textLength="4" x="424" y="42.1426">&#160;</text><!--cluster PKG_CORE--><g id="cluster_PKG_CORE"><rect fill="#FFE0B2" height="847" rx="2.5" ry="2.5" style="stroke:#000000;stroke-width:1.5;" width="853" x="7" y="63.2188"/><text fill="#000000" font-family="sans-serif" font-size="11" font-style="italic" lengthAdjust="spacing" textLength="26" x="420.5" y="76.6377">&#171;D4&#187;</text><text fill="#000000" font-family="sans-serif" font-size="11" font-weight="bold" lengthAdjust="spacing" textLength="120" x="373.5" y="90.4736">&#11088; CORE DATA ASSETS</text></g><!--class DataAsset--><g id="elem_DataAsset"><rect codeLine="15" fill="#F1F1F1" height="210.0313" id="DataAsset" rx="2.5" ry="2.5" style="stroke:#181818;stroke-width:0.5;" width="153" x="211.5" y="109.2188"/><ellipse cx="258.75" cy="123.2188" fill="#A9DCDF" rx="9" ry="9" style="stroke:#181818;stroke-width:1.0;"/><path d="M259.8906,124.9531 L257.2188,124.9531 L256.9531,125.625 L257.2188,125.625 Q257.625,125.625 257.7891,125.7734 Q257.9531,125.9219 257.9531,126.1719 Q257.9531,126.4063 257.7891,126.5625 Q257.625,126.7188 257.2188,126.7188 L255.7344,126.7188 Q255.3438,126.7188 255.1719,126.5625 Q255,126.4063 255,126.1719 Q255,125.9219 255.1797,125.7656 Q255.3594,125.6094 255.7656,125.625 L257.5,121.3125 L256.7813,121.3125 Q256.375,121.3125 256.2109,121.1563 Q256.0469,121 256.0469,120.75 Q256.0469,120.5156 256.2109,120.3594 Q256.375,120.2031 256.7813,120.2031 L259.1563,120.2031 L261.3438,125.625 Q261.7344,125.625 261.8594,125.7031 Q262.1094,125.875 262.1094,126.1719 Q262.1094,126.4063 261.9375,126.5625 Q261.7656,126.7188 261.375,126.7188 L259.8906,126.7188 Q259.5,126.7188 259.3281,126.5625 Q259.1563,126.4063 259.1563,126.1719 Q259.1563,125.9219 259.3281,125.7734 Q259.5,125.625 259.8906,125.625 L260.1563,125.625 L259.8906,124.9531 Z M259.4375,123.8438 L258.5469,121.6719 L257.6563,123.8438 L259.4375,123.8438 Z " fill="#000000"/><text fill="#000000" font-family="sans-serif" font-size="11" font-style="italic" lengthAdjust="spacing" textLength="51" x="276.25" y="127.7197">DataAsset</text><line style="stroke:#181818;stroke-width:0.5;" x1="212.5" x2="363.5" y1="137.2188" y2="137.2188"/><text fill="#000000" font-family="sans-serif" font-size="11" lengthAdjust="spacing" textLength="41" x="217.5" y="152.6377">-id: UUID</text><text fill="#000000" font-family="sans-serif" font-size="11" lengthAdjust="spacing" textLength="64" x="217.5" y="166.4736">-name: String</text><text fill="#000000" font-family="sans-serif" font-size="11" lengthAdjust="spacing" textLength="105" x="217.5" y="180.3096">-qualifiedName: String</text><text fill="#000000" font-family="sans-serif" font-size="11" lengthAdjust="spacing" textLength="89" x="217.5" y="194.1455">-assetType: String</text><text fill="#000000" font-family="sans-serif" font-size="11" lengthAdjust="spacing" textLength="68" x="217.5" y="207.9814">-status: String</text><text fill="#000000" font-family="sans-serif" font-size="11" lengthAdjust="spacing" textLength="79" x="217.5" y="221.8174">-version: Integer</text><text fill="#000000" font-family="sans-serif" font-size="11" lengthAdjust="spacing" textLength="97" x="217.5" y="235.6533">-isCertified: Boolean</text><text fill="#000000" font-family="sans-serif" font-size="11" lengthAdjust="spacing" textLength="102" x="217.5" y="249.4893">-createdAt: DateTime</text><line style="stroke:#181818;stroke-width:0.5;" x1="212.5" x2="363.5" y1="255.9063" y2="255.9063"/><text fill="#000000" font-family="sans-serif" font-size="11" font-style="italic" lengthAdjust="spacing" textLength="98" x="217.5" y="271.3252">+validate(): Boolean</text><text fill="#000000" font-family="sans-serif" font-size="11" lengthAdjust="spacing" textLength="129" x="217.5" y="285.1611">+getMetadata(): Metadata[]</text><text fill="#000000" font-family="sans-serif" font-size="11" lengthAdjust="spacing" textLength="136" x="217.5" y="298.9971">+getQuality(): QualityMetrics</text><text fill="#000000" font-family="sans-serif" font-size="11" lengthAdjust="spacing" textLength="141" x="217.5" y="312.833">+getLineage(): LineageGraph</text></g><!--class TableAsset--><g id="elem_TableAsset"><rect codeLine="31" fill="#F1F1F1" height="140.8516" id="TableAsset" rx="2.5" ry="2.5" style="stroke:#181818;stroke-width:0.5;" width="158" x="60" y="552.2188"/><ellipse cx="107.75" cy="566.2188" fill="#ADD1B2" rx="9" ry="9" style="stroke:#181818;stroke-width:1.0;"/><path d="M109.2813,563.4844 Q109.375,563.3438 109.5,563.2734 Q109.625,563.2031 109.7656,563.2031 Q110,563.2031 110.1563,563.375 Q110.3125,563.5469 110.3125,563.9375 L110.3125,564.875 Q110.3125,565.2656 110.1563,565.4375 Q110,565.6094 109.7656,565.6094 Q109.5469,565.6094 109.4063,565.4844 Q109.2656,565.3594 109.2031,565.0313 Q109.1719,564.7969 109.0625,564.6719 Q108.8438,564.4375 108.4453,564.2891 Q108.0469,564.1406 107.6563,564.1406 Q107.1563,564.1406 106.7422,564.3594 Q106.3281,564.5781 106.0078,565.0625 Q105.6875,565.5469 105.6875,566.2031 L105.6875,566.9219 Q105.6875,567.7188 106.2656,568.25 Q106.8438,568.7813 107.875,568.7813 Q108.4844,568.7813 108.9063,568.6094 Q109.1563,568.5156 109.4375,568.2344 Q109.6094,568.0625 109.7031,568.0078 Q109.7969,567.9531 109.9219,567.9531 Q110.1406,567.9531 110.3125,568.125 Q110.4844,568.2969 110.4844,568.5156 Q110.4844,568.7344 110.25,569 Q109.9219,569.375 109.4063,569.5938 Q108.7188,569.875 107.875,569.875 Q106.9063,569.875 106.125,569.4844 Q105.4844,569.1563 105.0391,568.4609 Q104.5938,567.7656 104.5938,566.9375 L104.5938,566.1875 Q104.5938,565.3281 104.9922,564.5859 Q105.3906,563.8438 106.1016,563.4453 Q106.8125,563.0469 107.6094,563.0469 Q108.0781,563.0469 108.5,563.1563 Q108.9219,563.2656 109.2813,563.4844 Z " fill="#000000"/><text fill="#000000" font-family="sans-serif" font-size="11" lengthAdjust="spacing" textLength="55" x="125.25" y="570.7197">TableAsset</text><line style="stroke:#181818;stroke-width:0.5;" x1="61" x2="217" y1="580.2188" y2="580.2188"/><text fill="#000000" font-family="sans-serif" font-size="11" lengthAdjust="spacing" textLength="103" x="66" y="595.6377">-schemaName: String</text><text fill="#000000" font-family="sans-serif" font-size="11" lengthAdjust="spacing" textLength="88" x="66" y="609.4736">-tableName: String</text><text fill="#000000" font-family="sans-serif" font-size="11" lengthAdjust="spacing" textLength="82" x="66" y="623.3096">-rowCount: Long</text><text fill="#000000" font-family="sans-serif" font-size="11" lengthAdjust="spacing" textLength="107" x="66" y="637.1455">-isPartitioned: Boolean</text><line style="stroke:#181818;stroke-width:0.5;" x1="61" x2="217" y1="643.5625" y2="643.5625"/><text fill="#000000" font-family="sans-serif" font-size="11" lengthAdjust="spacing" textLength="96" x="66" y="658.9814">+validate(): Boolean</text><text fill="#000000" font-family="sans-serif" font-size="11" lengthAdjust="spacing" textLength="146" x="66" y="672.8174">+getColumns(): ColumnAsset[]</text><text fill="#000000" font-family="sans-serif" font-size="11" lengthAdjust="spacing" textLength="128" x="66" y="686.6533">+analyze(): TableStatistics</text></g><!--class ColumnAsset--><g id="elem_ColumnAsset"><rect codeLine="42" fill="#F1F1F1" height="140.8516" id="ColumnAsset" rx="2.5" ry="2.5" style="stroke:#181818;stroke-width:0.5;" width="142" x="45" y="753.2188"/><ellipse cx="80.5" cy="767.2188" fill="#ADD1B2" rx="9" ry="9" style="stroke:#181818;stroke-width:1.0;"/><path d="M82.0313,764.4844 Q82.125,764.3438 82.25,764.2734 Q82.375,764.2031 82.5156,764.2031 Q82.75,764.2031 82.9063,764.375 Q83.0625,764.5469 83.0625,764.9375 L83.0625,765.875 Q83.0625,766.2656 82.9063,766.4375 Q82.75,766.6094 82.5156,766.6094 Q82.2969,766.6094 82.1563,766.4844 Q82.0156,766.3594 81.9531,766.0313 Q81.9219,765.7969 81.8125,765.6719 Q81.5938,765.4375 81.1953,765.2891 Q80.7969,765.1406 80.4063,765.1406 Q79.9063,765.1406 79.4922,765.3594 Q79.0781,765.5781 78.7578,766.0625 Q78.4375,766.5469 78.4375,767.2031 L78.4375,767.9219 Q78.4375,768.7188 79.0156,769.25 Q79.5938,769.7813 80.625,769.7813 Q81.2344,769.7813 81.6563,769.6094 Q81.9063,769.5156 82.1875,769.2344 Q82.3594,769.0625 82.4531,769.0078 Q82.5469,768.9531 82.6719,768.9531 Q82.8906,768.9531 83.0625,769.125 Q83.2344,769.2969 83.2344,769.5156 Q83.2344,769.7344 83,770 Q82.6719,770.375 82.1563,770.5938 Q81.4688,770.875 80.625,770.875 Q79.6563,770.875 78.875,770.4844 Q78.2344,770.1563 77.7891,769.4609 Q77.3438,768.7656 77.3438,767.9375 L77.3438,767.1875 Q77.3438,766.3281 77.7422,765.5859 Q78.1406,764.8438 78.8516,764.4453 Q79.5625,764.0469 80.3594,764.0469 Q80.8281,764.0469 81.25,764.1563 Q81.6719,764.2656 82.0313,764.4844 Z " fill="#000000"/><text fill="#000000" font-family="sans-serif" font-size="11" lengthAdjust="spacing" textLength="64" x="97.5" y="771.7197">ColumnAsset</text><line style="stroke:#181818;stroke-width:0.5;" x1="46" x2="186" y1="781.2188" y2="781.2188"/><text fill="#000000" font-family="sans-serif" font-size="11" lengthAdjust="spacing" textLength="99" x="51" y="796.6377">-columnName: String</text><text fill="#000000" font-family="sans-serif" font-size="11" lengthAdjust="spacing" textLength="83" x="51" y="810.4736">-dataType: String</text><text fill="#000000" font-family="sans-serif" font-size="11" lengthAdjust="spacing" textLength="94" x="51" y="824.3096">-isNullable: Boolean</text><text fill="#000000" font-family="sans-serif" font-size="11" lengthAdjust="spacing" textLength="112" x="51" y="838.1455">-isPrimaryKey: Boolean</text><line style="stroke:#181818;stroke-width:0.5;" x1="46" x2="186" y1="844.5625" y2="844.5625"/><text fill="#000000" font-family="sans-serif" font-size="11" lengthAdjust="spacing" textLength="96" x="51" y="859.9814">+validate(): Boolean</text><text fill="#000000" font-family="sans-serif" font-size="11" lengthAdjust="spacing" textLength="116" x="51" y="873.8174">+getTable(): TableAsset</text><text fill="#000000" font-family="sans-serif" font-size="11" lengthAdjust="spacing" textLength="130" x="51" y="887.6533">+getProfile(): ColumnProfile</text></g><!--class ViewAsset--><g id="elem_ViewAsset"><rect codeLine="53" fill="#F1F1F1" height="113.1797" id="ViewAsset" rx="2.5" ry="2.5" style="stroke:#181818;stroke-width:0.5;" width="173" x="97.5" y="379.2188"/><ellipse cx="152.75" cy="393.2188" fill="#ADD1B2" rx="9" ry="9" style="stroke:#181818;stroke-width:1.0;"/><path d="M154.2813,390.4844 Q154.375,390.3438 154.5,390.2734 Q154.625,390.2031 154.7656,390.2031 Q155,390.2031 155.1563,390.375 Q155.3125,390.5469 155.3125,390.9375 L155.3125,391.875 Q155.3125,392.2656 155.1563,392.4375 Q155,392.6094 154.7656,392.6094 Q154.5469,392.6094 154.4063,392.4844 Q154.2656,392.3594 154.2031,392.0313 Q154.1719,391.7969 154.0625,391.6719 Q153.8438,391.4375 153.4453,391.2891 Q153.0469,391.1406 152.6563,391.1406 Q152.1563,391.1406 151.7422,391.3594 Q151.3281,391.5781 151.0078,392.0625 Q150.6875,392.5469 150.6875,393.2031 L150.6875,393.9219 Q150.6875,394.7188 151.2656,395.25 Q151.8438,395.7813 152.875,395.7813 Q153.4844,395.7813 153.9063,395.6094 Q154.1563,395.5156 154.4375,395.2344 Q154.6094,395.0625 154.7031,395.0078 Q154.7969,394.9531 154.9219,394.9531 Q155.1406,394.9531 155.3125,395.125 Q155.4844,395.2969 155.4844,395.5156 Q155.4844,395.7344 155.25,396 Q154.9219,396.375 154.4063,396.5938 Q153.7188,396.875 152.875,396.875 Q151.9063,396.875 151.125,396.4844 Q150.4844,396.1563 150.0391,395.4609 Q149.5938,394.7656 149.5938,393.9375 L149.5938,393.1875 Q149.5938,392.3281 149.9922,391.5859 Q150.3906,390.8438 151.1016,390.4453 Q151.8125,390.0469 152.6094,390.0469 Q153.0781,390.0469 153.5,390.1563 Q153.9219,390.2656 154.2813,390.4844 Z " fill="#000000"/><text fill="#000000" font-family="sans-serif" font-size="11" lengthAdjust="spacing" textLength="55" x="170.25" y="397.7197">ViewAsset</text><line style="stroke:#181818;stroke-width:0.5;" x1="98.5" x2="269.5" y1="407.2188" y2="407.2188"/><text fill="#000000" font-family="sans-serif" font-size="11" lengthAdjust="spacing" textLength="106" x="103.5" y="422.6377">-viewDefinition: String</text><text fill="#000000" font-family="sans-serif" font-size="11" lengthAdjust="spacing" textLength="114" x="103.5" y="436.4736">-isMaterialized: Boolean</text><line style="stroke:#181818;stroke-width:0.5;" x1="98.5" x2="269.5" y1="442.8906" y2="442.8906"/><text fill="#000000" font-family="sans-serif" font-size="11" lengthAdjust="spacing" textLength="96" x="103.5" y="458.3096">+validate(): Boolean</text><text fill="#000000" font-family="sans-serif" font-size="11" lengthAdjust="spacing" textLength="161" x="103.5" y="472.1455">+getDependencies(): DataAsset[]</text><text fill="#000000" font-family="sans-serif" font-size="11" lengthAdjust="spacing" textLength="76" x="103.5" y="485.9814">+refresh(): void</text></g><!--class FileAsset--><g id="elem_FileAsset"><rect codeLine="62" fill="#F1F1F1" height="113.1797" id="FileAsset" rx="2.5" ry="2.5" style="stroke:#181818;stroke-width:0.5;" width="175" x="305.5" y="379.2188"/><ellipse cx="366.75" cy="393.2188" fill="#ADD1B2" rx="9" ry="9" style="stroke:#181818;stroke-width:1.0;"/><path d="M368.2813,390.4844 Q368.375,390.3438 368.5,390.2734 Q368.625,390.2031 368.7656,390.2031 Q369,390.2031 369.1563,390.375 Q369.3125,390.5469 369.3125,390.9375 L369.3125,391.875 Q369.3125,392.2656 369.1563,392.4375 Q369,392.6094 368.7656,392.6094 Q368.5469,392.6094 368.4063,392.4844 Q368.2656,392.3594 368.2031,392.0313 Q368.1719,391.7969 368.0625,391.6719 Q367.8438,391.4375 367.4453,391.2891 Q367.0469,391.1406 366.6563,391.1406 Q366.1563,391.1406 365.7422,391.3594 Q365.3281,391.5781 365.0078,392.0625 Q364.6875,392.5469 364.6875,393.2031 L364.6875,393.9219 Q364.6875,394.7188 365.2656,395.25 Q365.8438,395.7813 366.875,395.7813 Q367.4844,395.7813 367.9063,395.6094 Q368.1563,395.5156 368.4375,395.2344 Q368.6094,395.0625 368.7031,395.0078 Q368.7969,394.9531 368.9219,394.9531 Q369.1406,394.9531 369.3125,395.125 Q369.4844,395.2969 369.4844,395.5156 Q369.4844,395.7344 369.25,396 Q368.9219,396.375 368.4063,396.5938 Q367.7188,396.875 366.875,396.875 Q365.9063,396.875 365.125,396.4844 Q364.4844,396.1563 364.0391,395.4609 Q363.5938,394.7656 363.5938,393.9375 L363.5938,393.1875 Q363.5938,392.3281 363.9922,391.5859 Q364.3906,390.8438 365.1016,390.4453 Q365.8125,390.0469 366.6094,390.0469 Q367.0781,390.0469 367.5,390.1563 Q367.9219,390.2656 368.2813,390.4844 Z " fill="#000000"/><text fill="#000000" font-family="sans-serif" font-size="11" lengthAdjust="spacing" textLength="45" x="384.25" y="397.7197">FileAsset</text><line style="stroke:#181818;stroke-width:0.5;" x1="306.5" x2="479.5" y1="407.2188" y2="407.2188"/><text fill="#000000" font-family="sans-serif" font-size="11" lengthAdjust="spacing" textLength="73" x="311.5" y="422.6377">-filePath: String</text><text fill="#000000" font-family="sans-serif" font-size="11" lengthAdjust="spacing" textLength="85" x="311.5" y="436.4736">-fileFormat: String</text><text fill="#000000" font-family="sans-serif" font-size="11" lengthAdjust="spacing" textLength="69" x="311.5" y="450.3096">-fileSize: Long</text><line style="stroke:#181818;stroke-width:0.5;" x1="306.5" x2="479.5" y1="456.7266" y2="456.7266"/><text fill="#000000" font-family="sans-serif" font-size="11" lengthAdjust="spacing" textLength="96" x="311.5" y="472.1455">+validate(): Boolean</text><text fill="#000000" font-family="sans-serif" font-size="11" lengthAdjust="spacing" textLength="163" x="311.5" y="485.9814">+readSample(n: Integer): Record[]</text></g><!--class DatasetAsset--><g id="elem_DatasetAsset"><rect codeLine="71" fill="#F1F1F1" height="113.1797" id="DatasetAsset" rx="2.5" ry="2.5" style="stroke:#181818;stroke-width:0.5;" width="153" x="515.5" y="379.2188"/><ellipse cx="555.25" cy="393.2188" fill="#ADD1B2" rx="9" ry="9" style="stroke:#181818;stroke-width:1.0;"/><path d="M556.7813,390.4844 Q556.875,390.3438 557,390.2734 Q557.125,390.2031 557.2656,390.2031 Q557.5,390.2031 557.6563,390.375 Q557.8125,390.5469 557.8125,390.9375 L557.8125,391.875 Q557.8125,392.2656 557.6563,392.4375 Q557.5,392.6094 557.2656,392.6094 Q557.0469,392.6094 556.9063,392.4844 Q556.7656,392.3594 556.7031,392.0313 Q556.6719,391.7969 556.5625,391.6719 Q556.3438,391.4375 555.9453,391.2891 Q555.5469,391.1406 555.1563,391.1406 Q554.6563,391.1406 554.2422,391.3594 Q553.8281,391.5781 553.5078,392.0625 Q553.1875,392.5469 553.1875,393.2031 L553.1875,393.9219 Q553.1875,394.7188 553.7656,395.25 Q554.3438,395.7813 555.375,395.7813 Q555.9844,395.7813 556.4063,395.6094 Q556.6563,395.5156 556.9375,395.2344 Q557.1094,395.0625 557.2031,395.0078 Q557.2969,394.9531 557.4219,394.9531 Q557.6406,394.9531 557.8125,395.125 Q557.9844,395.2969 557.9844,395.5156 Q557.9844,395.7344 557.75,396 Q557.4219,396.375 556.9063,396.5938 Q556.2188,396.875 555.375,396.875 Q554.4063,396.875 553.625,396.4844 Q552.9844,396.1563 552.5391,395.4609 Q552.0938,394.7656 552.0938,393.9375 L552.0938,393.1875 Q552.0938,392.3281 552.4922,391.5859 Q552.8906,390.8438 553.6016,390.4453 Q554.3125,390.0469 555.1094,390.0469 Q555.5781,390.0469 556,390.1563 Q556.4219,390.2656 556.7813,390.4844 Z " fill="#000000"/><text fill="#000000" font-family="sans-serif" font-size="11" lengthAdjust="spacing" textLength="66" x="572.75" y="397.7197">DatasetAsset</text><line style="stroke:#181818;stroke-width:0.5;" x1="516.5" x2="667.5" y1="407.2188" y2="407.2188"/><text fill="#000000" font-family="sans-serif" font-size="11" lengthAdjust="spacing" textLength="94" x="521.5" y="422.6377">-recordCount: Long</text><text fill="#000000" font-family="sans-serif" font-size="11" lengthAdjust="spacing" textLength="106" x="521.5" y="436.4736">-featureCount: Integer</text><text fill="#000000" font-family="sans-serif" font-size="11" lengthAdjust="spacing" textLength="98" x="521.5" y="450.3096">-datasetType: String</text><line style="stroke:#181818;stroke-width:0.5;" x1="516.5" x2="667.5" y1="456.7266" y2="456.7266"/><text fill="#000000" font-family="sans-serif" font-size="11" lengthAdjust="spacing" textLength="96" x="521.5" y="472.1455">+validate(): Boolean</text><text fill="#000000" font-family="sans-serif" font-size="11" lengthAdjust="spacing" textLength="141" x="521.5" y="485.9814">+getStatistics(): DatasetStats</text></g><!--class SchemaAsset--><g id="elem_SchemaAsset"><rect codeLine="80" fill="#F1F1F1" height="99.3438" id="SchemaAsset" rx="2.5" ry="2.5" style="stroke:#181818;stroke-width:0.5;" width="140" x="704" y="386.2188"/><ellipse cx="736.8" cy="400.2188" fill="#ADD1B2" rx="9" ry="9" style="stroke:#181818;stroke-width:1.0;"/><path d="M738.3313,397.4844 Q738.425,397.3438 738.55,397.2734 Q738.675,397.2031 738.8156,397.2031 Q739.05,397.2031 739.2063,397.375 Q739.3625,397.5469 739.3625,397.9375 L739.3625,398.875 Q739.3625,399.2656 739.2063,399.4375 Q739.05,399.6094 738.8156,399.6094 Q738.5969,399.6094 738.4563,399.4844 Q738.3156,399.3594 738.2531,399.0313 Q738.2219,398.7969 738.1125,398.6719 Q737.8938,398.4375 737.4953,398.2891 Q737.0969,398.1406 736.7063,398.1406 Q736.2063,398.1406 735.7922,398.3594 Q735.3781,398.5781 735.0578,399.0625 Q734.7375,399.5469 734.7375,400.2031 L734.7375,400.9219 Q734.7375,401.7188 735.3156,402.25 Q735.8938,402.7813 736.925,402.7813 Q737.5344,402.7813 737.9563,402.6094 Q738.2063,402.5156 738.4875,402.2344 Q738.6594,402.0625 738.7531,402.0078 Q738.8469,401.9531 738.9719,401.9531 Q739.1906,401.9531 739.3625,402.125 Q739.5344,402.2969 739.5344,402.5156 Q739.5344,402.7344 739.3,403 Q738.9719,403.375 738.4563,403.5938 Q737.7688,403.875 736.925,403.875 Q735.9563,403.875 735.175,403.4844 Q734.5344,403.1563 734.0891,402.4609 Q733.6438,401.7656 733.6438,400.9375 L733.6438,400.1875 Q733.6438,399.3281 734.0422,398.5859 Q734.4406,397.8438 735.1516,397.4453 Q735.8625,397.0469 736.6594,397.0469 Q737.1281,397.0469 737.55,397.1563 Q737.9719,397.2656 738.3313,397.4844 Z " fill="#000000"/><text fill="#000000" font-family="sans-serif" font-size="11" lengthAdjust="spacing" textLength="68" x="753.2" y="404.7197">SchemaAsset</text><line style="stroke:#181818;stroke-width:0.5;" x1="705" x2="843" y1="414.2188" y2="414.2188"/><text fill="#000000" font-family="sans-serif" font-size="11" lengthAdjust="spacing" textLength="103" x="710" y="429.6377">-schemaName: String</text><text fill="#000000" font-family="sans-serif" font-size="11" lengthAdjust="spacing" textLength="110" x="710" y="443.4736">-databaseName: String</text><line style="stroke:#181818;stroke-width:0.5;" x1="705" x2="843" y1="449.8906" y2="449.8906"/><text fill="#000000" font-family="sans-serif" font-size="11" lengthAdjust="spacing" textLength="96" x="710" y="465.3096">+validate(): Boolean</text><text fill="#000000" font-family="sans-serif" font-size="11" lengthAdjust="spacing" textLength="128" x="710" y="479.1455">+getTables(): TableAsset[]</text></g><!--reverse link DataAsset to TableAsset--><g id="link_DataAsset_TableAsset"><path codeLine="89" d="M282.17,337.4188 C282.17,451.4088 282.17,599.2188 282.17,599.2188 C282.17,599.2188 251.23,599.2188 218.12,599.2188 " fill="none" id="DataAsset-backto-TableAsset" style="stroke:#181818;stroke-width:1.0;"/><polygon fill="none" points="282.17,319.4188,276.17,337.4188,288.17,337.4188,282.17,319.4188" style="stroke:#181818;stroke-width:1.0;"/></g><!--reverse link DataAsset to ColumnAsset--><g id="link_DataAsset_ColumnAsset"><path codeLine="90" d="M293.83,337.4288 C293.83,511.9288 293.83,824.2188 293.83,824.2188 C293.83,824.2188 236.58,824.2188 187.05,824.2188 " fill="none" id="DataAsset-backto-ColumnAsset" style="stroke:#181818;stroke-width:1.0;"/><polygon fill="none" points="293.83,319.4288,287.83,337.4288,299.83,337.4288,293.83,319.4288" style="stroke:#181818;stroke-width:1.0;"/></g><!--reverse link DataAsset to ViewAsset--><g id="link_DataAsset_ViewAsset"><path codeLine="91" d="M241,337.4588 C241,357.9888 241,360.7888 241,378.9988 " fill="none" id="DataAsset-backto-ViewAsset" style="stroke:#181818;stroke-width:1.0;"/><polygon fill="none" points="241,319.4588,235,337.4588,247,337.4588,241,319.4588" style="stroke:#181818;stroke-width:1.0;"/></g><!--reverse link DataAsset to FileAsset--><g id="link_DataAsset_FileAsset"><path codeLine="92" d="M335,337.4588 C335,357.9888 335,360.7888 335,378.9988 " fill="none" id="DataAsset-backto-FileAsset" style="stroke:#181818;stroke-width:1.0;"/><polygon fill="none" points="335,319.4588,329,337.4588,341,337.4588,335,319.4588" style="stroke:#181818;stroke-width:1.0;"/></g><!--reverse link DataAsset to DatasetAsset--><g id="link_DataAsset_DatasetAsset"><path codeLine="93" d="M382.71,249.2188 C472.77,249.2188 592,249.2188 592,249.2188 C592,249.2188 592,324.1287 592,378.9988 " fill="none" id="DataAsset-backto-DatasetAsset" style="stroke:#181818;stroke-width:1.0;"/><polygon fill="none" points="364.71,249.2188,382.71,255.2188,382.71,243.2188,364.71,249.2188" style="stroke:#181818;stroke-width:1.0;"/></g><!--reverse link DataAsset to SchemaAsset--><g id="link_DataAsset_SchemaAsset"><path codeLine="94" d="M382.74,179.2188 C519.69,179.2188 774,179.2188 774,179.2188 C774,179.2188 774,311.3688 774,385.9588 " fill="none" id="DataAsset-backto-SchemaAsset" style="stroke:#181818;stroke-width:1.0;"/><polygon fill="none" points="364.74,179.2188,382.74,185.2188,382.74,173.2188,364.74,179.2188" style="stroke:#181818;stroke-width:1.0;"/></g><!--reverse link TableAsset to ColumnAsset--><g id="link_TableAsset_ColumnAsset"><path codeLine="96" d="M123.5,705.2988 C123.5,724.6488 123.5,733.6188 123.5,752.9688 " fill="none" id="TableAsset-backto-ColumnAsset" style="stroke:#181818;stroke-width:1.0;"/><polygon fill="#181818" points="123.5,693.2988,119.5,699.2988,123.5,705.2988,127.5,699.2988,123.5,693.2988" style="stroke:#181818;stroke-width:1.0;"/><polygon fill="#000000" points="73.5,720.0567,75.8511,712.8207,71.1489,712.8207,73.5,720.0567" style="stroke:#000000;stroke-width:1.0;"/><text fill="#000000" font-family="sans-serif" font-size="11" lengthAdjust="spacing" textLength="41" x="81.5" y="720.5577">contains</text><text fill="#000000" font-family="sans-serif" font-size="11" lengthAdjust="spacing" textLength="6" x="115.5922" y="712.7173">1</text><text fill="#000000" font-family="sans-serif" font-size="11" lengthAdjust="spacing" textLength="16" x="107.4453" y="742.9923">1..*</text></g><!--reverse link SchemaAsset to TableAsset--><g id="link_SchemaAsset_TableAsset"><path codeLine="97" d="M774,497.3388 C774,559.5688 774,646.2188 774,646.2188 C774,646.2188 388.36,646.2188 218.14,646.2188 " fill="none" id="SchemaAsset-backto-TableAsset" style="stroke:#181818;stroke-width:1.0;"/><polygon fill="#181818" points="774,485.3388,770,491.3388,774,497.3388,778,491.3388,774,485.3388" style="stroke:#181818;stroke-width:1.0;"/><polygon fill="#000000" points="522.6462,640.1716,530.2442,640.5706,529.0276,636.0284,522.6462,640.1716" style="stroke:#000000;stroke-width:1.0;"/><text fill="#000000" font-family="sans-serif" font-size="11" lengthAdjust="spacing" textLength="41" x="534.51" y="643.6377">contains</text><text fill="#000000" font-family="sans-serif" font-size="11" lengthAdjust="spacing" textLength="6" x="767.5594" y="505.0365">1</text><text fill="#000000" font-family="sans-serif" font-size="11" lengthAdjust="spacing" textLength="16" x="225.9009" y="646.1956">0..*</text></g><!--SRC=[fLRBRXen5DtFLxXqqPQ8AAcoGb4a0Y6AaZGqGxffAtIPkO2L6PlQ1aJI_4D_f3_LB-crXuSdOrIbOO4idtDjdtCVy2R54HV8sZUtPuFspTNDBNlRxPuTd7wC8dtFnHGKv6mAoJsCCJRB39d2n80OP-WHz0HIkU1Yp4QGQHyPKkXOoPb8spAJYYqctFWutG-pp7IbC35_G7Puw84PFSqifyYaCXFf0Ka6MhUCKNmuCtYHIE623wB8S4DlhDSxCWSks56JjQL2rW43hAKr6iskqK3ZMgQOrUlVH1IjrB7Qdz-_d16iq-gtM2kEp_fnZO5clSlpWGEEZpj79oU-MuyHeu_xWg4s2X9JlCvTwMvSSUodmNZQP7Tt5nrlIq2EJHQJ637sjd_C8ECZZkcdC0xsx3wv4y2q0JFJ0M2EIdCfckn261oZyb-cswYCkx79JgNC48G79mh1ODeoJQiC-pp73JeOR9Pxx77jmnERauAKoEy_L4_SOsCqDXL404jOhxz-BtC-Mn_Cqb9MIs8gdkWoxOfgXR9eQQlbkOBfn96UjaagSjE7OORLvEXaWZdiyDlOc1sOaeisrJXvSoLB0DSz85CDUHwojMJSFzsY3fhbGbkyM3e59Rz0GBPyS4SuZJ4L0jTcxLR52E-SaXE9sz-XrcPfH-5n_McMPVRcK0sH6uhde9QNk7oj6KxUHgTJK2Rqb1pnWbAeN6s4ZVZ2SL6rOKwx7JiXNGQ3Ug_faOhJQnzUd-0EJb6aA1AEBikR4LBAiSAHGZsnXBdaQLXFbuSAtEhlWPa4b5YeArKEPWTe9-op-dw1EfeUQGpvb1AodJx4lCL4gdIbhwB26a0QgaAK2mltt8W6rKpX2gmEkhGuD5Z1BylNjhlMsTB5vevkYzryUU7SiSyTqi51-3zwHfURfchzEqfA1hRW2ndR7xBZdut6ytvxXde39GHlsYm4Rces1Fgb4C8zRxTIl3bVEwonEl5gX_lxzLffy3Lft0b3VnSqEt5XVfusSGSkpZkn5FOKHNy1]--></g></svg>