<?xml version="1.0" encoding="us-ascii" standalone="no"?><svg xmlns="http://www.w3.org/2000/svg" xmlns:xlink="http://www.w3.org/1999/xlink" contentStyleType="text/css" height="501px" preserveAspectRatio="none" style="width:981px;height:501px;background:#FFFFFF;" version="1.1" viewBox="0 0 981 501" width="981px" zoomAndPan="magnify"><defs/><g><text fill="#000000" font-family="sans-serif" font-size="14" font-weight="bold" lengthAdjust="spacing" textLength="225" x="371" y="24.5332">Domain 5: Metadata Meta-Model</text><text fill="#000000" font-family="sans-serif" font-size="14" font-weight="bold" lengthAdjust="spacing" textLength="4" x="481.5" y="42.1426">&#160;</text><!--cluster PKG_METADATA--><g id="cluster_PKG_METADATA"><rect fill="#FFF9C4" height="432" rx="2.5" ry="2.5" style="stroke:#000000;stroke-width:1.5;" width="968" x="7" y="63.2188"/><text fill="#000000" font-family="sans-serif" font-size="11" font-style="italic" lengthAdjust="spacing" textLength="26" x="478" y="76.6377">&#171;D5&#187;</text><text fill="#000000" font-family="sans-serif" font-size="11" font-weight="bold" lengthAdjust="spacing" textLength="76" x="453" y="90.4736">&#128221; METADATA</text></g><!--class Metadata--><g id="elem_Metadata"><rect codeLine="15" fill="#F1F1F1" height="168.5234" id="Metadata" rx="2.5" ry="2.5" style="stroke:#181818;stroke-width:0.5;" width="167" x="432.5" y="109.2188"/><ellipse cx="489.75" cy="123.2188" fill="#A9DCDF" rx="9" ry="9" style="stroke:#181818;stroke-width:1.0;"/><path d="M490.8906,124.9531 L488.2188,124.9531 L487.9531,125.625 L488.2188,125.625 Q488.625,125.625 488.7891,125.7734 Q488.9531,125.9219 488.9531,126.1719 Q488.9531,126.4063 488.7891,126.5625 Q488.625,126.7188 488.2188,126.7188 L486.7344,126.7188 Q486.3438,126.7188 486.1719,126.5625 Q486,126.4063 486,126.1719 Q486,125.9219 486.1797,125.7656 Q486.3594,125.6094 486.7656,125.625 L488.5,121.3125 L487.7813,121.3125 Q487.375,121.3125 487.2109,121.1563 Q487.0469,121 487.0469,120.75 Q487.0469,120.5156 487.2109,120.3594 Q487.375,120.2031 487.7813,120.2031 L490.1563,120.2031 L492.3438,125.625 Q492.7344,125.625 492.8594,125.7031 Q493.1094,125.875 493.1094,126.1719 Q493.1094,126.4063 492.9375,126.5625 Q492.7656,126.7188 492.375,126.7188 L490.8906,126.7188 Q490.5,126.7188 490.3281,126.5625 Q490.1563,126.4063 490.1563,126.1719 Q490.1563,125.9219 490.3281,125.7734 Q490.5,125.625 490.8906,125.625 L491.1563,125.625 L490.8906,124.9531 Z M490.4375,123.8438 L489.5469,121.6719 L488.6563,123.8438 L490.4375,123.8438 Z " fill="#000000"/><text fill="#000000" font-family="sans-serif" font-size="11" font-style="italic" lengthAdjust="spacing" textLength="45" x="507.25" y="127.7197">Metadata</text><line style="stroke:#181818;stroke-width:0.5;" x1="433.5" x2="598.5" y1="137.2188" y2="137.2188"/><text fill="#000000" font-family="sans-serif" font-size="11" lengthAdjust="spacing" textLength="41" x="438.5" y="152.6377">-id: UUID</text><text fill="#000000" font-family="sans-serif" font-size="11" lengthAdjust="spacing" textLength="68" x="438.5" y="166.4736">-assetId: UUID</text><text fill="#000000" font-family="sans-serif" font-size="11" lengthAdjust="spacing" textLength="55" x="438.5" y="180.3096">-key: String</text><text fill="#000000" font-family="sans-serif" font-size="11" lengthAdjust="spacing" textLength="64" x="438.5" y="194.1455">-value: String</text><text fill="#000000" font-family="sans-serif" font-size="11" lengthAdjust="spacing" textLength="106" x="438.5" y="207.9814">-metadataType: String</text><text fill="#000000" font-family="sans-serif" font-size="11" lengthAdjust="spacing" textLength="102" x="438.5" y="221.8174">-createdAt: DateTime</text><line style="stroke:#181818;stroke-width:0.5;" x1="433.5" x2="598.5" y1="228.2344" y2="228.2344"/><text fill="#000000" font-family="sans-serif" font-size="11" font-style="italic" lengthAdjust="spacing" textLength="155" x="438.5" y="243.6533">+update(newValue: String): void</text><text fill="#000000" font-family="sans-serif" font-size="11" font-style="italic" lengthAdjust="spacing" textLength="98" x="438.5" y="257.4893">+validate(): Boolean</text><text fill="#000000" font-family="sans-serif" font-size="11" lengthAdjust="spacing" textLength="115" x="438.5" y="271.3252">+getAsset(): DataAsset</text></g><!--class TechnicalMetadata--><g id="elem_TechnicalMetadata"><rect codeLine="28" fill="#F1F1F1" height="127.0156" id="TechnicalMetadata" rx="2.5" ry="2.5" style="stroke:#181818;stroke-width:0.5;" width="169" x="23.5" y="345.2188"/><ellipse cx="59.45" cy="359.2188" fill="#ADD1B2" rx="9" ry="9" style="stroke:#181818;stroke-width:1.0;"/><path d="M60.9813,356.4844 Q61.075,356.3438 61.2,356.2734 Q61.325,356.2031 61.4656,356.2031 Q61.7,356.2031 61.8563,356.375 Q62.0125,356.5469 62.0125,356.9375 L62.0125,357.875 Q62.0125,358.2656 61.8563,358.4375 Q61.7,358.6094 61.4656,358.6094 Q61.2469,358.6094 61.1063,358.4844 Q60.9656,358.3594 60.9031,358.0313 Q60.8719,357.7969 60.7625,357.6719 Q60.5438,357.4375 60.1453,357.2891 Q59.7469,357.1406 59.3563,357.1406 Q58.8563,357.1406 58.4422,357.3594 Q58.0281,357.5781 57.7078,358.0625 Q57.3875,358.5469 57.3875,359.2031 L57.3875,359.9219 Q57.3875,360.7188 57.9656,361.25 Q58.5438,361.7813 59.575,361.7813 Q60.1844,361.7813 60.6063,361.6094 Q60.8563,361.5156 61.1375,361.2344 Q61.3094,361.0625 61.4031,361.0078 Q61.4969,360.9531 61.6219,360.9531 Q61.8406,360.9531 62.0125,361.125 Q62.1844,361.2969 62.1844,361.5156 Q62.1844,361.7344 61.95,362 Q61.6219,362.375 61.1063,362.5938 Q60.4188,362.875 59.575,362.875 Q58.6063,362.875 57.825,362.4844 Q57.1844,362.1563 56.7391,361.4609 Q56.2938,360.7656 56.2938,359.9375 L56.2938,359.1875 Q56.2938,358.3281 56.6922,357.5859 Q57.0906,356.8438 57.8016,356.4453 Q58.5125,356.0469 59.3094,356.0469 Q59.7781,356.0469 60.2,356.1563 Q60.6219,356.2656 60.9813,356.4844 Z " fill="#000000"/><text fill="#000000" font-family="sans-serif" font-size="11" lengthAdjust="spacing" textLength="90" x="76.55" y="363.7197">TechnicalMetadata</text><line style="stroke:#181818;stroke-width:0.5;" x1="24.5" x2="191.5" y1="373.2188" y2="373.2188"/><text fill="#000000" font-family="sans-serif" font-size="11" lengthAdjust="spacing" textLength="83" x="29.5" y="388.6377">-dataType: String</text><text fill="#000000" font-family="sans-serif" font-size="11" lengthAdjust="spacing" textLength="69" x="29.5" y="402.4736">-format: String</text><text fill="#000000" font-family="sans-serif" font-size="11" lengthAdjust="spacing" textLength="54" x="29.5" y="416.3096">-size: Long</text><line style="stroke:#181818;stroke-width:0.5;" x1="24.5" x2="191.5" y1="422.7266" y2="422.7266"/><text fill="#000000" font-family="sans-serif" font-size="11" lengthAdjust="spacing" textLength="157" x="29.5" y="438.1455">+update(newValue: String): void</text><text fill="#000000" font-family="sans-serif" font-size="11" lengthAdjust="spacing" textLength="96" x="29.5" y="451.9814">+validate(): Boolean</text><text fill="#000000" font-family="sans-serif" font-size="11" lengthAdjust="spacing" textLength="133" x="29.5" y="465.8174">+extractFromSource(): void</text></g><!--class BusinessMetadata--><g id="elem_BusinessMetadata"><rect codeLine="38" fill="#F1F1F1" height="127.0156" id="BusinessMetadata" rx="2.5" ry="2.5" style="stroke:#181818;stroke-width:0.5;" width="169" x="227.5" y="345.2188"/><ellipse cx="263.9" cy="359.2188" fill="#ADD1B2" rx="9" ry="9" style="stroke:#181818;stroke-width:1.0;"/><path d="M265.4313,356.4844 Q265.525,356.3438 265.65,356.2734 Q265.775,356.2031 265.9156,356.2031 Q266.15,356.2031 266.3063,356.375 Q266.4625,356.5469 266.4625,356.9375 L266.4625,357.875 Q266.4625,358.2656 266.3063,358.4375 Q266.15,358.6094 265.9156,358.6094 Q265.6969,358.6094 265.5563,358.4844 Q265.4156,358.3594 265.3531,358.0313 Q265.3219,357.7969 265.2125,357.6719 Q264.9938,357.4375 264.5953,357.2891 Q264.1969,357.1406 263.8063,357.1406 Q263.3063,357.1406 262.8922,357.3594 Q262.4781,357.5781 262.1578,358.0625 Q261.8375,358.5469 261.8375,359.2031 L261.8375,359.9219 Q261.8375,360.7188 262.4156,361.25 Q262.9938,361.7813 264.025,361.7813 Q264.6344,361.7813 265.0563,361.6094 Q265.3063,361.5156 265.5875,361.2344 Q265.7594,361.0625 265.8531,361.0078 Q265.9469,360.9531 266.0719,360.9531 Q266.2906,360.9531 266.4625,361.125 Q266.6344,361.2969 266.6344,361.5156 Q266.6344,361.7344 266.4,362 Q266.0719,362.375 265.5563,362.5938 Q264.8688,362.875 264.025,362.875 Q263.0563,362.875 262.275,362.4844 Q261.6344,362.1563 261.1891,361.4609 Q260.7438,360.7656 260.7438,359.9375 L260.7438,359.1875 Q260.7438,358.3281 261.1422,357.5859 Q261.5406,356.8438 262.2516,356.4453 Q262.9625,356.0469 263.7594,356.0469 Q264.2281,356.0469 264.65,356.1563 Q265.0719,356.2656 265.4313,356.4844 Z " fill="#000000"/><text fill="#000000" font-family="sans-serif" font-size="11" lengthAdjust="spacing" textLength="89" x="281.1" y="363.7197">BusinessMetadata</text><line style="stroke:#181818;stroke-width:0.5;" x1="228.5" x2="395.5" y1="373.2188" y2="373.2188"/><text fill="#000000" font-family="sans-serif" font-size="11" lengthAdjust="spacing" textLength="106" x="233.5" y="388.6377">-businessTerm: String</text><text fill="#000000" font-family="sans-serif" font-size="11" lengthAdjust="spacing" textLength="126" x="233.5" y="402.4736">-businessDefinition: String</text><text fill="#000000" font-family="sans-serif" font-size="11" lengthAdjust="spacing" textLength="72" x="233.5" y="416.3096">-domain: String</text><line style="stroke:#181818;stroke-width:0.5;" x1="228.5" x2="395.5" y1="422.7266" y2="422.7266"/><text fill="#000000" font-family="sans-serif" font-size="11" lengthAdjust="spacing" textLength="157" x="233.5" y="438.1455">+update(newValue: String): void</text><text fill="#000000" font-family="sans-serif" font-size="11" lengthAdjust="spacing" textLength="96" x="233.5" y="451.9814">+validate(): Boolean</text><text fill="#000000" font-family="sans-serif" font-size="11" lengthAdjust="spacing" textLength="111" x="233.5" y="465.8174">+linkToGlossary(): void</text></g><!--class OperationalMetadata--><g id="elem_OperationalMetadata"><rect codeLine="48" fill="#F1F1F1" height="113.1797" id="OperationalMetadata" rx="2.5" ry="2.5" style="stroke:#181818;stroke-width:0.5;" width="169" x="431.5" y="352.2188"/><ellipse cx="463.4" cy="366.2188" fill="#ADD1B2" rx="9" ry="9" style="stroke:#181818;stroke-width:1.0;"/><path d="M464.9313,363.4844 Q465.025,363.3438 465.15,363.2734 Q465.275,363.2031 465.4156,363.2031 Q465.65,363.2031 465.8063,363.375 Q465.9625,363.5469 465.9625,363.9375 L465.9625,364.875 Q465.9625,365.2656 465.8063,365.4375 Q465.65,365.6094 465.4156,365.6094 Q465.1969,365.6094 465.0563,365.4844 Q464.9156,365.3594 464.8531,365.0313 Q464.8219,364.7969 464.7125,364.6719 Q464.4938,364.4375 464.0953,364.2891 Q463.6969,364.1406 463.3063,364.1406 Q462.8063,364.1406 462.3922,364.3594 Q461.9781,364.5781 461.6578,365.0625 Q461.3375,365.5469 461.3375,366.2031 L461.3375,366.9219 Q461.3375,367.7188 461.9156,368.25 Q462.4938,368.7813 463.525,368.7813 Q464.1344,368.7813 464.5563,368.6094 Q464.8063,368.5156 465.0875,368.2344 Q465.2594,368.0625 465.3531,368.0078 Q465.4469,367.9531 465.5719,367.9531 Q465.7906,367.9531 465.9625,368.125 Q466.1344,368.2969 466.1344,368.5156 Q466.1344,368.7344 465.9,369 Q465.5719,369.375 465.0563,369.5938 Q464.3688,369.875 463.525,369.875 Q462.5563,369.875 461.775,369.4844 Q461.1344,369.1563 460.6891,368.4609 Q460.2438,367.7656 460.2438,366.9375 L460.2438,366.1875 Q460.2438,365.3281 460.6422,364.5859 Q461.0406,363.8438 461.7516,363.4453 Q462.4625,363.0469 463.2594,363.0469 Q463.7281,363.0469 464.15,363.1563 Q464.5719,363.2656 464.9313,363.4844 Z " fill="#000000"/><text fill="#000000" font-family="sans-serif" font-size="11" lengthAdjust="spacing" textLength="99" x="479.6" y="370.7197">OperationalMetadata</text><line style="stroke:#181818;stroke-width:0.5;" x1="432.5" x2="599.5" y1="380.2188" y2="380.2188"/><text fill="#000000" font-family="sans-serif" font-size="11" lengthAdjust="spacing" textLength="131" x="437.5" y="395.6377">-lastAccessTime: DateTime</text><text fill="#000000" font-family="sans-serif" font-size="11" lengthAdjust="spacing" textLength="107" x="437.5" y="409.4736">-accessCount: Integer</text><line style="stroke:#181818;stroke-width:0.5;" x1="432.5" x2="599.5" y1="415.8906" y2="415.8906"/><text fill="#000000" font-family="sans-serif" font-size="11" lengthAdjust="spacing" textLength="157" x="437.5" y="431.3096">+update(newValue: String): void</text><text fill="#000000" font-family="sans-serif" font-size="11" lengthAdjust="spacing" textLength="96" x="437.5" y="445.1455">+validate(): Boolean</text><text fill="#000000" font-family="sans-serif" font-size="11" lengthAdjust="spacing" textLength="95" x="437.5" y="458.9814">+trackUsage(): void</text></g><!--class DescriptiveMetadata--><g id="elem_DescriptiveMetadata"><rect codeLine="57" fill="#F1F1F1" height="113.1797" id="DescriptiveMetadata" rx="2.5" ry="2.5" style="stroke:#181818;stroke-width:0.5;" width="169" x="635.5" y="352.2188"/><ellipse cx="667.85" cy="366.2188" fill="#ADD1B2" rx="9" ry="9" style="stroke:#181818;stroke-width:1.0;"/><path d="M669.3813,363.4844 Q669.475,363.3438 669.6,363.2734 Q669.725,363.2031 669.8656,363.2031 Q670.1,363.2031 670.2563,363.375 Q670.4125,363.5469 670.4125,363.9375 L670.4125,364.875 Q670.4125,365.2656 670.2563,365.4375 Q670.1,365.6094 669.8656,365.6094 Q669.6469,365.6094 669.5063,365.4844 Q669.3656,365.3594 669.3031,365.0313 Q669.2719,364.7969 669.1625,364.6719 Q668.9438,364.4375 668.5453,364.2891 Q668.1469,364.1406 667.7563,364.1406 Q667.2563,364.1406 666.8422,364.3594 Q666.4281,364.5781 666.1078,365.0625 Q665.7875,365.5469 665.7875,366.2031 L665.7875,366.9219 Q665.7875,367.7188 666.3656,368.25 Q666.9438,368.7813 667.975,368.7813 Q668.5844,368.7813 669.0063,368.6094 Q669.2563,368.5156 669.5375,368.2344 Q669.7094,368.0625 669.8031,368.0078 Q669.8969,367.9531 670.0219,367.9531 Q670.2406,367.9531 670.4125,368.125 Q670.5844,368.2969 670.5844,368.5156 Q670.5844,368.7344 670.35,369 Q670.0219,369.375 669.5063,369.5938 Q668.8188,369.875 667.975,369.875 Q667.0063,369.875 666.225,369.4844 Q665.5844,369.1563 665.1391,368.4609 Q664.6938,367.7656 664.6938,366.9375 L664.6938,366.1875 Q664.6938,365.3281 665.0922,364.5859 Q665.4906,363.8438 666.2016,363.4453 Q666.9125,363.0469 667.7094,363.0469 Q668.1781,363.0469 668.6,363.1563 Q669.0219,363.2656 669.3813,363.4844 Z " fill="#000000"/><text fill="#000000" font-family="sans-serif" font-size="11" lengthAdjust="spacing" textLength="98" x="684.15" y="370.7197">DescriptiveMetadata</text><line style="stroke:#181818;stroke-width:0.5;" x1="636.5" x2="803.5" y1="380.2188" y2="380.2188"/><text fill="#000000" font-family="sans-serif" font-size="11" lengthAdjust="spacing" textLength="54" x="641.5" y="395.6377">-title: String</text><text fill="#000000" font-family="sans-serif" font-size="11" lengthAdjust="spacing" textLength="91" x="641.5" y="409.4736">-description: String</text><line style="stroke:#181818;stroke-width:0.5;" x1="636.5" x2="803.5" y1="415.8906" y2="415.8906"/><text fill="#000000" font-family="sans-serif" font-size="11" lengthAdjust="spacing" textLength="157" x="641.5" y="431.3096">+update(newValue: String): void</text><text fill="#000000" font-family="sans-serif" font-size="11" lengthAdjust="spacing" textLength="96" x="641.5" y="445.1455">+validate(): Boolean</text><text fill="#000000" font-family="sans-serif" font-size="11" lengthAdjust="spacing" textLength="70" x="641.5" y="458.9814">+enrich(): void</text></g><!--class MetadataHistory--><g id="elem_MetadataHistory"><rect codeLine="66" fill="#F1F1F1" height="140.8516" id="MetadataHistory" rx="2.5" ry="2.5" style="stroke:#181818;stroke-width:0.5;" width="119" x="839.5" y="338.2188"/><ellipse cx="858.35" cy="352.2188" fill="#ADD1B2" rx="9" ry="9" style="stroke:#181818;stroke-width:1.0;"/><path d="M859.8813,349.4844 Q859.975,349.3438 860.1,349.2734 Q860.225,349.2031 860.3656,349.2031 Q860.6,349.2031 860.7563,349.375 Q860.9125,349.5469 860.9125,349.9375 L860.9125,350.875 Q860.9125,351.2656 860.7563,351.4375 Q860.6,351.6094 860.3656,351.6094 Q860.1469,351.6094 860.0063,351.4844 Q859.8656,351.3594 859.8031,351.0313 Q859.7719,350.7969 859.6625,350.6719 Q859.4438,350.4375 859.0453,350.2891 Q858.6469,350.1406 858.2563,350.1406 Q857.7563,350.1406 857.3422,350.3594 Q856.9281,350.5781 856.6078,351.0625 Q856.2875,351.5469 856.2875,352.2031 L856.2875,352.9219 Q856.2875,353.7188 856.8656,354.25 Q857.4438,354.7813 858.475,354.7813 Q859.0844,354.7813 859.5063,354.6094 Q859.7563,354.5156 860.0375,354.2344 Q860.2094,354.0625 860.3031,354.0078 Q860.3969,353.9531 860.5219,353.9531 Q860.7406,353.9531 860.9125,354.125 Q861.0844,354.2969 861.0844,354.5156 Q861.0844,354.7344 860.85,355 Q860.5219,355.375 860.0063,355.5938 Q859.3188,355.875 858.475,355.875 Q857.5063,355.875 856.725,355.4844 Q856.0844,355.1563 855.6391,354.4609 Q855.1938,353.7656 855.1938,352.9375 L855.1938,352.1875 Q855.1938,351.3281 855.5922,350.5859 Q855.9906,349.8438 856.7016,349.4453 Q857.4125,349.0469 858.2094,349.0469 Q858.6781,349.0469 859.1,349.1563 Q859.5219,349.2656 859.8813,349.4844 Z " fill="#000000"/><text fill="#000000" font-family="sans-serif" font-size="11" lengthAdjust="spacing" textLength="78" x="871.65" y="356.7197">MetadataHistory</text><line style="stroke:#181818;stroke-width:0.5;" x1="840.5" x2="957.5" y1="366.2188" y2="366.2188"/><text fill="#000000" font-family="sans-serif" font-size="11" lengthAdjust="spacing" textLength="41" x="845.5" y="381.6377">-id: UUID</text><text fill="#000000" font-family="sans-serif" font-size="11" lengthAdjust="spacing" textLength="85" x="845.5" y="395.4736">-metadataId: UUID</text><text fill="#000000" font-family="sans-serif" font-size="11" lengthAdjust="spacing" textLength="80" x="845.5" y="409.3096">-oldValue: String</text><text fill="#000000" font-family="sans-serif" font-size="11" lengthAdjust="spacing" textLength="88" x="845.5" y="423.1455">-newValue: String</text><text fill="#000000" font-family="sans-serif" font-size="11" lengthAdjust="spacing" textLength="107" x="845.5" y="436.9814">-changedAt: DateTime</text><line style="stroke:#181818;stroke-width:0.5;" x1="840.5" x2="957.5" y1="443.3984" y2="443.3984"/><text fill="#000000" font-family="sans-serif" font-size="11" lengthAdjust="spacing" textLength="80" x="845.5" y="458.8174">+getDiff(): String</text><text fill="#000000" font-family="sans-serif" font-size="11" lengthAdjust="spacing" textLength="69" x="845.5" y="472.6533">+revert(): void</text></g><!--reverse link Metadata to TechnicalMetadata--><g id="link_Metadata_TechnicalMetadata"><path codeLine="78" d="M414.45,194.2188 C295.08,194.2188 108,194.2188 108,194.2188 C108,194.2188 108,281.7088 108,344.9388 " fill="none" id="Metadata-backto-TechnicalMetadata" style="stroke:#181818;stroke-width:1.0;"/><polygon fill="none" points="432.45,194.2188,414.45,188.2188,414.45,200.2188,432.45,194.2188" style="stroke:#181818;stroke-width:1.0;"/></g><!--reverse link Metadata to BusinessMetadata--><g id="link_Metadata_BusinessMetadata"><path codeLine="79" d="M474.25,296.2988 C474.25,332.7688 474.25,349.2188 474.25,349.2188 C474.25,349.2188 436.18,349.2188 396.93,349.2188 " fill="none" id="Metadata-backto-BusinessMetadata" style="stroke:#181818;stroke-width:1.0;"/><polygon fill="none" points="474.25,278.2988,468.25,296.2988,480.25,296.2988,474.25,278.2988" style="stroke:#181818;stroke-width:1.0;"/></g><!--reverse link Metadata to OperationalMetadata--><g id="link_Metadata_OperationalMetadata"><path codeLine="80" d="M516,296.3887 C516,321.0588 516,329.4188 516,351.9288 " fill="none" id="Metadata-backto-OperationalMetadata" style="stroke:#181818;stroke-width:1.0;"/><polygon fill="none" points="516,278.3887,510,296.3887,522,296.3887,516,278.3887" style="stroke:#181818;stroke-width:1.0;"/></g><!--reverse link Metadata to DescriptiveMetadata--><g id="link_Metadata_DescriptiveMetadata"><path codeLine="81" d="M617.56,194.2188 C673.9,194.2188 720,194.2188 720,194.2188 C720,194.2188 720,288.5288 720,352.0788 " fill="none" id="Metadata-backto-DescriptiveMetadata" style="stroke:#181818;stroke-width:1.0;"/><polygon fill="none" points="599.56,194.2188,617.56,200.2188,617.56,188.2188,599.56,194.2188" style="stroke:#181818;stroke-width:1.0;"/></g><!--link Metadata to MetadataHistory--><g id="link_Metadata_MetadataHistory"><path codeLine="83" d="M557.75,278.3787 C557.75,311.7288 557.75,342.2188 557.75,342.2188 C557.75,342.2188 741.3,342.2188 839.17,342.2188 " fill="none" id="Metadata-MetadataHistory" style="stroke:#181818;stroke-width:1.0;"/><polygon fill="#000000" points="610.4409,336.0216,603.9043,332.1279,602.864,336.7137,610.4409,336.0216" style="stroke:#000000;stroke-width:1.0;"/><text fill="#000000" font-family="sans-serif" font-size="11" lengthAdjust="spacing" textLength="51" x="614.54" y="339.6377">tracked by</text><text fill="#000000" font-family="sans-serif" font-size="11" lengthAdjust="spacing" textLength="6" x="554.8379" y="297.1143">1</text><text fill="#000000" font-family="sans-serif" font-size="11" lengthAdjust="spacing" textLength="16" x="815.3272" y="332.254">0..*</text></g><!--SRC=[lLN1Rjim3BtxAxZii2r5YXPO3pEA0cwyTC5MT6ZSdWO4YimuGcGfaEXqMTUls7dOB-uJ9YjDwYLgraldWo7pFKfy94M_o74i5CBv-on9aomPTYy-NLp2orwlzwxxDehiLAWPCwo46UDJLk205XB182Uc2eaDWfsmNDy8LS2OITj4HiwrCBfIULTBRU1c8gY9knXO9Qcd5Gt4DuJ3mmOeNNYqc25eGnFT0BXarYP4HemgmZxNoZiVH149SZ6sswakcL1m5CCv4iiPCR_edEiSPRlzHKNHlIfe_Vxru-Sw2orW5Zv_F1kk371yd1wTd6ocwJO2z_WN6raoZDCoh8S3bvJwwO38OxYwwgSDa-CYzRVjKrp4C73QLD6mpfciC60lxq_BN9u2C3V82FE4OaZT8XCbhj7XSBtSWzkLYZkePcv3VAtmvhfvw9iOvbhaOHyNdl1UZdMgjKIc6iG2AQdLrgWBW_aFZzyzf76PlGpvH0dEP32DEvIEjIaP1G3hMYE6JxfX_4lva-NkreXVVIfwHfS3NHdkQUiTjdIULjPrjxL1cQDxC4DJ1XIjuBI-m8A4LW5Ixc_05l0SqjqzdMRwJ6fhcLdirdqnGyFga1-fi2DHmdajtlLge6lTnV5mrmqLL-w-8YpGFAk-kh3JA-k6nMvjALfkn8p478FQ_70AbMhbf_zFlL0PmIUxjQm4V12Mj5dyQvYjnb1WdccPNpyol3Q5D0VNnFradZAut6n9nNXSgzdOPC_zg-Pew36Xh-0IfUz5wx_NDJl-tkbi3w80P_CI1oY1VW-m0ftp4EUQsZfiWIEt3lRtswsj2iNBFiKSHWiuYUwYFm00]--></g></svg>