<?xml version="1.0" encoding="us-ascii" standalone="no"?><svg xmlns="http://www.w3.org/2000/svg" xmlns:xlink="http://www.w3.org/1999/xlink" contentStyleType="text/css" height="861px" preserveAspectRatio="none" style="width:341px;height:861px;background:#FFFFFF;" version="1.1" viewBox="0 0 341 861" width="341px" zoomAndPan="magnify"><defs/><g><text fill="#000000" font-family="sans-serif" font-size="14" font-weight="bold" lengthAdjust="spacing" textLength="243" x="42" y="24.5332">Domain 6: Data Quality Meta-Model</text><text fill="#000000" font-family="sans-serif" font-size="14" font-weight="bold" lengthAdjust="spacing" textLength="4" x="161.5" y="42.1426">&#160;</text><!--cluster PKG_QUALITY--><g id="cluster_PKG_QUALITY"><rect fill="#C8E6C9" height="792" rx="2.5" ry="2.5" style="stroke:#000000;stroke-width:1.5;" width="328" x="7" y="63.2188"/><text fill="#000000" font-family="sans-serif" font-size="11" font-style="italic" lengthAdjust="spacing" textLength="26" x="158" y="76.6377">&#171;D6&#187;</text><text fill="#000000" font-family="sans-serif" font-size="11" font-weight="bold" lengthAdjust="spacing" textLength="92" x="125" y="90.4736">&#10003; DATA QUALITY</text></g><!--class DataQuality--><g id="elem_DataQuality"><rect codeLine="15" fill="#F1F1F1" height="140.8516" id="DataQuality" rx="2.5" ry="2.5" style="stroke:#181818;stroke-width:0.5;" width="190" x="76" y="109.2188"/><ellipse cx="139.75" cy="123.2188" fill="#ADD1B2" rx="9" ry="9" style="stroke:#181818;stroke-width:1.0;"/><path d="M141.2813,120.4844 Q141.375,120.3438 141.5,120.2734 Q141.625,120.2031 141.7656,120.2031 Q142,120.2031 142.1563,120.375 Q142.3125,120.5469 142.3125,120.9375 L142.3125,121.875 Q142.3125,122.2656 142.1563,122.4375 Q142,122.6094 141.7656,122.6094 Q141.5469,122.6094 141.4063,122.4844 Q141.2656,122.3594 141.2031,122.0313 Q141.1719,121.7969 141.0625,121.6719 Q140.8438,121.4375 140.4453,121.2891 Q140.0469,121.1406 139.6563,121.1406 Q139.1563,121.1406 138.7422,121.3594 Q138.3281,121.5781 138.0078,122.0625 Q137.6875,122.5469 137.6875,123.2031 L137.6875,123.9219 Q137.6875,124.7188 138.2656,125.25 Q138.8438,125.7813 139.875,125.7813 Q140.4844,125.7813 140.9063,125.6094 Q141.1563,125.5156 141.4375,125.2344 Q141.6094,125.0625 141.7031,125.0078 Q141.7969,124.9531 141.9219,124.9531 Q142.1406,124.9531 142.3125,125.125 Q142.4844,125.2969 142.4844,125.5156 Q142.4844,125.7344 142.25,126 Q141.9219,126.375 141.4063,126.5938 Q140.7188,126.875 139.875,126.875 Q138.9063,126.875 138.125,126.4844 Q137.4844,126.1563 137.0391,125.4609 Q136.5938,124.7656 136.5938,123.9375 L136.5938,123.1875 Q136.5938,122.3281 136.9922,121.5859 Q137.3906,120.8438 138.1016,120.4453 Q138.8125,120.0469 139.6094,120.0469 Q140.0781,120.0469 140.5,120.1563 Q140.9219,120.2656 141.2813,120.4844 Z " fill="#000000"/><text fill="#000000" font-family="sans-serif" font-size="11" lengthAdjust="spacing" textLength="55" x="157.25" y="127.7197">DataQuality</text><line style="stroke:#181818;stroke-width:0.5;" x1="77" x2="265" y1="137.2188" y2="137.2188"/><text fill="#000000" font-family="sans-serif" font-size="11" lengthAdjust="spacing" textLength="41" x="82" y="152.6377">-id: UUID</text><text fill="#000000" font-family="sans-serif" font-size="11" lengthAdjust="spacing" textLength="68" x="82" y="166.4736">-assetId: UUID</text><text fill="#000000" font-family="sans-serif" font-size="11" lengthAdjust="spacing" textLength="108" x="82" y="180.3096">-overallScore: Decimal</text><text fill="#000000" font-family="sans-serif" font-size="11" lengthAdjust="spacing" textLength="132" x="82" y="194.1455">-lastAssessment: DateTime</text><line style="stroke:#181818;stroke-width:0.5;" x1="77" x2="265" y1="200.5625" y2="200.5625"/><text fill="#000000" font-family="sans-serif" font-size="11" lengthAdjust="spacing" textLength="129" x="82" y="215.9814">+calculateScore(): Decimal</text><text fill="#000000" font-family="sans-serif" font-size="11" lengthAdjust="spacing" textLength="178" x="82" y="229.8174">+getDimensions(): QualityDimension[]</text><text fill="#000000" font-family="sans-serif" font-size="11" lengthAdjust="spacing" textLength="132" x="82" y="243.6533">+getIssues(): QualityIssue[]</text></g><!--class QualityDimension--><g id="elem_QualityDimension"><rect codeLine="26" fill="#F1F1F1" height="140.8516" id="QualityDimension" rx="2.5" ry="2.5" style="stroke:#181818;stroke-width:0.5;" width="125" x="23.5" y="317.2188"/><ellipse cx="43.25" cy="331.2188" fill="#ADD1B2" rx="9" ry="9" style="stroke:#181818;stroke-width:1.0;"/><path d="M44.7813,328.4844 Q44.875,328.3438 45,328.2734 Q45.125,328.2031 45.2656,328.2031 Q45.5,328.2031 45.6563,328.375 Q45.8125,328.5469 45.8125,328.9375 L45.8125,329.875 Q45.8125,330.2656 45.6563,330.4375 Q45.5,330.6094 45.2656,330.6094 Q45.0469,330.6094 44.9063,330.4844 Q44.7656,330.3594 44.7031,330.0313 Q44.6719,329.7969 44.5625,329.6719 Q44.3438,329.4375 43.9453,329.2891 Q43.5469,329.1406 43.1563,329.1406 Q42.6563,329.1406 42.2422,329.3594 Q41.8281,329.5781 41.5078,330.0625 Q41.1875,330.5469 41.1875,331.2031 L41.1875,331.9219 Q41.1875,332.7188 41.7656,333.25 Q42.3438,333.7813 43.375,333.7813 Q43.9844,333.7813 44.4063,333.6094 Q44.6563,333.5156 44.9375,333.2344 Q45.1094,333.0625 45.2031,333.0078 Q45.2969,332.9531 45.4219,332.9531 Q45.6406,332.9531 45.8125,333.125 Q45.9844,333.2969 45.9844,333.5156 Q45.9844,333.7344 45.75,334 Q45.4219,334.375 44.9063,334.5938 Q44.2188,334.875 43.375,334.875 Q42.4063,334.875 41.625,334.4844 Q40.9844,334.1563 40.5391,333.4609 Q40.0938,332.7656 40.0938,331.9375 L40.0938,331.1875 Q40.0938,330.3281 40.4922,329.5859 Q40.8906,328.8438 41.6016,328.4453 Q42.3125,328.0469 43.1094,328.0469 Q43.5781,328.0469 44,328.1563 Q44.4219,328.2656 44.7813,328.4844 Z " fill="#000000"/><text fill="#000000" font-family="sans-serif" font-size="11" lengthAdjust="spacing" textLength="82" x="56.75" y="335.7197">QualityDimension</text><line style="stroke:#181818;stroke-width:0.5;" x1="24.5" x2="147.5" y1="345.2188" y2="345.2188"/><text fill="#000000" font-family="sans-serif" font-size="11" lengthAdjust="spacing" textLength="41" x="29.5" y="360.6377">-id: UUID</text><text fill="#000000" font-family="sans-serif" font-size="11" lengthAdjust="spacing" textLength="113" x="29.5" y="374.4736">-dimensionName: String</text><text fill="#000000" font-family="sans-serif" font-size="11" lengthAdjust="spacing" textLength="75" x="29.5" y="388.3096">-score: Decimal</text><text fill="#000000" font-family="sans-serif" font-size="11" lengthAdjust="spacing" textLength="80" x="29.5" y="402.1455">-weight: Decimal</text><text fill="#000000" font-family="sans-serif" font-size="11" lengthAdjust="spacing" textLength="92" x="29.5" y="415.9814">-threshold: Decimal</text><line style="stroke:#181818;stroke-width:0.5;" x1="24.5" x2="147.5" y1="422.3984" y2="422.3984"/><text fill="#000000" font-family="sans-serif" font-size="11" lengthAdjust="spacing" textLength="99" x="29.5" y="437.8174">+measure(): Decimal</text><text fill="#000000" font-family="sans-serif" font-size="11" lengthAdjust="spacing" textLength="105" x="29.5" y="451.6533">+isPassing(): Boolean</text></g><!--class QualityRule--><g id="elem_QualityRule"><rect codeLine="37" fill="#F1F1F1" height="127.0156" id="QualityRule" rx="2.5" ry="2.5" style="stroke:#181818;stroke-width:0.5;" width="189" x="23.5" y="712.2188"/><ellipse cx="87.25" cy="726.2188" fill="#ADD1B2" rx="9" ry="9" style="stroke:#181818;stroke-width:1.0;"/><path d="M88.7813,723.4844 Q88.875,723.3438 89,723.2734 Q89.125,723.2031 89.2656,723.2031 Q89.5,723.2031 89.6563,723.375 Q89.8125,723.5469 89.8125,723.9375 L89.8125,724.875 Q89.8125,725.2656 89.6563,725.4375 Q89.5,725.6094 89.2656,725.6094 Q89.0469,725.6094 88.9063,725.4844 Q88.7656,725.3594 88.7031,725.0313 Q88.6719,724.7969 88.5625,724.6719 Q88.3438,724.4375 87.9453,724.2891 Q87.5469,724.1406 87.1563,724.1406 Q86.6563,724.1406 86.2422,724.3594 Q85.8281,724.5781 85.5078,725.0625 Q85.1875,725.5469 85.1875,726.2031 L85.1875,726.9219 Q85.1875,727.7188 85.7656,728.25 Q86.3438,728.7813 87.375,728.7813 Q87.9844,728.7813 88.4063,728.6094 Q88.6563,728.5156 88.9375,728.2344 Q89.1094,728.0625 89.2031,728.0078 Q89.2969,727.9531 89.4219,727.9531 Q89.6406,727.9531 89.8125,728.125 Q89.9844,728.2969 89.9844,728.5156 Q89.9844,728.7344 89.75,729 Q89.4219,729.375 88.9063,729.5938 Q88.2188,729.875 87.375,729.875 Q86.4063,729.875 85.625,729.4844 Q84.9844,729.1563 84.5391,728.4609 Q84.0938,727.7656 84.0938,726.9375 L84.0938,726.1875 Q84.0938,725.3281 84.4922,724.5859 Q84.8906,723.8438 85.6016,723.4453 Q86.3125,723.0469 87.1094,723.0469 Q87.5781,723.0469 88,723.1563 Q88.4219,723.2656 88.7813,723.4844 Z " fill="#000000"/><text fill="#000000" font-family="sans-serif" font-size="11" lengthAdjust="spacing" textLength="54" x="104.75" y="730.7197">QualityRule</text><line style="stroke:#181818;stroke-width:0.5;" x1="24.5" x2="211.5" y1="740.2188" y2="740.2188"/><text fill="#000000" font-family="sans-serif" font-size="11" lengthAdjust="spacing" textLength="41" x="29.5" y="755.6377">-id: UUID</text><text fill="#000000" font-family="sans-serif" font-size="11" lengthAdjust="spacing" textLength="83" x="29.5" y="769.4736">-ruleName: String</text><text fill="#000000" font-family="sans-serif" font-size="11" lengthAdjust="spacing" textLength="110" x="29.5" y="783.3096">-ruleExpression: String</text><text fill="#000000" font-family="sans-serif" font-size="11" lengthAdjust="spacing" textLength="77" x="29.5" y="797.1455">-severity: String</text><line style="stroke:#181818;stroke-width:0.5;" x1="24.5" x2="211.5" y1="803.5625" y2="803.5625"/><text fill="#000000" font-family="sans-serif" font-size="11" lengthAdjust="spacing" textLength="177" x="29.5" y="818.9814">+evaluate(data: DataSet): RuleResult</text><text fill="#000000" font-family="sans-serif" font-size="11" lengthAdjust="spacing" textLength="135" x="29.5" y="832.8174">+fix(data: DataSet): DataSet</text></g><!--class QualityCheck--><g id="elem_QualityCheck"><rect codeLine="47" fill="#F1F1F1" height="127.0156" id="QualityCheck" rx="2.5" ry="2.5" style="stroke:#181818;stroke-width:0.5;" width="152" x="32" y="525.2188"/><ellipse cx="72.75" cy="539.2188" fill="#ADD1B2" rx="9" ry="9" style="stroke:#181818;stroke-width:1.0;"/><path d="M74.2813,536.4844 Q74.375,536.3438 74.5,536.2734 Q74.625,536.2031 74.7656,536.2031 Q75,536.2031 75.1563,536.375 Q75.3125,536.5469 75.3125,536.9375 L75.3125,537.875 Q75.3125,538.2656 75.1563,538.4375 Q75,538.6094 74.7656,538.6094 Q74.5469,538.6094 74.4063,538.4844 Q74.2656,538.3594 74.2031,538.0313 Q74.1719,537.7969 74.0625,537.6719 Q73.8438,537.4375 73.4453,537.2891 Q73.0469,537.1406 72.6563,537.1406 Q72.1563,537.1406 71.7422,537.3594 Q71.3281,537.5781 71.0078,538.0625 Q70.6875,538.5469 70.6875,539.2031 L70.6875,539.9219 Q70.6875,540.7188 71.2656,541.25 Q71.8438,541.7813 72.875,541.7813 Q73.4844,541.7813 73.9063,541.6094 Q74.1563,541.5156 74.4375,541.2344 Q74.6094,541.0625 74.7031,541.0078 Q74.7969,540.9531 74.9219,540.9531 Q75.1406,540.9531 75.3125,541.125 Q75.4844,541.2969 75.4844,541.5156 Q75.4844,541.7344 75.25,542 Q74.9219,542.375 74.4063,542.5938 Q73.7188,542.875 72.875,542.875 Q71.9063,542.875 71.125,542.4844 Q70.4844,542.1563 70.0391,541.4609 Q69.5938,540.7656 69.5938,539.9375 L69.5938,539.1875 Q69.5938,538.3281 69.9922,537.5859 Q70.3906,536.8438 71.1016,536.4453 Q71.8125,536.0469 72.6094,536.0469 Q73.0781,536.0469 73.5,536.1563 Q73.9219,536.2656 74.2813,536.4844 Z " fill="#000000"/><text fill="#000000" font-family="sans-serif" font-size="11" lengthAdjust="spacing" textLength="63" x="90.25" y="543.7197">QualityCheck</text><line style="stroke:#181818;stroke-width:0.5;" x1="33" x2="183" y1="553.2188" y2="553.2188"/><text fill="#000000" font-family="sans-serif" font-size="11" lengthAdjust="spacing" textLength="41" x="38" y="568.6377">-id: UUID</text><text fill="#000000" font-family="sans-serif" font-size="11" lengthAdjust="spacing" textLength="94" x="38" y="582.4736">-checkName: String</text><text fill="#000000" font-family="sans-serif" font-size="11" lengthAdjust="spacing" textLength="91" x="38" y="596.3096">-checkType: String</text><text fill="#000000" font-family="sans-serif" font-size="11" lengthAdjust="spacing" textLength="92" x="38" y="610.1455">-threshold: Decimal</text><line style="stroke:#181818;stroke-width:0.5;" x1="33" x2="183" y1="616.5625" y2="616.5625"/><text fill="#000000" font-family="sans-serif" font-size="11" lengthAdjust="spacing" textLength="119" x="38" y="631.9814">+execute(): CheckResult</text><text fill="#000000" font-family="sans-serif" font-size="11" lengthAdjust="spacing" textLength="140" x="38" y="645.8174">+schedule(cron: String): void</text></g><!--class QualityIssue--><g id="elem_QualityIssue"><rect codeLine="57" fill="#F1F1F1" height="154.6875" id="QualityIssue" rx="2.5" ry="2.5" style="stroke:#181818;stroke-width:0.5;" width="135" x="183.5" y="310.2188"/><ellipse cx="218.1" cy="324.2188" fill="#ADD1B2" rx="9" ry="9" style="stroke:#181818;stroke-width:1.0;"/><path d="M219.6313,321.4844 Q219.725,321.3438 219.85,321.2734 Q219.975,321.2031 220.1156,321.2031 Q220.35,321.2031 220.5063,321.375 Q220.6625,321.5469 220.6625,321.9375 L220.6625,322.875 Q220.6625,323.2656 220.5063,323.4375 Q220.35,323.6094 220.1156,323.6094 Q219.8969,323.6094 219.7563,323.4844 Q219.6156,323.3594 219.5531,323.0313 Q219.5219,322.7969 219.4125,322.6719 Q219.1938,322.4375 218.7953,322.2891 Q218.3969,322.1406 218.0063,322.1406 Q217.5063,322.1406 217.0922,322.3594 Q216.6781,322.5781 216.3578,323.0625 Q216.0375,323.5469 216.0375,324.2031 L216.0375,324.9219 Q216.0375,325.7188 216.6156,326.25 Q217.1938,326.7813 218.225,326.7813 Q218.8344,326.7813 219.2563,326.6094 Q219.5063,326.5156 219.7875,326.2344 Q219.9594,326.0625 220.0531,326.0078 Q220.1469,325.9531 220.2719,325.9531 Q220.4906,325.9531 220.6625,326.125 Q220.8344,326.2969 220.8344,326.5156 Q220.8344,326.7344 220.6,327 Q220.2719,327.375 219.7563,327.5938 Q219.0688,327.875 218.225,327.875 Q217.2563,327.875 216.475,327.4844 Q215.8344,327.1563 215.3891,326.4609 Q214.9438,325.7656 214.9438,324.9375 L214.9438,324.1875 Q214.9438,323.3281 215.3422,322.5859 Q215.7406,321.8438 216.4516,321.4453 Q217.1625,321.0469 217.9594,321.0469 Q218.4281,321.0469 218.85,321.1563 Q219.2719,321.2656 219.6313,321.4844 Z " fill="#000000"/><text fill="#000000" font-family="sans-serif" font-size="11" lengthAdjust="spacing" textLength="59" x="234.9" y="328.7197">QualityIssue</text><line style="stroke:#181818;stroke-width:0.5;" x1="184.5" x2="317.5" y1="338.2188" y2="338.2188"/><text fill="#000000" font-family="sans-serif" font-size="11" lengthAdjust="spacing" textLength="41" x="189.5" y="353.6377">-id: UUID</text><text fill="#000000" font-family="sans-serif" font-size="11" lengthAdjust="spacing" textLength="68" x="189.5" y="367.4736">-assetId: UUID</text><text fill="#000000" font-family="sans-serif" font-size="11" lengthAdjust="spacing" textLength="88" x="189.5" y="381.3096">-issueType: String</text><text fill="#000000" font-family="sans-serif" font-size="11" lengthAdjust="spacing" textLength="77" x="189.5" y="395.1455">-severity: String</text><text fill="#000000" font-family="sans-serif" font-size="11" lengthAdjust="spacing" textLength="68" x="189.5" y="408.9814">-status: String</text><text fill="#000000" font-family="sans-serif" font-size="11" lengthAdjust="spacing" textLength="107" x="189.5" y="422.8174">-detectedAt: DateTime</text><line style="stroke:#181818;stroke-width:0.5;" x1="184.5" x2="317.5" y1="429.2344" y2="429.2344"/><text fill="#000000" font-family="sans-serif" font-size="11" lengthAdjust="spacing" textLength="76" x="189.5" y="444.6533">+resolve(): void</text><text fill="#000000" font-family="sans-serif" font-size="11" lengthAdjust="spacing" textLength="123" x="189.5" y="458.4893">+assign(user: User): void</text></g><!--reverse link DataQuality to QualityDimension--><g id="link_DataQuality_QualityDimension"><path codeLine="70" d="M112.25,262.4288 C112.25,283.9788 112.25,295.6688 112.25,317.2088 " fill="none" id="DataQuality-backto-QualityDimension" style="stroke:#181818;stroke-width:1.0;"/><polygon fill="#181818" points="112.25,250.4288,108.25,256.4288,112.25,262.4288,116.25,256.4288,112.25,250.4288" style="stroke:#181818;stroke-width:1.0;"/><polygon fill="#000000" points="40.25,280.7367,42.6011,273.5007,37.8989,273.5007,40.25,280.7367" style="stroke:#000000;stroke-width:1.0;"/><text fill="#000000" font-family="sans-serif" font-size="11" lengthAdjust="spacing" textLength="63" x="48.25" y="281.2377">measured by</text><text fill="#000000" font-family="sans-serif" font-size="11" lengthAdjust="spacing" textLength="6" x="100.1715" y="269.4965">1</text><text fill="#000000" font-family="sans-serif" font-size="11" lengthAdjust="spacing" textLength="16" x="98.3602" y="306.7803">1..*</text></g><!--link QualityDimension to QualityCheck--><g id="link_QualityDimension_QualityCheck"><path codeLine="71" d="M90.25,458.2988 C90.25,480.0188 90.25,503.7888 90.25,525.0188 " fill="none" id="QualityDimension-QualityCheck" style="stroke:#181818;stroke-width:1.0;"/><polygon fill="#000000" points="19.25,488.5767,21.6011,481.3407,16.8989,481.3407,19.25,488.5767" style="stroke:#000000;stroke-width:1.0;"/><text fill="#000000" font-family="sans-serif" font-size="11" lengthAdjust="spacing" textLength="62" x="27.25" y="489.0777">evaluated by</text><text fill="#000000" font-family="sans-serif" font-size="11" lengthAdjust="spacing" textLength="6" x="84.3789" y="477.7173">1</text><text fill="#000000" font-family="sans-serif" font-size="11" lengthAdjust="spacing" textLength="16" x="71.1117" y="514.9321">0..*</text></g><!--link QualityCheck to QualityRule--><g id="link_QualityCheck_QualityRule"><path codeLine="72" d="M108,652.2887 C108,671.5588 108,692.7288 108,712.0088 " fill="none" id="QualityCheck-QualityRule" style="stroke:#181818;stroke-width:1.0;"/><polygon fill="#000000" points="46,679.0667,48.3511,671.8307,43.6489,671.8307,46,679.0667" style="stroke:#000000;stroke-width:1.0;"/><text fill="#000000" font-family="sans-serif" font-size="11" lengthAdjust="spacing" textLength="53" x="54" y="679.5677">implements</text><text fill="#000000" font-family="sans-serif" font-size="11" lengthAdjust="spacing" textLength="16" x="91.075" y="671.857">0..*</text><text fill="#000000" font-family="sans-serif" font-size="11" lengthAdjust="spacing" textLength="6" x="100.4156" y="701.9208">1</text></g><!--link DataQuality to QualityIssue--><g id="link_DataQuality_QualityIssue"><path codeLine="73" d="M224.75,250.4288 C224.75,269.6287 224.75,290.5187 224.75,310.0688 " fill="none" id="DataQuality-QualityIssue" style="stroke:#181818;stroke-width:1.0;"/><polygon fill="#000000" points="197.75,277.1667,200.1011,269.9307,195.3989,269.9307,197.75,277.1667" style="stroke:#000000;stroke-width:1.0;"/><text fill="#000000" font-family="sans-serif" font-size="11" lengthAdjust="spacing" textLength="18" x="205.75" y="277.6677">has</text><text fill="#000000" font-family="sans-serif" font-size="11" lengthAdjust="spacing" textLength="6" x="223.7457" y="269.4965">1</text><text fill="#000000" font-family="sans-serif" font-size="11" lengthAdjust="spacing" textLength="16" x="205.218" y="299.8689">0..*</text></g><!--SRC=[dLHDRzf04BtxLqpfePI8A5oY5aL85D8ADMaI88UghT36Ex5Nh7UHTyr7g_oANllh-aiwknXgC0vLEHXxtvlPUMzdzWN7Hw4GxkwxLuFnvqdlvkfc22zxRoxFUs-3m4o5ch6K9J1ZuPH5EB8hYP1YQ9cA91O89cPSBuIAu959KqGUA3HATQPuJqkTmY8MjeXJ2IoJzhrMTYI-8xHQ1L1ITNOrGz2fZNK122KpfcjjAXuoYuDGAnzy5WHMMAgnqUZhX0a5vsteCylWBcDIs1LSesNDQyrHDXfVLH3aog3s-zTFw7V7tOqPDM06RZz-cEJVS77HF-zqzhpw4G3z_CENv3VRxBK6tQy9WhVX_dxGBomH7UsWlAxdc38fHw5EaQh7K2HC5d3QntOfrfW4bVNwS2mIt58ca-th2OHCXfaaYizNVrtEU08HsZubK4PePHmbLx1T_F9jbpqm9iCYqo_ahATzJ_Qp7JE6RuYVM48EZEYKLLJ0JPKp2nHHR0yXDaxHn5hoChZZLeBCP5Ks2NDBSgWM1x_JMY9JpoeUPjIAHyIcnAdGwQ3BvOmgTsOSCWAfLMYV4hIZ2UTCPjG0TKwzkHw74LgIuCeReg7fAx0VnR94pD-UrTgBCPmU4niwKeLQZurfs0zW_tfykCIGxWDtFhwUaZf3kt2ING_JluuIUwu5VrQUR_3_dMZXWYkaLPuXGPRPp1m0E5gwWv5tZqu_sQRbt1kobRX6N2T7gfuPJAbUUbQuy0g6IDU7kndyT_62gxLgq6WswV_qj54hptbxCqyS7bRGyV4baalYSfmLSwoxgRtjtNA2DIEFyZNKTiQk3IAPINHNfCaZzqilxRe-v3R4p8Ky1Ny0]--></g></svg>