<?xml version="1.0" encoding="us-ascii" standalone="no"?><svg xmlns="http://www.w3.org/2000/svg" xmlns:xlink="http://www.w3.org/1999/xlink" contentStyleType="text/css" height="688px" preserveAspectRatio="none" style="width:629px;height:688px;background:#FFFFFF;" version="1.1" viewBox="0 0 629 688" width="629px" zoomAndPan="magnify"><defs/><g><text fill="#000000" font-family="sans-serif" font-size="14" font-weight="bold" lengthAdjust="spacing" textLength="252" x="181.5" y="24.5332">Domain 7: Data Security Meta-Model</text><text fill="#000000" font-family="sans-serif" font-size="14" font-weight="bold" lengthAdjust="spacing" textLength="4" x="305.5" y="42.1426">&#160;</text><!--cluster PKG_SECURITY--><g id="cluster_PKG_SECURITY"><rect fill="#F8BBD0" height="619" rx="2.5" ry="2.5" style="stroke:#000000;stroke-width:1.5;" width="616" x="7" y="63.2188"/><text fill="#000000" font-family="sans-serif" font-size="11" font-style="italic" lengthAdjust="spacing" textLength="26" x="302" y="76.6377">&#171;D7&#187;</text><text fill="#000000" font-family="sans-serif" font-size="11" font-weight="bold" lengthAdjust="spacing" textLength="100" x="265" y="90.4736">&#128274; DATA SECURITY</text></g><!--class User--><g id="elem_User"><rect codeLine="15" fill="#F1F1F1" height="154.6875" id="User" rx="2.5" ry="2.5" style="stroke:#181818;stroke-width:0.5;" width="214" x="386" y="109.2188"/><ellipse cx="477.75" cy="123.2188" fill="#ADD1B2" rx="9" ry="9" style="stroke:#181818;stroke-width:1.0;"/><path d="M479.2813,120.4844 Q479.375,120.3438 479.5,120.2734 Q479.625,120.2031 479.7656,120.2031 Q480,120.2031 480.1563,120.375 Q480.3125,120.5469 480.3125,120.9375 L480.3125,121.875 Q480.3125,122.2656 480.1563,122.4375 Q480,122.6094 479.7656,122.6094 Q479.5469,122.6094 479.4063,122.4844 Q479.2656,122.3594 479.2031,122.0313 Q479.1719,121.7969 479.0625,121.6719 Q478.8438,121.4375 478.4453,121.2891 Q478.0469,121.1406 477.6563,121.1406 Q477.1563,121.1406 476.7422,121.3594 Q476.3281,121.5781 476.0078,122.0625 Q475.6875,122.5469 475.6875,123.2031 L475.6875,123.9219 Q475.6875,124.7188 476.2656,125.25 Q476.8438,125.7813 477.875,125.7813 Q478.4844,125.7813 478.9063,125.6094 Q479.1563,125.5156 479.4375,125.2344 Q479.6094,125.0625 479.7031,125.0078 Q479.7969,124.9531 479.9219,124.9531 Q480.1406,124.9531 480.3125,125.125 Q480.4844,125.2969 480.4844,125.5156 Q480.4844,125.7344 480.25,126 Q479.9219,126.375 479.4063,126.5938 Q478.7188,126.875 477.875,126.875 Q476.9063,126.875 476.125,126.4844 Q475.4844,126.1563 475.0391,125.4609 Q474.5938,124.7656 474.5938,123.9375 L474.5938,123.1875 Q474.5938,122.3281 474.9922,121.5859 Q475.3906,120.8438 476.1016,120.4453 Q476.8125,120.0469 477.6094,120.0469 Q478.0781,120.0469 478.5,120.1563 Q478.9219,120.2656 479.2813,120.4844 Z " fill="#000000"/><text fill="#000000" font-family="sans-serif" font-size="11" lengthAdjust="spacing" textLength="23" x="495.25" y="127.7197">User</text><line style="stroke:#181818;stroke-width:0.5;" x1="387" x2="599" y1="137.2188" y2="137.2188"/><text fill="#000000" font-family="sans-serif" font-size="11" lengthAdjust="spacing" textLength="41" x="392" y="152.6377">-id: UUID</text><text fill="#000000" font-family="sans-serif" font-size="11" lengthAdjust="spacing" textLength="86" x="392" y="166.4736">-username: String</text><text fill="#000000" font-family="sans-serif" font-size="11" lengthAdjust="spacing" textLength="62" x="392" y="180.3096">-email: String</text><text fill="#000000" font-family="sans-serif" font-size="11" lengthAdjust="spacing" textLength="88" x="392" y="194.1455">-isActive: Boolean</text><text fill="#000000" font-family="sans-serif" font-size="11" lengthAdjust="spacing" textLength="97" x="392" y="207.9814">-lastLogin: DateTime</text><line style="stroke:#181818;stroke-width:0.5;" x1="387" x2="599" y1="214.3984" y2="214.3984"/><text fill="#000000" font-family="sans-serif" font-size="11" lengthAdjust="spacing" textLength="202" x="392" y="229.8174">+authenticate(password: String): Boolean</text><text fill="#000000" font-family="sans-serif" font-size="11" lengthAdjust="spacing" textLength="89" x="392" y="243.6533">+getRoles(): Role[]</text><text fill="#000000" font-family="sans-serif" font-size="11" lengthAdjust="spacing" textLength="151" x="392" y="257.4893">+getPermissions(): Permission[]</text></g><!--class Role--><g id="elem_Role"><rect codeLine="27" fill="#F1F1F1" height="113.1797" id="Role" rx="2.5" ry="2.5" style="stroke:#181818;stroke-width:0.5;" width="227" x="379.5" y="345.2188"/><ellipse cx="478.75" cy="359.2188" fill="#ADD1B2" rx="9" ry="9" style="stroke:#181818;stroke-width:1.0;"/><path d="M480.2813,356.4844 Q480.375,356.3438 480.5,356.2734 Q480.625,356.2031 480.7656,356.2031 Q481,356.2031 481.1563,356.375 Q481.3125,356.5469 481.3125,356.9375 L481.3125,357.875 Q481.3125,358.2656 481.1563,358.4375 Q481,358.6094 480.7656,358.6094 Q480.5469,358.6094 480.4063,358.4844 Q480.2656,358.3594 480.2031,358.0313 Q480.1719,357.7969 480.0625,357.6719 Q479.8438,357.4375 479.4453,357.2891 Q479.0469,357.1406 478.6563,357.1406 Q478.1563,357.1406 477.7422,357.3594 Q477.3281,357.5781 477.0078,358.0625 Q476.6875,358.5469 476.6875,359.2031 L476.6875,359.9219 Q476.6875,360.7188 477.2656,361.25 Q477.8438,361.7813 478.875,361.7813 Q479.4844,361.7813 479.9063,361.6094 Q480.1563,361.5156 480.4375,361.2344 Q480.6094,361.0625 480.7031,361.0078 Q480.7969,360.9531 480.9219,360.9531 Q481.1406,360.9531 481.3125,361.125 Q481.4844,361.2969 481.4844,361.5156 Q481.4844,361.7344 481.25,362 Q480.9219,362.375 480.4063,362.5938 Q479.7188,362.875 478.875,362.875 Q477.9063,362.875 477.125,362.4844 Q476.4844,362.1563 476.0391,361.4609 Q475.5938,360.7656 475.5938,359.9375 L475.5938,359.1875 Q475.5938,358.3281 475.9922,357.5859 Q476.3906,356.8438 477.1016,356.4453 Q477.8125,356.0469 478.6094,356.0469 Q479.0781,356.0469 479.5,356.1563 Q479.9219,356.2656 480.2813,356.4844 Z " fill="#000000"/><text fill="#000000" font-family="sans-serif" font-size="11" lengthAdjust="spacing" textLength="21" x="496.25" y="363.7197">Role</text><line style="stroke:#181818;stroke-width:0.5;" x1="380.5" x2="605.5" y1="373.2188" y2="373.2188"/><text fill="#000000" font-family="sans-serif" font-size="11" lengthAdjust="spacing" textLength="41" x="385.5" y="388.6377">-id: UUID</text><text fill="#000000" font-family="sans-serif" font-size="11" lengthAdjust="spacing" textLength="83" x="385.5" y="402.4736">-roleName: String</text><text fill="#000000" font-family="sans-serif" font-size="11" lengthAdjust="spacing" textLength="91" x="385.5" y="416.3096">-description: String</text><line style="stroke:#181818;stroke-width:0.5;" x1="380.5" x2="605.5" y1="422.7266" y2="422.7266"/><text fill="#000000" font-family="sans-serif" font-size="11" lengthAdjust="spacing" textLength="151" x="385.5" y="438.1455">+getPermissions(): Permission[]</text><text fill="#000000" font-family="sans-serif" font-size="11" lengthAdjust="spacing" textLength="215" x="385.5" y="451.9814">+hasPermission(permission: String): Boolean</text></g><!--class Permission--><g id="elem_Permission"><rect codeLine="36" fill="#F1F1F1" height="127.0156" id="Permission" rx="2.5" ry="2.5" style="stroke:#181818;stroke-width:0.5;" width="136" x="224" y="539.2188"/><ellipse cx="262.25" cy="553.2188" fill="#ADD1B2" rx="9" ry="9" style="stroke:#181818;stroke-width:1.0;"/><path d="M263.7813,550.4844 Q263.875,550.3438 264,550.2734 Q264.125,550.2031 264.2656,550.2031 Q264.5,550.2031 264.6563,550.375 Q264.8125,550.5469 264.8125,550.9375 L264.8125,551.875 Q264.8125,552.2656 264.6563,552.4375 Q264.5,552.6094 264.2656,552.6094 Q264.0469,552.6094 263.9063,552.4844 Q263.7656,552.3594 263.7031,552.0313 Q263.6719,551.7969 263.5625,551.6719 Q263.3438,551.4375 262.9453,551.2891 Q262.5469,551.1406 262.1563,551.1406 Q261.6563,551.1406 261.2422,551.3594 Q260.8281,551.5781 260.5078,552.0625 Q260.1875,552.5469 260.1875,553.2031 L260.1875,553.9219 Q260.1875,554.7188 260.7656,555.25 Q261.3438,555.7813 262.375,555.7813 Q262.9844,555.7813 263.4063,555.6094 Q263.6563,555.5156 263.9375,555.2344 Q264.1094,555.0625 264.2031,555.0078 Q264.2969,554.9531 264.4219,554.9531 Q264.6406,554.9531 264.8125,555.125 Q264.9844,555.2969 264.9844,555.5156 Q264.9844,555.7344 264.75,556 Q264.4219,556.375 263.9063,556.5938 Q263.2188,556.875 262.375,556.875 Q261.4063,556.875 260.625,556.4844 Q259.9844,556.1563 259.5391,555.4609 Q259.0938,554.7656 259.0938,553.9375 L259.0938,553.1875 Q259.0938,552.3281 259.4922,551.5859 Q259.8906,550.8438 260.6016,550.4453 Q261.3125,550.0469 262.1094,550.0469 Q262.5781,550.0469 263,550.1563 Q263.4219,550.2656 263.7813,550.4844 Z " fill="#000000"/><text fill="#000000" font-family="sans-serif" font-size="11" lengthAdjust="spacing" textLength="52" x="279.75" y="557.7197">Permission</text><line style="stroke:#181818;stroke-width:0.5;" x1="225" x2="359" y1="567.2188" y2="567.2188"/><text fill="#000000" font-family="sans-serif" font-size="11" lengthAdjust="spacing" textLength="41" x="230" y="582.6377">-id: UUID</text><text fill="#000000" font-family="sans-serif" font-size="11" lengthAdjust="spacing" textLength="117" x="230" y="596.4736">-permissionName: String</text><text fill="#000000" font-family="sans-serif" font-size="11" lengthAdjust="spacing" textLength="82" x="230" y="610.3096">-resource: String</text><text fill="#000000" font-family="sans-serif" font-size="11" lengthAdjust="spacing" textLength="67" x="230" y="624.1455">-action: String</text><line style="stroke:#181818;stroke-width:0.5;" x1="225" x2="359" y1="630.5625" y2="630.5625"/><text fill="#000000" font-family="sans-serif" font-size="11" lengthAdjust="spacing" textLength="116" x="230" y="645.9814">+grant(user: User): void</text><text fill="#000000" font-family="sans-serif" font-size="11" lengthAdjust="spacing" textLength="124" x="230" y="659.8174">+revoke(user: User): void</text></g><!--class DataSensitivity--><g id="elem_DataSensitivity"><rect codeLine="46" fill="#F1F1F1" height="140.8516" id="DataSensitivity" rx="2.5" ry="2.5" style="stroke:#181818;stroke-width:0.5;" width="172" x="172" y="116.2188"/><ellipse cx="218.75" cy="130.2188" fill="#ADD1B2" rx="9" ry="9" style="stroke:#181818;stroke-width:1.0;"/><path d="M220.2813,127.4844 Q220.375,127.3438 220.5,127.2734 Q220.625,127.2031 220.7656,127.2031 Q221,127.2031 221.1563,127.375 Q221.3125,127.5469 221.3125,127.9375 L221.3125,128.875 Q221.3125,129.2656 221.1563,129.4375 Q221,129.6094 220.7656,129.6094 Q220.5469,129.6094 220.4063,129.4844 Q220.2656,129.3594 220.2031,129.0313 Q220.1719,128.7969 220.0625,128.6719 Q219.8438,128.4375 219.4453,128.2891 Q219.0469,128.1406 218.6563,128.1406 Q218.1563,128.1406 217.7422,128.3594 Q217.3281,128.5781 217.0078,129.0625 Q216.6875,129.5469 216.6875,130.2031 L216.6875,130.9219 Q216.6875,131.7188 217.2656,132.25 Q217.8438,132.7813 218.875,132.7813 Q219.4844,132.7813 219.9063,132.6094 Q220.1563,132.5156 220.4375,132.2344 Q220.6094,132.0625 220.7031,132.0078 Q220.7969,131.9531 220.9219,131.9531 Q221.1406,131.9531 221.3125,132.125 Q221.4844,132.2969 221.4844,132.5156 Q221.4844,132.7344 221.25,133 Q220.9219,133.375 220.4063,133.5938 Q219.7188,133.875 218.875,133.875 Q217.9063,133.875 217.125,133.4844 Q216.4844,133.1563 216.0391,132.4609 Q215.5938,131.7656 215.5938,130.9375 L215.5938,130.1875 Q215.5938,129.3281 215.9922,128.5859 Q216.3906,127.8438 217.1016,127.4453 Q217.8125,127.0469 218.6094,127.0469 Q219.0781,127.0469 219.5,127.1563 Q219.9219,127.2656 220.2813,127.4844 Z " fill="#000000"/><text fill="#000000" font-family="sans-serif" font-size="11" lengthAdjust="spacing" textLength="71" x="236.25" y="134.7197">DataSensitivity</text><line style="stroke:#181818;stroke-width:0.5;" x1="173" x2="343" y1="144.2188" y2="144.2188"/><text fill="#000000" font-family="sans-serif" font-size="11" lengthAdjust="spacing" textLength="41" x="178" y="159.6377">-id: UUID</text><text fill="#000000" font-family="sans-serif" font-size="11" lengthAdjust="spacing" textLength="68" x="178" y="173.4736">-assetId: UUID</text><text fill="#000000" font-family="sans-serif" font-size="11" lengthAdjust="spacing" textLength="112" x="178" y="187.3096">-sensitivityLevel: String</text><text fill="#000000" font-family="sans-serif" font-size="11" lengthAdjust="spacing" textLength="101" x="178" y="201.1455">-classification: String</text><line style="stroke:#181818;stroke-width:0.5;" x1="173" x2="343" y1="207.5625" y2="207.5625"/><text fill="#000000" font-family="sans-serif" font-size="11" lengthAdjust="spacing" textLength="122" x="178" y="222.9814">+classify(): Classification</text><text fill="#000000" font-family="sans-serif" font-size="11" lengthAdjust="spacing" textLength="148" x="178" y="236.8174">+mask(data: DataSet): DataSet</text><text fill="#000000" font-family="sans-serif" font-size="11" lengthAdjust="spacing" textLength="160" x="178" y="250.6533">+encrypt(data: DataSet): DataSet</text></g><!--class AccessControl--><g id="elem_AccessControl"><rect codeLine="57" fill="#F1F1F1" height="140.8516" id="AccessControl" rx="2.5" ry="2.5" style="stroke:#181818;stroke-width:0.5;" width="114" x="23" y="331.2188"/><ellipse cx="42.3" cy="345.2188" fill="#ADD1B2" rx="9" ry="9" style="stroke:#181818;stroke-width:1.0;"/><path d="M43.8313,342.4844 Q43.925,342.3438 44.05,342.2734 Q44.175,342.2031 44.3156,342.2031 Q44.55,342.2031 44.7063,342.375 Q44.8625,342.5469 44.8625,342.9375 L44.8625,343.875 Q44.8625,344.2656 44.7063,344.4375 Q44.55,344.6094 44.3156,344.6094 Q44.0969,344.6094 43.9563,344.4844 Q43.8156,344.3594 43.7531,344.0313 Q43.7219,343.7969 43.6125,343.6719 Q43.3938,343.4375 42.9953,343.2891 Q42.5969,343.1406 42.2063,343.1406 Q41.7063,343.1406 41.2922,343.3594 Q40.8781,343.5781 40.5578,344.0625 Q40.2375,344.5469 40.2375,345.2031 L40.2375,345.9219 Q40.2375,346.7188 40.8156,347.25 Q41.3938,347.7813 42.425,347.7813 Q43.0344,347.7813 43.4563,347.6094 Q43.7063,347.5156 43.9875,347.2344 Q44.1594,347.0625 44.2531,347.0078 Q44.3469,346.9531 44.4719,346.9531 Q44.6906,346.9531 44.8625,347.125 Q45.0344,347.2969 45.0344,347.5156 Q45.0344,347.7344 44.8,348 Q44.4719,348.375 43.9563,348.5938 Q43.2688,348.875 42.425,348.875 Q41.4563,348.875 40.675,348.4844 Q40.0344,348.1563 39.5891,347.4609 Q39.1438,346.7656 39.1438,345.9375 L39.1438,345.1875 Q39.1438,344.3281 39.5422,343.5859 Q39.9406,342.8438 40.6516,342.4453 Q41.3625,342.0469 42.1594,342.0469 Q42.6281,342.0469 43.05,342.1563 Q43.4719,342.2656 43.8313,342.4844 Z " fill="#000000"/><text fill="#000000" font-family="sans-serif" font-size="11" lengthAdjust="spacing" textLength="72" x="55.7" y="349.7197">AccessControl</text><line style="stroke:#181818;stroke-width:0.5;" x1="24" x2="136" y1="359.2188" y2="359.2188"/><text fill="#000000" font-family="sans-serif" font-size="11" lengthAdjust="spacing" textLength="41" x="29" y="374.6377">-id: UUID</text><text fill="#000000" font-family="sans-serif" font-size="11" lengthAdjust="spacing" textLength="68" x="29" y="388.4736">-assetId: UUID</text><text fill="#000000" font-family="sans-serif" font-size="11" lengthAdjust="spacing" textLength="63" x="29" y="402.3096">-userId: UUID</text><text fill="#000000" font-family="sans-serif" font-size="11" lengthAdjust="spacing" textLength="98" x="29" y="416.1455">-accessType: String</text><text fill="#000000" font-family="sans-serif" font-size="11" lengthAdjust="spacing" textLength="102" x="29" y="429.9814">-grantedAt: DateTime</text><line style="stroke:#181818;stroke-width:0.5;" x1="24" x2="136" y1="436.3984" y2="436.3984"/><text fill="#000000" font-family="sans-serif" font-size="11" lengthAdjust="spacing" textLength="73" x="29" y="451.8174">+revoke(): void</text><text fill="#000000" font-family="sans-serif" font-size="11" lengthAdjust="spacing" textLength="93" x="29" y="465.6533">+audit(): AuditEntry</text></g><!--class EncryptionPolicy--><g id="elem_EncryptionPolicy"><rect codeLine="68" fill="#F1F1F1" height="154.6875" id="EncryptionPolicy" rx="2.5" ry="2.5" style="stroke:#181818;stroke-width:0.5;" width="172" x="172" y="324.2188"/><ellipse cx="214.75" cy="338.2188" fill="#ADD1B2" rx="9" ry="9" style="stroke:#181818;stroke-width:1.0;"/><path d="M216.2813,335.4844 Q216.375,335.3438 216.5,335.2734 Q216.625,335.2031 216.7656,335.2031 Q217,335.2031 217.1563,335.375 Q217.3125,335.5469 217.3125,335.9375 L217.3125,336.875 Q217.3125,337.2656 217.1563,337.4375 Q217,337.6094 216.7656,337.6094 Q216.5469,337.6094 216.4063,337.4844 Q216.2656,337.3594 216.2031,337.0313 Q216.1719,336.7969 216.0625,336.6719 Q215.8438,336.4375 215.4453,336.2891 Q215.0469,336.1406 214.6563,336.1406 Q214.1563,336.1406 213.7422,336.3594 Q213.3281,336.5781 213.0078,337.0625 Q212.6875,337.5469 212.6875,338.2031 L212.6875,338.9219 Q212.6875,339.7188 213.2656,340.25 Q213.8438,340.7813 214.875,340.7813 Q215.4844,340.7813 215.9063,340.6094 Q216.1563,340.5156 216.4375,340.2344 Q216.6094,340.0625 216.7031,340.0078 Q216.7969,339.9531 216.9219,339.9531 Q217.1406,339.9531 217.3125,340.125 Q217.4844,340.2969 217.4844,340.5156 Q217.4844,340.7344 217.25,341 Q216.9219,341.375 216.4063,341.5938 Q215.7188,341.875 214.875,341.875 Q213.9063,341.875 213.125,341.4844 Q212.4844,341.1563 212.0391,340.4609 Q211.5938,339.7656 211.5938,338.9375 L211.5938,338.1875 Q211.5938,337.3281 211.9922,336.5859 Q212.3906,335.8438 213.1016,335.4453 Q213.8125,335.0469 214.6094,335.0469 Q215.0781,335.0469 215.5,335.1563 Q215.9219,335.2656 216.2813,335.4844 Z " fill="#000000"/><text fill="#000000" font-family="sans-serif" font-size="11" lengthAdjust="spacing" textLength="79" x="232.25" y="342.7197">EncryptionPolicy</text><line style="stroke:#181818;stroke-width:0.5;" x1="173" x2="343" y1="352.2188" y2="352.2188"/><text fill="#000000" font-family="sans-serif" font-size="11" lengthAdjust="spacing" textLength="41" x="178" y="367.6377">-id: UUID</text><text fill="#000000" font-family="sans-serif" font-size="11" lengthAdjust="spacing" textLength="68" x="178" y="381.4736">-assetId: UUID</text><text fill="#000000" font-family="sans-serif" font-size="11" lengthAdjust="spacing" textLength="113" x="178" y="395.3096">-encryptionType: String</text><text fill="#000000" font-family="sans-serif" font-size="11" lengthAdjust="spacing" textLength="58" x="178" y="409.1455">-keyId: UUID</text><text fill="#000000" font-family="sans-serif" font-size="11" lengthAdjust="spacing" textLength="95" x="178" y="422.9814">-isEnabled: Boolean</text><line style="stroke:#181818;stroke-width:0.5;" x1="173" x2="343" y1="429.3984" y2="429.3984"/><text fill="#000000" font-family="sans-serif" font-size="11" lengthAdjust="spacing" textLength="160" x="178" y="444.8174">+encrypt(data: DataSet): DataSet</text><text fill="#000000" font-family="sans-serif" font-size="11" lengthAdjust="spacing" textLength="160" x="178" y="458.6533">+decrypt(data: DataSet): DataSet</text><text fill="#000000" font-family="sans-serif" font-size="11" lengthAdjust="spacing" textLength="87" x="178" y="472.4893">+rotateKey(): void</text></g><!--link User to Role--><g id="link_User_Role"><path codeLine="81" d="M493,264.3388 C493,291.0388 493,320.4188 493,345.1288 " fill="none" id="User-Role" style="stroke:#181818;stroke-width:1.0;"/><polygon fill="#000000" points="466,301.6467,468.3511,294.4107,463.6489,294.4107,466,301.6467" style="stroke:#000000;stroke-width:1.0;"/><text fill="#000000" font-family="sans-serif" font-size="11" lengthAdjust="spacing" textLength="18" x="474" y="302.1477">has</text><text fill="#000000" font-family="sans-serif" font-size="11" lengthAdjust="spacing" textLength="16" x="476.2875" y="283.3008">0..*</text><text fill="#000000" font-family="sans-serif" font-size="11" lengthAdjust="spacing" textLength="16" x="475.875" y="334.7218">0..*</text></g><!--link Role to Permission--><g id="link_Role_Permission"><path codeLine="82" d="M379.19,402.2188 C363.15,402.2188 352,402.2188 352,402.2188 C352,402.2188 352,480.2988 352,539.0088 " fill="none" id="Role-Permission" style="stroke:#181818;stroke-width:1.0;"/><polygon fill="#000000" points="355.2202,468.86,358.9369,462.2211,354.3249,461.3044,355.2202,468.86" style="stroke:#000000;stroke-width:1.0;"/><text fill="#000000" font-family="sans-serif" font-size="11" lengthAdjust="spacing" textLength="31" x="364" y="469.4377">grants</text><text fill="#000000" font-family="sans-serif" font-size="11" lengthAdjust="spacing" textLength="16" x="355.3865" y="400.2743">0..*</text><text fill="#000000" font-family="sans-serif" font-size="11" lengthAdjust="spacing" textLength="16" x="342.3375" y="528.9208">0..*</text></g><!--link AccessControl to Permission--><g id="link_AccessControl_Permission"><path codeLine="83" d="M80,472.4788 C80,530.5387 80,603.2188 80,603.2188 C80,603.2188 161.78,603.2188 223.75,603.2188 " fill="none" id="AccessControl-Permission" style="stroke:#181818;stroke-width:1.0;"/><polygon fill="#000000" points="36.4692,598.8281,32.6979,592.22,29.5341,595.6987,36.4692,598.8281" style="stroke:#000000;stroke-width:1.0;"/><text fill="#000000" font-family="sans-serif" font-size="11" lengthAdjust="spacing" textLength="44" x="41.51" y="600.6377">enforces</text><text fill="#000000" font-family="sans-serif" font-size="11" lengthAdjust="spacing" textLength="16" x="63.2125" y="491.5514">0..*</text><text fill="#000000" font-family="sans-serif" font-size="11" lengthAdjust="spacing" textLength="16" x="199.8867" y="601.0612">1..*</text></g><!--link DataSensitivity to EncryptionPolicy--><g id="link_DataSensitivity_EncryptionPolicy"><path codeLine="84" d="M258,257.4188 C258,278.7088 258,302.1988 258,323.9288 " fill="none" id="DataSensitivity-EncryptionPolicy" style="stroke:#181818;stroke-width:1.0;"/><polygon fill="#000000" points="188,287.5867,190.3511,280.3507,185.6489,280.3507,188,287.5867" style="stroke:#000000;stroke-width:1.0;"/><text fill="#000000" font-family="sans-serif" font-size="11" lengthAdjust="spacing" textLength="61" x="196" y="288.0877">protected by</text><text fill="#000000" font-family="sans-serif" font-size="11" lengthAdjust="spacing" textLength="16" x="241.2125" y="276.4855">0..*</text><text fill="#000000" font-family="sans-serif" font-size="11" lengthAdjust="spacing" textLength="18" x="239.0719" y="313.7145">0..1</text></g><!--SRC=[dLNDRjim3BxdARZii3H5YkRKmIWAk4aw16tN83-7OHi2nM8S8OvaI78AR-XB3Bll5VS8evK_ftQMe3uODFcHuaTIz3kEKo4H1ftMgDyTVXctdXwU-l3-xkFjRVkoKZ5p8MEcsG9Y5inPY0ERHWWQ0yja664EO6QCgsSXGvYooEGj4t8DjKeaRwb8QNYU2PktKmuiYUoTadOWVY0qcpbZHEdPD4PGsivKpX14p1ZVMYqcYSLkeAHpfgIji9HZlTvM2oOaN7dGPfR108D42vl28rhMU5GSethzcwnKrjIW-lVFxr_GzeV-jXvLO0Pwzv_66mLSNxUlRcvU5-nd1UXnBvSNZ0pgjJPx6Y2u1wDHjvrJ9OIHR84U38Y537CcfCoZ4hqmVc35abnkbOgGoPoDphKFAXJIySMXME3MEXvlnNDWYPsXj28WL2scR9-Lvfl3pegXpo54soUTgP4r4xv-tpVsK2-4CK991zbzhe4lhykJ1JbM7asOp-NbuMW2BM9B9nIiUrHFo6q5d36pizJYhNYWB0L2E-TZj7Qn3v3JQ5IYWp8J2qwWh9cqjMosF3U5bFbI2Pv3Q5ogEHw059XbTsU0qWYQk-ps7A57BcYxHRtPXNZ09PODjpjFJBEvFCfoZKspbhRs_7AW1JFp6gVylJKBUxQLSZ2KWKvZ-rzaeIn-4A0nBTfPDATlBKhMWX8rSx67jFLAgkJwYzotnwxvkit5_hE42vlf_Kpe48Eqd6DdLHWgQaz58dXpxt4Rvm2dEQObRi9q99j4o8ihQO_eAVrR8JcUYjJAKd7lCQqTk1mVe8-H6pZZljt2hrvUNDIhq6Xi9BVdl6oxm8s3EKK1bjiUtgh16_p-cEKScqL7b5D5UsFZ-lhYxf_Qh1RRwq5ClEdVZXmcAOLvgVm3]--></g></svg>