<?xml version="1.0" encoding="us-ascii" standalone="no"?><svg xmlns="http://www.w3.org/2000/svg" xmlns:xlink="http://www.w3.org/1999/xlink" contentStyleType="text/css" height="833px" preserveAspectRatio="none" style="width:925px;height:833px;background:#FFFFFF;" version="1.1" viewBox="0 0 925 833" width="925px" zoomAndPan="magnify"><defs/><g><text fill="#000000" font-family="sans-serif" font-size="14" font-weight="bold" lengthAdjust="spacing" textLength="282" x="314.5" y="24.5332">Domain 8: Data Governance Meta-Model</text><text fill="#000000" font-family="sans-serif" font-size="14" font-weight="bold" lengthAdjust="spacing" textLength="4" x="453.5" y="42.1426">&#160;</text><!--cluster PKG_GOVERNANCE--><g id="cluster_PKG_GOVERNANCE"><rect fill="#E1BEE7" height="764" rx="2.5" ry="2.5" style="stroke:#000000;stroke-width:1.5;" width="912" x="7" y="63.2188"/><text fill="#000000" font-family="sans-serif" font-size="11" font-style="italic" lengthAdjust="spacing" textLength="26" x="450" y="76.6377">&#171;D8&#187;</text><text fill="#000000" font-family="sans-serif" font-size="11" font-weight="bold" lengthAdjust="spacing" textLength="128" x="399" y="90.4736">&#9878;&#65039; DATA GOVERNANCE</text></g><!--class DataOwner--><g id="elem_DataOwner"><rect codeLine="15" fill="#F1F1F1" height="140.8516" id="DataOwner" rx="2.5" ry="2.5" style="stroke:#181818;stroke-width:0.5;" width="270" x="376" y="109.2188"/><ellipse cx="479.25" cy="123.2188" fill="#ADD1B2" rx="9" ry="9" style="stroke:#181818;stroke-width:1.0;"/><path d="M480.7813,120.4844 Q480.875,120.3438 481,120.2734 Q481.125,120.2031 481.2656,120.2031 Q481.5,120.2031 481.6563,120.375 Q481.8125,120.5469 481.8125,120.9375 L481.8125,121.875 Q481.8125,122.2656 481.6563,122.4375 Q481.5,122.6094 481.2656,122.6094 Q481.0469,122.6094 480.9063,122.4844 Q480.7656,122.3594 480.7031,122.0313 Q480.6719,121.7969 480.5625,121.6719 Q480.3438,121.4375 479.9453,121.2891 Q479.5469,121.1406 479.1563,121.1406 Q478.6563,121.1406 478.2422,121.3594 Q477.8281,121.5781 477.5078,122.0625 Q477.1875,122.5469 477.1875,123.2031 L477.1875,123.9219 Q477.1875,124.7188 477.7656,125.25 Q478.3438,125.7813 479.375,125.7813 Q479.9844,125.7813 480.4063,125.6094 Q480.6563,125.5156 480.9375,125.2344 Q481.1094,125.0625 481.2031,125.0078 Q481.2969,124.9531 481.4219,124.9531 Q481.6406,124.9531 481.8125,125.125 Q481.9844,125.2969 481.9844,125.5156 Q481.9844,125.7344 481.75,126 Q481.4219,126.375 480.9063,126.5938 Q480.2188,126.875 479.375,126.875 Q478.4063,126.875 477.625,126.4844 Q476.9844,126.1563 476.5391,125.4609 Q476.0938,124.7656 476.0938,123.9375 L476.0938,123.1875 Q476.0938,122.3281 476.4922,121.5859 Q476.8906,120.8438 477.6016,120.4453 Q478.3125,120.0469 479.1094,120.0469 Q479.5781,120.0469 480,120.1563 Q480.4219,120.2656 480.7813,120.4844 Z " fill="#000000"/><text fill="#000000" font-family="sans-serif" font-size="11" lengthAdjust="spacing" textLength="56" x="496.75" y="127.7197">DataOwner</text><line style="stroke:#181818;stroke-width:0.5;" x1="377" x2="645" y1="137.2188" y2="137.2188"/><text fill="#000000" font-family="sans-serif" font-size="11" lengthAdjust="spacing" textLength="41" x="382" y="152.6377">-id: UUID</text><text fill="#000000" font-family="sans-serif" font-size="11" lengthAdjust="spacing" textLength="64" x="382" y="166.4736">-name: String</text><text fill="#000000" font-family="sans-serif" font-size="11" lengthAdjust="spacing" textLength="92" x="382" y="180.3096">-department: String</text><text fill="#000000" font-family="sans-serif" font-size="11" lengthAdjust="spacing" textLength="98" x="382" y="194.1455">-contactEmail: String</text><line style="stroke:#181818;stroke-width:0.5;" x1="377" x2="645" y1="200.5625" y2="200.5625"/><text fill="#000000" font-family="sans-serif" font-size="11" lengthAdjust="spacing" textLength="258" x="382" y="215.9814">+approveAccess(request: AccessRequest): Boolean</text><text fill="#000000" font-family="sans-serif" font-size="11" lengthAdjust="spacing" textLength="225" x="382" y="229.8174">+assignSteward(steward: DataSteward): void</text><text fill="#000000" font-family="sans-serif" font-size="11" lengthAdjust="spacing" textLength="163" x="382" y="243.6533">+getOwnedAssets(): DataAsset[]</text></g><!--class DataSteward--><g id="elem_DataSteward"><rect codeLine="26" fill="#F1F1F1" height="127.0156" id="DataSteward" rx="2.5" ry="2.5" style="stroke:#181818;stroke-width:0.5;" width="248" x="307" y="310.2188"/><ellipse cx="395.25" cy="324.2188" fill="#ADD1B2" rx="9" ry="9" style="stroke:#181818;stroke-width:1.0;"/><path d="M396.7813,321.4844 Q396.875,321.3438 397,321.2734 Q397.125,321.2031 397.2656,321.2031 Q397.5,321.2031 397.6563,321.375 Q397.8125,321.5469 397.8125,321.9375 L397.8125,322.875 Q397.8125,323.2656 397.6563,323.4375 Q397.5,323.6094 397.2656,323.6094 Q397.0469,323.6094 396.9063,323.4844 Q396.7656,323.3594 396.7031,323.0313 Q396.6719,322.7969 396.5625,322.6719 Q396.3438,322.4375 395.9453,322.2891 Q395.5469,322.1406 395.1563,322.1406 Q394.6563,322.1406 394.2422,322.3594 Q393.8281,322.5781 393.5078,323.0625 Q393.1875,323.5469 393.1875,324.2031 L393.1875,324.9219 Q393.1875,325.7188 393.7656,326.25 Q394.3438,326.7813 395.375,326.7813 Q395.9844,326.7813 396.4063,326.6094 Q396.6563,326.5156 396.9375,326.2344 Q397.1094,326.0625 397.2031,326.0078 Q397.2969,325.9531 397.4219,325.9531 Q397.6406,325.9531 397.8125,326.125 Q397.9844,326.2969 397.9844,326.5156 Q397.9844,326.7344 397.75,327 Q397.4219,327.375 396.9063,327.5938 Q396.2188,327.875 395.375,327.875 Q394.4063,327.875 393.625,327.4844 Q392.9844,327.1563 392.5391,326.4609 Q392.0938,325.7656 392.0938,324.9375 L392.0938,324.1875 Q392.0938,323.3281 392.4922,322.5859 Q392.8906,321.8438 393.6016,321.4453 Q394.3125,321.0469 395.1094,321.0469 Q395.5781,321.0469 396,321.1563 Q396.4219,321.2656 396.7813,321.4844 Z " fill="#000000"/><text fill="#000000" font-family="sans-serif" font-size="11" lengthAdjust="spacing" textLength="64" x="412.75" y="328.7197">DataSteward</text><line style="stroke:#181818;stroke-width:0.5;" x1="308" x2="554" y1="338.2188" y2="338.2188"/><text fill="#000000" font-family="sans-serif" font-size="11" lengthAdjust="spacing" textLength="41" x="313" y="353.6377">-id: UUID</text><text fill="#000000" font-family="sans-serif" font-size="11" lengthAdjust="spacing" textLength="64" x="313" y="367.4736">-name: String</text><text fill="#000000" font-family="sans-serif" font-size="11" lengthAdjust="spacing" textLength="118" x="313" y="381.3096">-expertiseDomain: String</text><line style="stroke:#181818;stroke-width:0.5;" x1="308" x2="554" y1="387.7266" y2="387.7266"/><text fill="#000000" font-family="sans-serif" font-size="11" lengthAdjust="spacing" textLength="184" x="313" y="403.1455">+certifyAsset(asset: DataAsset): void</text><text fill="#000000" font-family="sans-serif" font-size="11" lengthAdjust="spacing" textLength="236" x="313" y="416.9814">+reviewQuality(asset: DataAsset): QualityReport</text><text fill="#000000" font-family="sans-serif" font-size="11" lengthAdjust="spacing" textLength="181" x="313" y="430.8174">+getStewardedAssets(): DataAsset[]</text></g><!--class DataPolicy--><g id="elem_DataPolicy"><rect codeLine="36" fill="#F1F1F1" height="140.8516" id="DataPolicy" rx="2.5" ry="2.5" style="stroke:#181818;stroke-width:0.5;" width="218" x="402" y="497.2188"/><ellipse cx="480.75" cy="511.2188" fill="#A9DCDF" rx="9" ry="9" style="stroke:#181818;stroke-width:1.0;"/><path d="M481.8906,512.9531 L479.2188,512.9531 L478.9531,513.625 L479.2188,513.625 Q479.625,513.625 479.7891,513.7734 Q479.9531,513.9219 479.9531,514.1719 Q479.9531,514.4063 479.7891,514.5625 Q479.625,514.7188 479.2188,514.7188 L477.7344,514.7188 Q477.3438,514.7188 477.1719,514.5625 Q477,514.4063 477,514.1719 Q477,513.9219 477.1797,513.7656 Q477.3594,513.6094 477.7656,513.625 L479.5,509.3125 L478.7813,509.3125 Q478.375,509.3125 478.2109,509.1563 Q478.0469,509 478.0469,508.75 Q478.0469,508.5156 478.2109,508.3594 Q478.375,508.2031 478.7813,508.2031 L481.1563,508.2031 L483.3438,513.625 Q483.7344,513.625 483.8594,513.7031 Q484.1094,513.875 484.1094,514.1719 Q484.1094,514.4063 483.9375,514.5625 Q483.7656,514.7188 483.375,514.7188 L481.8906,514.7188 Q481.5,514.7188 481.3281,514.5625 Q481.1563,514.4063 481.1563,514.1719 Q481.1563,513.9219 481.3281,513.7734 Q481.5,513.625 481.8906,513.625 L482.1563,513.625 L481.8906,512.9531 Z M481.4375,511.8438 L480.5469,509.6719 L479.6563,511.8438 L481.4375,511.8438 Z " fill="#000000"/><text fill="#000000" font-family="sans-serif" font-size="11" font-style="italic" lengthAdjust="spacing" textLength="53" x="498.25" y="515.7197">DataPolicy</text><line style="stroke:#181818;stroke-width:0.5;" x1="403" x2="619" y1="525.2188" y2="525.2188"/><text fill="#000000" font-family="sans-serif" font-size="11" lengthAdjust="spacing" textLength="41" x="408" y="540.6377">-id: UUID</text><text fill="#000000" font-family="sans-serif" font-size="11" lengthAdjust="spacing" textLength="93" x="408" y="554.4736">-policyName: String</text><text fill="#000000" font-family="sans-serif" font-size="11" lengthAdjust="spacing" textLength="90" x="408" y="568.3096">-policyType: String</text><text fill="#000000" font-family="sans-serif" font-size="11" lengthAdjust="spacing" textLength="88" x="408" y="582.1455">-isActive: Boolean</text><line style="stroke:#181818;stroke-width:0.5;" x1="403" x2="619" y1="588.5625" y2="588.5625"/><text fill="#000000" font-family="sans-serif" font-size="11" font-style="italic" lengthAdjust="spacing" textLength="151" x="408" y="603.9814">+enforce(): EnforcementResult</text><text fill="#000000" font-family="sans-serif" font-size="11" font-style="italic" lengthAdjust="spacing" textLength="206" x="408" y="617.8174">+isApplicable(asset: DataAsset): Boolean</text><text fill="#000000" font-family="sans-serif" font-size="11" lengthAdjust="spacing" textLength="96" x="408" y="631.6533">+validate(): Boolean</text></g><!--class UsagePolicy--><g id="elem_UsagePolicy"><rect codeLine="47" fill="#F1F1F1" height="99.3438" id="UsagePolicy" rx="2.5" ry="2.5" style="stroke:#181818;stroke-width:0.5;" width="213" x="23.5" y="705.2188"/><ellipse cx="96.75" cy="719.2188" fill="#ADD1B2" rx="9" ry="9" style="stroke:#181818;stroke-width:1.0;"/><path d="M98.2813,716.4844 Q98.375,716.3438 98.5,716.2734 Q98.625,716.2031 98.7656,716.2031 Q99,716.2031 99.1563,716.375 Q99.3125,716.5469 99.3125,716.9375 L99.3125,717.875 Q99.3125,718.2656 99.1563,718.4375 Q99,718.6094 98.7656,718.6094 Q98.5469,718.6094 98.4063,718.4844 Q98.2656,718.3594 98.2031,718.0313 Q98.1719,717.7969 98.0625,717.6719 Q97.8438,717.4375 97.4453,717.2891 Q97.0469,717.1406 96.6563,717.1406 Q96.1563,717.1406 95.7422,717.3594 Q95.3281,717.5781 95.0078,718.0625 Q94.6875,718.5469 94.6875,719.2031 L94.6875,719.9219 Q94.6875,720.7188 95.2656,721.25 Q95.8438,721.7813 96.875,721.7813 Q97.4844,721.7813 97.9063,721.6094 Q98.1563,721.5156 98.4375,721.2344 Q98.6094,721.0625 98.7031,721.0078 Q98.7969,720.9531 98.9219,720.9531 Q99.1406,720.9531 99.3125,721.125 Q99.4844,721.2969 99.4844,721.5156 Q99.4844,721.7344 99.25,722 Q98.9219,722.375 98.4063,722.5938 Q97.7188,722.875 96.875,722.875 Q95.9063,722.875 95.125,722.4844 Q94.4844,722.1563 94.0391,721.4609 Q93.5938,720.7656 93.5938,719.9375 L93.5938,719.1875 Q93.5938,718.3281 93.9922,717.5859 Q94.3906,716.8438 95.1016,716.4453 Q95.8125,716.0469 96.6094,716.0469 Q97.0781,716.0469 97.5,716.1563 Q97.9219,716.2656 98.2813,716.4844 Z " fill="#000000"/><text fill="#000000" font-family="sans-serif" font-size="11" lengthAdjust="spacing" textLength="59" x="114.25" y="723.7197">UsagePolicy</text><line style="stroke:#181818;stroke-width:0.5;" x1="24.5" x2="235.5" y1="733.2188" y2="733.2188"/><text fill="#000000" font-family="sans-serif" font-size="11" lengthAdjust="spacing" textLength="133" x="29.5" y="748.6377">-requiresApproval: Boolean</text><line style="stroke:#181818;stroke-width:0.5;" x1="24.5" x2="235.5" y1="755.0547" y2="755.0547"/><text fill="#000000" font-family="sans-serif" font-size="11" lengthAdjust="spacing" textLength="149" x="29.5" y="770.4736">+enforce(): EnforcementResult</text><text fill="#000000" font-family="sans-serif" font-size="11" lengthAdjust="spacing" textLength="201" x="29.5" y="784.3096">+isApplicable(asset: DataAsset): Boolean</text><text fill="#000000" font-family="sans-serif" font-size="11" lengthAdjust="spacing" textLength="186" x="29.5" y="798.1455">+canUseFor(purpose: String): Boolean</text></g><!--class RetentionPolicy--><g id="elem_RetentionPolicy"><rect codeLine="55" fill="#F1F1F1" height="113.1797" id="RetentionPolicy" rx="2.5" ry="2.5" style="stroke:#181818;stroke-width:0.5;" width="225" x="271.5" y="698.2188"/><ellipse cx="343.75" cy="712.2188" fill="#ADD1B2" rx="9" ry="9" style="stroke:#181818;stroke-width:1.0;"/><path d="M345.2813,709.4844 Q345.375,709.3438 345.5,709.2734 Q345.625,709.2031 345.7656,709.2031 Q346,709.2031 346.1563,709.375 Q346.3125,709.5469 346.3125,709.9375 L346.3125,710.875 Q346.3125,711.2656 346.1563,711.4375 Q346,711.6094 345.7656,711.6094 Q345.5469,711.6094 345.4063,711.4844 Q345.2656,711.3594 345.2031,711.0313 Q345.1719,710.7969 345.0625,710.6719 Q344.8438,710.4375 344.4453,710.2891 Q344.0469,710.1406 343.6563,710.1406 Q343.1563,710.1406 342.7422,710.3594 Q342.3281,710.5781 342.0078,711.0625 Q341.6875,711.5469 341.6875,712.2031 L341.6875,712.9219 Q341.6875,713.7188 342.2656,714.25 Q342.8438,714.7813 343.875,714.7813 Q344.4844,714.7813 344.9063,714.6094 Q345.1563,714.5156 345.4375,714.2344 Q345.6094,714.0625 345.7031,714.0078 Q345.7969,713.9531 345.9219,713.9531 Q346.1406,713.9531 346.3125,714.125 Q346.4844,714.2969 346.4844,714.5156 Q346.4844,714.7344 346.25,715 Q345.9219,715.375 345.4063,715.5938 Q344.7188,715.875 343.875,715.875 Q342.9063,715.875 342.125,715.4844 Q341.4844,715.1563 341.0391,714.4609 Q340.5938,713.7656 340.5938,712.9375 L340.5938,712.1875 Q340.5938,711.3281 340.9922,710.5859 Q341.3906,709.8438 342.1016,709.4453 Q342.8125,709.0469 343.6094,709.0469 Q344.0781,709.0469 344.5,709.1563 Q344.9219,709.2656 345.2813,709.4844 Z " fill="#000000"/><text fill="#000000" font-family="sans-serif" font-size="11" lengthAdjust="spacing" textLength="73" x="361.25" y="716.7197">RetentionPolicy</text><line style="stroke:#181818;stroke-width:0.5;" x1="272.5" x2="495.5" y1="726.2188" y2="726.2188"/><text fill="#000000" font-family="sans-serif" font-size="11" lengthAdjust="spacing" textLength="122" x="277.5" y="741.6377">-retentionPeriod: Duration</text><text fill="#000000" font-family="sans-serif" font-size="11" lengthAdjust="spacing" textLength="111" x="277.5" y="755.4736">-archiveAfter: Duration</text><line style="stroke:#181818;stroke-width:0.5;" x1="272.5" x2="495.5" y1="761.8906" y2="761.8906"/><text fill="#000000" font-family="sans-serif" font-size="11" lengthAdjust="spacing" textLength="149" x="277.5" y="777.3096">+enforce(): EnforcementResult</text><text fill="#000000" font-family="sans-serif" font-size="11" lengthAdjust="spacing" textLength="201" x="277.5" y="791.1455">+isApplicable(asset: DataAsset): Boolean</text><text fill="#000000" font-family="sans-serif" font-size="11" lengthAdjust="spacing" textLength="213" x="277.5" y="804.9814">+shouldArchive(asset: DataAsset): Boolean</text></g><!--class CompliancePolicy--><g id="elem_CompliancePolicy"><rect codeLine="64" fill="#F1F1F1" height="99.3438" id="CompliancePolicy" rx="2.5" ry="2.5" style="stroke:#181818;stroke-width:0.5;" width="213" x="531.5" y="705.2188"/><ellipse cx="592.75" cy="719.2188" fill="#ADD1B2" rx="9" ry="9" style="stroke:#181818;stroke-width:1.0;"/><path d="M594.2813,716.4844 Q594.375,716.3438 594.5,716.2734 Q594.625,716.2031 594.7656,716.2031 Q595,716.2031 595.1563,716.375 Q595.3125,716.5469 595.3125,716.9375 L595.3125,717.875 Q595.3125,718.2656 595.1563,718.4375 Q595,718.6094 594.7656,718.6094 Q594.5469,718.6094 594.4063,718.4844 Q594.2656,718.3594 594.2031,718.0313 Q594.1719,717.7969 594.0625,717.6719 Q593.8438,717.4375 593.4453,717.2891 Q593.0469,717.1406 592.6563,717.1406 Q592.1563,717.1406 591.7422,717.3594 Q591.3281,717.5781 591.0078,718.0625 Q590.6875,718.5469 590.6875,719.2031 L590.6875,719.9219 Q590.6875,720.7188 591.2656,721.25 Q591.8438,721.7813 592.875,721.7813 Q593.4844,721.7813 593.9063,721.6094 Q594.1563,721.5156 594.4375,721.2344 Q594.6094,721.0625 594.7031,721.0078 Q594.7969,720.9531 594.9219,720.9531 Q595.1406,720.9531 595.3125,721.125 Q595.4844,721.2969 595.4844,721.5156 Q595.4844,721.7344 595.25,722 Q594.9219,722.375 594.4063,722.5938 Q593.7188,722.875 592.875,722.875 Q591.9063,722.875 591.125,722.4844 Q590.4844,722.1563 590.0391,721.4609 Q589.5938,720.7656 589.5938,719.9375 L589.5938,719.1875 Q589.5938,718.3281 589.9922,717.5859 Q590.3906,716.8438 591.1016,716.4453 Q591.8125,716.0469 592.6094,716.0469 Q593.0781,716.0469 593.5,716.1563 Q593.9219,716.2656 594.2813,716.4844 Z " fill="#000000"/><text fill="#000000" font-family="sans-serif" font-size="11" lengthAdjust="spacing" textLength="83" x="610.25" y="723.7197">CompliancePolicy</text><line style="stroke:#181818;stroke-width:0.5;" x1="532.5" x2="743.5" y1="733.2188" y2="733.2188"/><text fill="#000000" font-family="sans-serif" font-size="11" lengthAdjust="spacing" textLength="109" x="537.5" y="748.6377">-regulationType: String</text><line style="stroke:#181818;stroke-width:0.5;" x1="532.5" x2="743.5" y1="755.0547" y2="755.0547"/><text fill="#000000" font-family="sans-serif" font-size="11" lengthAdjust="spacing" textLength="149" x="537.5" y="770.4736">+enforce(): EnforcementResult</text><text fill="#000000" font-family="sans-serif" font-size="11" lengthAdjust="spacing" textLength="201" x="537.5" y="784.3096">+isApplicable(asset: DataAsset): Boolean</text><text fill="#000000" font-family="sans-serif" font-size="11" lengthAdjust="spacing" textLength="130" x="537.5" y="798.1455">+audit(): ComplianceReport</text></g><!--class GovernanceMetrics--><g id="elem_GovernanceMetrics"><rect fill="#F1F1F1" height="44" id="GovernanceMetrics" rx="2.5" ry="2.5" style="stroke:#181818;stroke-width:0.5;" width="123" x="779.5" y="732.7188"/><ellipse cx="792.5" cy="746.7188" fill="#ADD1B2" rx="9" ry="9" style="stroke:#181818;stroke-width:1.0;"/><path d="M794.0313,743.9844 Q794.125,743.8438 794.25,743.7734 Q794.375,743.7031 794.5156,743.7031 Q794.75,743.7031 794.9063,743.875 Q795.0625,744.0469 795.0625,744.4375 L795.0625,745.375 Q795.0625,745.7656 794.9063,745.9375 Q794.75,746.1094 794.5156,746.1094 Q794.2969,746.1094 794.1563,745.9844 Q794.0156,745.8594 793.9531,745.5313 Q793.9219,745.2969 793.8125,745.1719 Q793.5938,744.9375 793.1953,744.7891 Q792.7969,744.6406 792.4063,744.6406 Q791.9063,744.6406 791.4922,744.8594 Q791.0781,745.0781 790.7578,745.5625 Q790.4375,746.0469 790.4375,746.7031 L790.4375,747.4219 Q790.4375,748.2188 791.0156,748.75 Q791.5938,749.2813 792.625,749.2813 Q793.2344,749.2813 793.6563,749.1094 Q793.9063,749.0156 794.1875,748.7344 Q794.3594,748.5625 794.4531,748.5078 Q794.5469,748.4531 794.6719,748.4531 Q794.8906,748.4531 795.0625,748.625 Q795.2344,748.7969 795.2344,749.0156 Q795.2344,749.2344 795,749.5 Q794.6719,749.875 794.1563,750.0938 Q793.4688,750.375 792.625,750.375 Q791.6563,750.375 790.875,749.9844 Q790.2344,749.6563 789.7891,748.9609 Q789.3438,748.2656 789.3438,747.4375 L789.3438,746.6875 Q789.3438,745.8281 789.7422,745.0859 Q790.1406,744.3438 790.8516,743.9453 Q791.5625,743.5469 792.3594,743.5469 Q792.8281,743.5469 793.25,743.6563 Q793.6719,743.7656 794.0313,743.9844 Z " fill="#000000"/><text fill="#000000" font-family="sans-serif" font-size="11" lengthAdjust="spacing" textLength="95" x="804.5" y="751.2197">GovernanceMetrics</text><line style="stroke:#181818;stroke-width:0.5;" x1="780.5" x2="901.5" y1="760.7188" y2="760.7188"/><line style="stroke:#181818;stroke-width:0.5;" x1="780.5" x2="901.5" y1="768.7188" y2="768.7188"/></g><!--reverse link DataPolicy to UsagePolicy--><g id="link_DataPolicy_UsagePolicy"><path codeLine="73" d="M383.82,568.2188 C271.24,568.2188 130,568.2188 130,568.2188 C130,568.2188 130,649.4988 130,704.7388 " fill="none" id="DataPolicy-backto-UsagePolicy" style="stroke:#181818;stroke-width:1.0;"/><polygon fill="none" points="401.82,568.2188,383.82,562.2188,383.82,574.2188,401.82,568.2188" style="stroke:#181818;stroke-width:1.0;"/></g><!--reverse link DataPolicy to RetentionPolicy--><g id="link_DataPolicy_RetentionPolicy"><path codeLine="74" d="M449.25,656.4188 C449.25,676.1688 449.25,679.3688 449.25,698.1888 " fill="none" id="DataPolicy-backto-RetentionPolicy" style="stroke:#181818;stroke-width:1.0;"/><polygon fill="none" points="449.25,638.4188,443.25,656.4188,455.25,656.4188,449.25,638.4188" style="stroke:#181818;stroke-width:1.0;"/></g><!--reverse link DataPolicy to CompliancePolicy--><g id="link_DataPolicy_CompliancePolicy"><path codeLine="75" d="M575.75,656.4188 C575.75,678.6488 575.75,684.7188 575.75,705.1688 " fill="none" id="DataPolicy-backto-CompliancePolicy" style="stroke:#181818;stroke-width:1.0;"/><polygon fill="none" points="575.75,638.4188,569.75,656.4188,581.75,656.4188,575.75,638.4188" style="stroke:#181818;stroke-width:1.0;"/></g><!--link DataOwner to DataSteward--><g id="link_DataOwner_DataSteward"><path codeLine="77" d="M465.5,250.3088 C465.5,269.8088 465.5,290.8488 465.5,309.9388 " fill="none" id="DataOwner-DataSteward" style="stroke:#181818;stroke-width:1.0;"/><polygon fill="#000000" points="402.5,277.0367,404.8511,269.8007,400.1489,269.8007,402.5,277.0367" style="stroke:#000000;stroke-width:1.0;"/><text fill="#000000" font-family="sans-serif" font-size="11" lengthAdjust="spacing" textLength="54" x="410.5" y="277.5377">supervises</text><text fill="#000000" font-family="sans-serif" font-size="11" lengthAdjust="spacing" textLength="6" x="454.4984" y="269.7284">1</text><text fill="#000000" font-family="sans-serif" font-size="11" lengthAdjust="spacing" textLength="16" x="452.7297" y="299.8423">0..*</text></g><!--link DataOwner to DataPolicy--><g id="link_DataOwner_DataPolicy"><path codeLine="80" d="M587.5,250.4288 C587.5,320.4888 587.5,427.1688 587.5,497.1588 " fill="none" id="DataOwner-DataPolicy" style="stroke:#181818;stroke-width:1.0;"/><polygon fill="#000000" points="591.5,370.7167,593.8511,363.4807,589.1489,363.4807,591.5,370.7167" style="stroke:#000000;stroke-width:1.0;"/><text fill="#000000" font-family="sans-serif" font-size="11" lengthAdjust="spacing" textLength="36" x="599.5" y="371.2177">defines</text><text fill="#000000" font-family="sans-serif" font-size="11" lengthAdjust="spacing" textLength="6" x="588.7352" y="269.4965">1</text><text fill="#000000" font-family="sans-serif" font-size="11" lengthAdjust="spacing" textLength="16" x="579.4203" y="486.7245">0..*</text></g><!--link DataSteward to DataPolicy--><g id="link_DataSteward_DataPolicy"><path codeLine="81" d="M478.5,437.2388 C478.5,456.3588 478.5,477.4588 478.5,497.0088 " fill="none" id="DataSteward-DataPolicy" style="stroke:#181818;stroke-width:1.0;"/><polygon fill="#000000" points="425.5,464.0467,427.8511,456.8107,423.1489,456.8107,425.5,464.0467" style="stroke:#000000;stroke-width:1.0;"/><text fill="#000000" font-family="sans-serif" font-size="11" lengthAdjust="spacing" textLength="44" x="433.5" y="464.5477">enforces</text><text fill="#000000" font-family="sans-serif" font-size="11" lengthAdjust="spacing" textLength="16" x="467.0672" y="456.8012">0..*</text><text fill="#000000" font-family="sans-serif" font-size="11" lengthAdjust="spacing" textLength="16" x="458.0703" y="487.0367">0..*</text></g><!--link DataPolicy to GovernanceMetrics--><g id="link_DataPolicy_GovernanceMetrics"><path codeLine="84" d="M620.43,568.2188 C716.49,568.2188 841,568.2188 841,568.2188 C841,568.2188 841,683.1888 841,732.5888 " fill="none" id="DataPolicy-GovernanceMetrics" style="stroke:#181818;stroke-width:1.0;"/><polygon fill="#000000" points="744.1074,563.5269,739.7101,557.3178,736.9003,561.0883,744.1074,563.5269" style="stroke:#000000;stroke-width:1.0;"/><text fill="#000000" font-family="sans-serif" font-size="11" lengthAdjust="spacing" textLength="63" x="748.9" y="565.6377">measured by</text><text fill="#000000" font-family="sans-serif" font-size="11" lengthAdjust="spacing" textLength="16" x="627.9529" y="566.2849">0..*</text><text fill="#000000" font-family="sans-serif" font-size="11" lengthAdjust="spacing" textLength="16" x="822.55" y="722.3678">0..*</text></g><!--SRC=[lLRDSjCm4BxxAKGua8P9fpdHoNGwuoPkfmCanMcu09DHx4sYgI8PIKuQIf-16mVUe6_0lM_22_0Ah7_QgBLA2eVcu5ZQNUttVRkIzIo62HD0ZlhlWx3dzph1gDD_qm_9yw1r40IlF4-VCP5GHUSaeT4PdSB0h3WG1P6XOih1Sj0p6iib4rCoeLpRbZ66JfLCHToHN2god35Zsn45JRavbC8Cs1SWhPPbv0ZGh18WKfcPj0mHfrhxnYWsJWqSHrBamJkUPvX1Z8r6Lyuf4sItJRhKK78a5w045H6Gjs1eywsCWJSQ7uNdbUH8xTUFxxz_VYDT_zItLAaHgid9wwFHUehixNLtz_Uhqbru17_v8qUOv-ul1QZIbFsQXCLjCXmUTwqfGUVG9WCa9ARMT0p8ryn168SHMHiQcG29yefvDBfzVKbeaYWKm8yYqBgku7CA6bSinc4nt6gJ0oavK647QiscOc1WILLSryL_8MavYM4BoM8hPWecenpxMeFHzQt2FHzz-9JxNRfaAjVxJw7WF05bc8QYxd-N8yfS9wiSKfrcJmjZbP221OFbkvHoPbOk_z8KGe9zUbU9ajKZrQ1ZRHIMr9BbH78MhJQfakHUFRSsXV4Kzv73oBGV6RQ0QlNlI7Pn0-sIW9X85K569IXUi_uCGUCsTaTWZYH137JCmQLVjUyMA6XCJPx4jbOwPwXnwpeqodgSASWIO-TJle7U8pdzEv68Yg66GwdgIQeIgMzBi8bO20OHC2cSv6vie9ZCzcEgQ3QsVAYAPbXMVs90EHoUXhsUoPJ7VW5bKqX5WewSOxhip7PgC4rvpidPs4_3ZwOnCzcoQwZM8M0HUe7rBD3gV6pjxBslpQRTnaxxlMvm-joNQvrz_HMgjMe4NMixszkDsfrZjqrqYaVe0ezGJVQToF4WILNsrH5u0y35E7h6a9wJxFkUuA3UwOTXq3azxlUsDYOkeRT9SG-vIMfZAhqVY2kh-W3Q0cmcchc-mj9AVdq5ReJbYfLiwpi3NXaKYpGcdGFLgOAOZ5UOzzBp_W00]--></g></svg>