<?xml version="1.0" encoding="us-ascii" standalone="no"?><svg xmlns="http://www.w3.org/2000/svg" xmlns:xlink="http://www.w3.org/1999/xlink" contentStyleType="text/css" height="674px" preserveAspectRatio="none" style="width:559px;height:674px;background:#FFFFFF;" version="1.1" viewBox="0 0 559 674" width="559px" zoomAndPan="magnify"><defs/><g><text fill="#000000" font-family="sans-serif" font-size="14" font-weight="bold" lengthAdjust="spacing" textLength="251" x="147" y="24.5332">Domain 9: Data Lineage Meta-Model</text><text fill="#000000" font-family="sans-serif" font-size="14" font-weight="bold" lengthAdjust="spacing" textLength="4" x="270.5" y="42.1426">&#160;</text><!--cluster PKG_LINEAGE--><g id="cluster_PKG_LINEAGE"><rect fill="#B2EBF2" height="605" rx="2.5" ry="2.5" style="stroke:#000000;stroke-width:1.5;" width="546" x="7" y="63.2188"/><text fill="#000000" font-family="sans-serif" font-size="11" font-style="italic" lengthAdjust="spacing" textLength="26" x="267" y="76.6377">&#171;D9&#187;</text><text fill="#000000" font-family="sans-serif" font-size="11" font-weight="bold" lengthAdjust="spacing" textLength="93" x="233.5" y="90.4736">&#128260; DATA LINEAGE</text></g><!--class DataLineage--><g id="elem_DataLineage"><rect codeLine="15" fill="#F1F1F1" height="154.6875" id="DataLineage" rx="2.5" ry="2.5" style="stroke:#181818;stroke-width:0.5;" width="232" x="215" y="109.2188"/><ellipse cx="297.25" cy="123.2188" fill="#ADD1B2" rx="9" ry="9" style="stroke:#181818;stroke-width:1.0;"/><path d="M298.7813,120.4844 Q298.875,120.3438 299,120.2734 Q299.125,120.2031 299.2656,120.2031 Q299.5,120.2031 299.6563,120.375 Q299.8125,120.5469 299.8125,120.9375 L299.8125,121.875 Q299.8125,122.2656 299.6563,122.4375 Q299.5,122.6094 299.2656,122.6094 Q299.0469,122.6094 298.9063,122.4844 Q298.7656,122.3594 298.7031,122.0313 Q298.6719,121.7969 298.5625,121.6719 Q298.3438,121.4375 297.9453,121.2891 Q297.5469,121.1406 297.1563,121.1406 Q296.6563,121.1406 296.2422,121.3594 Q295.8281,121.5781 295.5078,122.0625 Q295.1875,122.5469 295.1875,123.2031 L295.1875,123.9219 Q295.1875,124.7188 295.7656,125.25 Q296.3438,125.7813 297.375,125.7813 Q297.9844,125.7813 298.4063,125.6094 Q298.6563,125.5156 298.9375,125.2344 Q299.1094,125.0625 299.2031,125.0078 Q299.2969,124.9531 299.4219,124.9531 Q299.6406,124.9531 299.8125,125.125 Q299.9844,125.2969 299.9844,125.5156 Q299.9844,125.7344 299.75,126 Q299.4219,126.375 298.9063,126.5938 Q298.2188,126.875 297.375,126.875 Q296.4063,126.875 295.625,126.4844 Q294.9844,126.1563 294.5391,125.4609 Q294.0938,124.7656 294.0938,123.9375 L294.0938,123.1875 Q294.0938,122.3281 294.4922,121.5859 Q294.8906,120.8438 295.6016,120.4453 Q296.3125,120.0469 297.1094,120.0469 Q297.5781,120.0469 298,120.1563 Q298.4219,120.2656 298.7813,120.4844 Z " fill="#000000"/><text fill="#000000" font-family="sans-serif" font-size="11" lengthAdjust="spacing" textLength="60" x="314.75" y="127.7197">DataLineage</text><line style="stroke:#181818;stroke-width:0.5;" x1="216" x2="446" y1="137.2188" y2="137.2188"/><text fill="#000000" font-family="sans-serif" font-size="11" lengthAdjust="spacing" textLength="41" x="221" y="152.6377">-id: UUID</text><text fill="#000000" font-family="sans-serif" font-size="11" lengthAdjust="spacing" textLength="68" x="221" y="166.4736">-assetId: UUID</text><text fill="#000000" font-family="sans-serif" font-size="11" lengthAdjust="spacing" textLength="96" x="221" y="180.3096">-lineageType: String</text><text fill="#000000" font-family="sans-serif" font-size="11" lengthAdjust="spacing" textLength="95" x="221" y="194.1455">-nodeCount: Integer</text><text fill="#000000" font-family="sans-serif" font-size="11" lengthAdjust="spacing" textLength="95" x="221" y="207.9814">-edgeCount: Integer</text><line style="stroke:#181818;stroke-width:0.5;" x1="216" x2="446" y1="214.3984" y2="214.3984"/><text fill="#000000" font-family="sans-serif" font-size="11" lengthAdjust="spacing" textLength="204" x="221" y="229.8174">+getUpstream(depth: Integer): DataAsset[]</text><text fill="#000000" font-family="sans-serif" font-size="11" lengthAdjust="spacing" textLength="220" x="221" y="243.6533">+getDownstream(depth: Integer): DataAsset[]</text><text fill="#000000" font-family="sans-serif" font-size="11" lengthAdjust="spacing" textLength="92" x="221" y="257.4893">+visualize(): Graph</text></g><!--class LineageNode--><g id="elem_LineageNode"><rect codeLine="27" fill="#F1F1F1" height="127.0156" id="LineageNode" rx="2.5" ry="2.5" style="stroke:#181818;stroke-width:0.5;" width="155" x="164.5" y="324.2188"/><ellipse cx="206.75" cy="338.2188" fill="#ADD1B2" rx="9" ry="9" style="stroke:#181818;stroke-width:1.0;"/><path d="M208.2813,335.4844 Q208.375,335.3438 208.5,335.2734 Q208.625,335.2031 208.7656,335.2031 Q209,335.2031 209.1563,335.375 Q209.3125,335.5469 209.3125,335.9375 L209.3125,336.875 Q209.3125,337.2656 209.1563,337.4375 Q209,337.6094 208.7656,337.6094 Q208.5469,337.6094 208.4063,337.4844 Q208.2656,337.3594 208.2031,337.0313 Q208.1719,336.7969 208.0625,336.6719 Q207.8438,336.4375 207.4453,336.2891 Q207.0469,336.1406 206.6563,336.1406 Q206.1563,336.1406 205.7422,336.3594 Q205.3281,336.5781 205.0078,337.0625 Q204.6875,337.5469 204.6875,338.2031 L204.6875,338.9219 Q204.6875,339.7188 205.2656,340.25 Q205.8438,340.7813 206.875,340.7813 Q207.4844,340.7813 207.9063,340.6094 Q208.1563,340.5156 208.4375,340.2344 Q208.6094,340.0625 208.7031,340.0078 Q208.7969,339.9531 208.9219,339.9531 Q209.1406,339.9531 209.3125,340.125 Q209.4844,340.2969 209.4844,340.5156 Q209.4844,340.7344 209.25,341 Q208.9219,341.375 208.4063,341.5938 Q207.7188,341.875 206.875,341.875 Q205.9063,341.875 205.125,341.4844 Q204.4844,341.1563 204.0391,340.4609 Q203.5938,339.7656 203.5938,338.9375 L203.5938,338.1875 Q203.5938,337.3281 203.9922,336.5859 Q204.3906,335.8438 205.1016,335.4453 Q205.8125,335.0469 206.6094,335.0469 Q207.0781,335.0469 207.5,335.1563 Q207.9219,335.2656 208.2813,335.4844 Z " fill="#000000"/><text fill="#000000" font-family="sans-serif" font-size="11" lengthAdjust="spacing" textLength="63" x="224.25" y="342.7197">LineageNode</text><line style="stroke:#181818;stroke-width:0.5;" x1="165.5" x2="318.5" y1="352.2188" y2="352.2188"/><text fill="#000000" font-family="sans-serif" font-size="11" lengthAdjust="spacing" textLength="41" x="170.5" y="367.6377">-id: UUID</text><text fill="#000000" font-family="sans-serif" font-size="11" lengthAdjust="spacing" textLength="68" x="170.5" y="381.4736">-assetId: UUID</text><text fill="#000000" font-family="sans-serif" font-size="11" lengthAdjust="spacing" textLength="65" x="170.5" y="395.3096">-level: Integer</text><text fill="#000000" font-family="sans-serif" font-size="11" lengthAdjust="spacing" textLength="86" x="170.5" y="409.1455">-nodeType: String</text><line style="stroke:#181818;stroke-width:0.5;" x1="165.5" x2="318.5" y1="415.5625" y2="415.5625"/><text fill="#000000" font-family="sans-serif" font-size="11" lengthAdjust="spacing" textLength="141" x="170.5" y="430.9814">+getParents(): LineageNode[]</text><text fill="#000000" font-family="sans-serif" font-size="11" lengthAdjust="spacing" textLength="143" x="170.5" y="444.8174">+getChildren(): LineageNode[]</text></g><!--class LineageEdge--><g id="elem_LineageEdge"><rect codeLine="37" fill="#F1F1F1" height="127.0156" id="LineageEdge" rx="2.5" ry="2.5" style="stroke:#181818;stroke-width:0.5;" width="145" x="23.5" y="518.2188"/><ellipse cx="61.25" cy="532.2188" fill="#ADD1B2" rx="9" ry="9" style="stroke:#181818;stroke-width:1.0;"/><path d="M62.7813,529.4844 Q62.875,529.3438 63,529.2734 Q63.125,529.2031 63.2656,529.2031 Q63.5,529.2031 63.6563,529.375 Q63.8125,529.5469 63.8125,529.9375 L63.8125,530.875 Q63.8125,531.2656 63.6563,531.4375 Q63.5,531.6094 63.2656,531.6094 Q63.0469,531.6094 62.9063,531.4844 Q62.7656,531.3594 62.7031,531.0313 Q62.6719,530.7969 62.5625,530.6719 Q62.3438,530.4375 61.9453,530.2891 Q61.5469,530.1406 61.1563,530.1406 Q60.6563,530.1406 60.2422,530.3594 Q59.8281,530.5781 59.5078,531.0625 Q59.1875,531.5469 59.1875,532.2031 L59.1875,532.9219 Q59.1875,533.7188 59.7656,534.25 Q60.3438,534.7813 61.375,534.7813 Q61.9844,534.7813 62.4063,534.6094 Q62.6563,534.5156 62.9375,534.2344 Q63.1094,534.0625 63.2031,534.0078 Q63.2969,533.9531 63.4219,533.9531 Q63.6406,533.9531 63.8125,534.125 Q63.9844,534.2969 63.9844,534.5156 Q63.9844,534.7344 63.75,535 Q63.4219,535.375 62.9063,535.5938 Q62.2188,535.875 61.375,535.875 Q60.4063,535.875 59.625,535.4844 Q58.9844,535.1563 58.5391,534.4609 Q58.0938,533.7656 58.0938,532.9375 L58.0938,532.1875 Q58.0938,531.3281 58.4922,530.5859 Q58.8906,529.8438 59.6016,529.4453 Q60.3125,529.0469 61.1094,529.0469 Q61.5781,529.0469 62,529.1563 Q62.4219,529.2656 62.7813,529.4844 Z " fill="#000000"/><text fill="#000000" font-family="sans-serif" font-size="11" lengthAdjust="spacing" textLength="62" x="78.75" y="536.7197">LineageEdge</text><line style="stroke:#181818;stroke-width:0.5;" x1="24.5" x2="167.5" y1="546.2188" y2="546.2188"/><text fill="#000000" font-family="sans-serif" font-size="11" lengthAdjust="spacing" textLength="41" x="29.5" y="561.6377">-id: UUID</text><text fill="#000000" font-family="sans-serif" font-size="11" lengthAdjust="spacing" textLength="100" x="29.5" y="575.4736">-sourceNodeId: UUID</text><text fill="#000000" font-family="sans-serif" font-size="11" lengthAdjust="spacing" textLength="94" x="29.5" y="589.3096">-targetNodeId: UUID</text><text fill="#000000" font-family="sans-serif" font-size="11" lengthAdjust="spacing" textLength="97" x="29.5" y="603.1455">-relationType: String</text><line style="stroke:#181818;stroke-width:0.5;" x1="24.5" x2="167.5" y1="609.5625" y2="609.5625"/><text fill="#000000" font-family="sans-serif" font-size="11" lengthAdjust="spacing" textLength="133" x="29.5" y="624.9814">+getSource(): LineageNode</text><text fill="#000000" font-family="sans-serif" font-size="11" lengthAdjust="spacing" textLength="129" x="29.5" y="638.8174">+getTarget(): LineageNode</text></g><!--class VersionHistory--><g id="elem_VersionHistory"><rect codeLine="47" fill="#F1F1F1" height="127.0156" id="VersionHistory" rx="2.5" ry="2.5" style="stroke:#181818;stroke-width:0.5;" width="184" x="204" y="518.2188"/><ellipse cx="256.25" cy="532.2188" fill="#ADD1B2" rx="9" ry="9" style="stroke:#181818;stroke-width:1.0;"/><path d="M257.7813,529.4844 Q257.875,529.3438 258,529.2734 Q258.125,529.2031 258.2656,529.2031 Q258.5,529.2031 258.6563,529.375 Q258.8125,529.5469 258.8125,529.9375 L258.8125,530.875 Q258.8125,531.2656 258.6563,531.4375 Q258.5,531.6094 258.2656,531.6094 Q258.0469,531.6094 257.9063,531.4844 Q257.7656,531.3594 257.7031,531.0313 Q257.6719,530.7969 257.5625,530.6719 Q257.3438,530.4375 256.9453,530.2891 Q256.5469,530.1406 256.1563,530.1406 Q255.6563,530.1406 255.2422,530.3594 Q254.8281,530.5781 254.5078,531.0625 Q254.1875,531.5469 254.1875,532.2031 L254.1875,532.9219 Q254.1875,533.7188 254.7656,534.25 Q255.3438,534.7813 256.375,534.7813 Q256.9844,534.7813 257.4063,534.6094 Q257.6563,534.5156 257.9375,534.2344 Q258.1094,534.0625 258.2031,534.0078 Q258.2969,533.9531 258.4219,533.9531 Q258.6406,533.9531 258.8125,534.125 Q258.9844,534.2969 258.9844,534.5156 Q258.9844,534.7344 258.75,535 Q258.4219,535.375 257.9063,535.5938 Q257.2188,535.875 256.375,535.875 Q255.4063,535.875 254.625,535.4844 Q253.9844,535.1563 253.5391,534.4609 Q253.0938,533.7656 253.0938,532.9375 L253.0938,532.1875 Q253.0938,531.3281 253.4922,530.5859 Q253.8906,529.8438 254.6016,529.4453 Q255.3125,529.0469 256.1094,529.0469 Q256.5781,529.0469 257,529.1563 Q257.4219,529.2656 257.7813,529.4844 Z " fill="#000000"/><text fill="#000000" font-family="sans-serif" font-size="11" lengthAdjust="spacing" textLength="72" x="273.75" y="536.7197">VersionHistory</text><line style="stroke:#181818;stroke-width:0.5;" x1="205" x2="387" y1="546.2188" y2="546.2188"/><text fill="#000000" font-family="sans-serif" font-size="11" lengthAdjust="spacing" textLength="41" x="210" y="561.6377">-id: UUID</text><text fill="#000000" font-family="sans-serif" font-size="11" lengthAdjust="spacing" textLength="68" x="210" y="575.4736">-assetId: UUID</text><text fill="#000000" font-family="sans-serif" font-size="11" lengthAdjust="spacing" textLength="116" x="210" y="589.3096">-versionNumber: Integer</text><text fill="#000000" font-family="sans-serif" font-size="11" lengthAdjust="spacing" textLength="107" x="210" y="603.1455">-changedAt: DateTime</text><line style="stroke:#181818;stroke-width:0.5;" x1="205" x2="387" y1="609.5625" y2="609.5625"/><text fill="#000000" font-family="sans-serif" font-size="11" lengthAdjust="spacing" textLength="172" x="210" y="624.9814">+getDiff(other: VersionHistory): Diff</text><text fill="#000000" font-family="sans-serif" font-size="11" lengthAdjust="spacing" textLength="106" x="210" y="638.8174">+restore(): DataAsset</text></g><!--class AuditLog--><g id="elem_AuditLog"><rect codeLine="57" fill="#F1F1F1" height="140.8516" id="AuditLog" rx="2.5" ry="2.5" style="stroke:#181818;stroke-width:0.5;" width="114" x="423" y="511.2188"/><ellipse cx="455.35" cy="525.2188" fill="#ADD1B2" rx="9" ry="9" style="stroke:#181818;stroke-width:1.0;"/><path d="M456.8813,522.4844 Q456.975,522.3438 457.1,522.2734 Q457.225,522.2031 457.3656,522.2031 Q457.6,522.2031 457.7563,522.375 Q457.9125,522.5469 457.9125,522.9375 L457.9125,523.875 Q457.9125,524.2656 457.7563,524.4375 Q457.6,524.6094 457.3656,524.6094 Q457.1469,524.6094 457.0063,524.4844 Q456.8656,524.3594 456.8031,524.0313 Q456.7719,523.7969 456.6625,523.6719 Q456.4438,523.4375 456.0453,523.2891 Q455.6469,523.1406 455.2563,523.1406 Q454.7563,523.1406 454.3422,523.3594 Q453.9281,523.5781 453.6078,524.0625 Q453.2875,524.5469 453.2875,525.2031 L453.2875,525.9219 Q453.2875,526.7188 453.8656,527.25 Q454.4438,527.7813 455.475,527.7813 Q456.0844,527.7813 456.5063,527.6094 Q456.7563,527.5156 457.0375,527.2344 Q457.2094,527.0625 457.3031,527.0078 Q457.3969,526.9531 457.5219,526.9531 Q457.7406,526.9531 457.9125,527.125 Q458.0844,527.2969 458.0844,527.5156 Q458.0844,527.7344 457.85,528 Q457.5219,528.375 457.0063,528.5938 Q456.3188,528.875 455.475,528.875 Q454.5063,528.875 453.725,528.4844 Q453.0844,528.1563 452.6391,527.4609 Q452.1938,526.7656 452.1938,525.9375 L452.1938,525.1875 Q452.1938,524.3281 452.5922,523.5859 Q452.9906,522.8438 453.7016,522.4453 Q454.4125,522.0469 455.2094,522.0469 Q455.6781,522.0469 456.1,522.1563 Q456.5219,522.2656 456.8813,522.4844 Z " fill="#000000"/><text fill="#000000" font-family="sans-serif" font-size="11" lengthAdjust="spacing" textLength="43" x="471.65" y="529.7197">AuditLog</text><line style="stroke:#181818;stroke-width:0.5;" x1="424" x2="536" y1="539.2188" y2="539.2188"/><text fill="#000000" font-family="sans-serif" font-size="11" lengthAdjust="spacing" textLength="41" x="429" y="554.6377">-id: UUID</text><text fill="#000000" font-family="sans-serif" font-size="11" lengthAdjust="spacing" textLength="67" x="429" y="568.4736">-entityId: UUID</text><text fill="#000000" font-family="sans-serif" font-size="11" lengthAdjust="spacing" textLength="67" x="429" y="582.3096">-action: String</text><text fill="#000000" font-family="sans-serif" font-size="11" lengthAdjust="spacing" textLength="102" x="429" y="596.1455">-timestamp: DateTime</text><text fill="#000000" font-family="sans-serif" font-size="11" lengthAdjust="spacing" textLength="63" x="429" y="609.9814">-userId: UUID</text><line style="stroke:#181818;stroke-width:0.5;" x1="424" x2="536" y1="616.3984" y2="616.3984"/><text fill="#000000" font-family="sans-serif" font-size="11" lengthAdjust="spacing" textLength="81" x="429" y="631.8174">+getUser(): User</text><text fill="#000000" font-family="sans-serif" font-size="11" lengthAdjust="spacing" textLength="69" x="429" y="645.6533">+getDiff(): Diff</text></g><!--class ImpactAnalysis--><g id="elem_ImpactAnalysis"><rect codeLine="68" fill="#F1F1F1" height="127.0156" id="ImpactAnalysis" rx="2.5" ry="2.5" style="stroke:#181818;stroke-width:0.5;" width="182" x="355" y="324.2188"/><ellipse cx="405.75" cy="338.2188" fill="#ADD1B2" rx="9" ry="9" style="stroke:#181818;stroke-width:1.0;"/><path d="M407.2813,335.4844 Q407.375,335.3438 407.5,335.2734 Q407.625,335.2031 407.7656,335.2031 Q408,335.2031 408.1563,335.375 Q408.3125,335.5469 408.3125,335.9375 L408.3125,336.875 Q408.3125,337.2656 408.1563,337.4375 Q408,337.6094 407.7656,337.6094 Q407.5469,337.6094 407.4063,337.4844 Q407.2656,337.3594 407.2031,337.0313 Q407.1719,336.7969 407.0625,336.6719 Q406.8438,336.4375 406.4453,336.2891 Q406.0469,336.1406 405.6563,336.1406 Q405.1563,336.1406 404.7422,336.3594 Q404.3281,336.5781 404.0078,337.0625 Q403.6875,337.5469 403.6875,338.2031 L403.6875,338.9219 Q403.6875,339.7188 404.2656,340.25 Q404.8438,340.7813 405.875,340.7813 Q406.4844,340.7813 406.9063,340.6094 Q407.1563,340.5156 407.4375,340.2344 Q407.6094,340.0625 407.7031,340.0078 Q407.7969,339.9531 407.9219,339.9531 Q408.1406,339.9531 408.3125,340.125 Q408.4844,340.2969 408.4844,340.5156 Q408.4844,340.7344 408.25,341 Q407.9219,341.375 407.4063,341.5938 Q406.7188,341.875 405.875,341.875 Q404.9063,341.875 404.125,341.4844 Q403.4844,341.1563 403.0391,340.4609 Q402.5938,339.7656 402.5938,338.9375 L402.5938,338.1875 Q402.5938,337.3281 402.9922,336.5859 Q403.3906,335.8438 404.1016,335.4453 Q404.8125,335.0469 405.6094,335.0469 Q406.0781,335.0469 406.5,335.1563 Q406.9219,335.2656 407.2813,335.4844 Z " fill="#000000"/><text fill="#000000" font-family="sans-serif" font-size="11" lengthAdjust="spacing" textLength="73" x="423.25" y="342.7197">ImpactAnalysis</text><line style="stroke:#181818;stroke-width:0.5;" x1="356" x2="536" y1="352.2188" y2="352.2188"/><text fill="#000000" font-family="sans-serif" font-size="11" lengthAdjust="spacing" textLength="41" x="361" y="367.6377">-id: UUID</text><text fill="#000000" font-family="sans-serif" font-size="11" lengthAdjust="spacing" textLength="68" x="361" y="381.4736">-assetId: UUID</text><text fill="#000000" font-family="sans-serif" font-size="11" lengthAdjust="spacing" textLength="100" x="361" y="395.3096">-impactScope: String</text><text fill="#000000" font-family="sans-serif" font-size="11" lengthAdjust="spacing" textLength="119" x="361" y="409.1455">-affectedAssets: Integer</text><line style="stroke:#181818;stroke-width:0.5;" x1="356" x2="536" y1="415.5625" y2="415.5625"/><text fill="#000000" font-family="sans-serif" font-size="11" lengthAdjust="spacing" textLength="121" x="361" y="430.9814">+analyze(): ImpactReport</text><text fill="#000000" font-family="sans-serif" font-size="11" lengthAdjust="spacing" textLength="170" x="361" y="444.8174">+getAffectedAssets(): DataAsset[]</text></g><!--reverse link DataLineage to LineageNode--><g id="link_DataLineage_LineageNode"><path codeLine="79" d="M267.25,276.4288 C267.25,296.2088 267.25,305.2188 267.25,324.1988 " fill="none" id="DataLineage-backto-LineageNode" style="stroke:#181818;stroke-width:1.0;"/><polygon fill="#181818" points="267.25,264.4288,263.25,270.4288,267.25,276.4288,271.25,270.4288,267.25,264.4288" style="stroke:#181818;stroke-width:1.0;"/><polygon fill="#000000" points="217.25,291.2267,219.6011,283.9907,214.8989,283.9907,217.25,291.2267" style="stroke:#000000;stroke-width:1.0;"/><text fill="#000000" font-family="sans-serif" font-size="11" lengthAdjust="spacing" textLength="41" x="225.25" y="291.7277">contains</text><text fill="#000000" font-family="sans-serif" font-size="11" lengthAdjust="spacing" textLength="6" x="255.3051" y="283.3988">1</text><text fill="#000000" font-family="sans-serif" font-size="11" lengthAdjust="spacing" textLength="16" x="253.4602" y="313.6989">2..*</text></g><!--link LineageNode to LineageEdge--><g id="link_LineageNode_LineageEdge"><path codeLine="80" d="M186.25,451.4088 C186.25,508.1287 186.25,582.2188 186.25,582.2188 C186.25,582.2188 179.11,582.2188 168.85,582.2188 " fill="none" id="LineageNode-LineageEdge" style="stroke:#181818;stroke-width:1.0;"/><polygon fill="#000000" points="110.7226,522.3918,114.0073,515.5289,109.3461,514.9089,110.7226,522.3918" style="stroke:#000000;stroke-width:1.0;"/><text fill="#000000" font-family="sans-serif" font-size="11" lengthAdjust="spacing" textLength="66" x="119.25" y="522.9277">connected by</text><text fill="#000000" font-family="sans-serif" font-size="11" lengthAdjust="spacing" textLength="6" x="173.8242" y="470.5496">1</text><text fill="#000000" font-family="sans-serif" font-size="11" lengthAdjust="spacing" textLength="16" x="176.556" y="580.1049">0..*</text></g><!--link DataLineage to ImpactAnalysis--><g id="link_DataLineage_ImpactAnalysis"><path codeLine="83" d="M401,264.4288 C401,284.2088 401,305.2188 401,324.1988 " fill="none" id="DataLineage-ImpactAnalysis" style="stroke:#181818;stroke-width:1.0;"/><polygon fill="#000000" points="333,291.2267,335.3511,283.9907,330.6489,283.9907,333,291.2267" style="stroke:#000000;stroke-width:1.0;"/><text fill="#000000" font-family="sans-serif" font-size="11" lengthAdjust="spacing" textLength="59" x="341" y="291.7277">analyzed by</text><text fill="#000000" font-family="sans-serif" font-size="11" lengthAdjust="spacing" textLength="6" x="400.9672" y="283.3988">1</text><text fill="#000000" font-family="sans-serif" font-size="11" lengthAdjust="spacing" textLength="18" x="376.0813" y="313.6989">0..1</text></g><!--link LineageNode to VersionHistory--><g id="link_LineageNode_VersionHistory"><path codeLine="84" d="M242.5,451.2388 C242.5,472.6788 242.5,496.6088 242.5,518.0488 " fill="none" id="LineageNode-VersionHistory" style="stroke:#181818;stroke-width:1.0;"/><polygon fill="#000000" points="170.5,481.5667,172.8511,474.3307,168.1489,474.3307,170.5,481.5667" style="stroke:#000000;stroke-width:1.0;"/><text fill="#000000" font-family="sans-serif" font-size="11" lengthAdjust="spacing" textLength="63" x="178.5" y="482.0677">versioned by</text><text fill="#000000" font-family="sans-serif" font-size="11" lengthAdjust="spacing" textLength="6" x="236.2109" y="470.8012">1</text><text fill="#000000" font-family="sans-serif" font-size="11" lengthAdjust="spacing" textLength="16" x="219.0047" y="507.9657">0..*</text></g><!--link LineageNode to AuditLog--><g id="link_LineageNode_AuditLog"><path codeLine="85" d="M281,451.4688 C281,483.3388 281,515.2188 281,515.2188 C281,515.2188 364.17,515.2188 422.97,515.2188 " fill="none" id="LineageNode-AuditLog" style="stroke:#181818;stroke-width:1.0;"/><polygon fill="#000000" points="268.759,509.7753,263.121,504.6663,261.1948,508.9559,268.759,509.7753" style="stroke:#000000;stroke-width:1.0;"/><text fill="#000000" font-family="sans-serif" font-size="11" lengthAdjust="spacing" textLength="46" x="273.11" y="512.6377">audited in</text><text fill="#000000" font-family="sans-serif" font-size="11" lengthAdjust="spacing" textLength="6" x="278.9375" y="470.6161">1</text><text fill="#000000" font-family="sans-serif" font-size="11" lengthAdjust="spacing" textLength="16" x="399.0445" y="504.8008">0..*</text></g><!--SRC=[dLNDRjf04BxxAQRqK495bEGM524vG59K0X6GNjeABVPYhs9shTrn4ArowoFqtdEU8o_KH-Xu-T5YZ9B61rXx_hxlsvtPTo6V2ScXr-rt_ElEf3Ne3ORm_lAiStbrvddcNiYKQJQ7b0NtBE8ZN2OSD0-GoIZXZeE9MQWMGaOmOubnBLCAZRJAPDXIYTAmY0MwTeB0iWIlbCIH-C7XzDGn9eGEboa7fJ5MZY58c34-eXRJ37atKD86dtWU2YICjLfRpPcGSDw0DaC6FSf43E268wlVg90djTetwNbhPb3v- -VtBsZxOt-ZHWMOWTlFrvFrErnSjC-RpO9OFpsWn_vOJBRQfjZAc3zr4643xkwwRUSJkNFixdzFLk5Z8jw04N6KaMEL1Bv5Uc83kX9vnBLZv65qo3YPR9SV8U9ubnhKdCsh8KyntleVhGJpSsnVl- -6jDL2_b_GWp0PIsXhgkHohLaQM-DZKRMrOdtYzcRL-0DFoZJ91IlLigZ8BTDSeicXEdYA8hHYaOJaMEvsY5adVFay69Nfm2OheOTCK_43HiqJXaB9Lz4SsJ85-BikOrkip6MFtnUk3LN-90mglNphvZsiilIp-PJhiaqCOXevFFJHdZG-5dD-a61Rp6PLXN6UQHTUVax9wBXhdXki6jiJN4xKpqA1FHMzH96EaC1b2KSMv5jKqj58P0ooULh2hGwPuNelsruparFE8Vyl4SFblKUiEwSXYBvaoT88yzOT53RBA52bGulDPdHhqFxbqUQ5uSHoAAkHiS8sv2bT0Bky_9sCrP89v13z0CDrXnZxxWxfoca5QlKwLCwEZskLdKdK0BfOaAuH0qqRvnhpk3pin0spRMx3f4K7q-Kwj8W3Kch3rM5vVZ8WZ4gUdxY1Qcim77PQu-wWVrIATLsJLeMDQso4SweU1bpesyQc1LyNlMq6AfelAOekswRtwFq3]--></g></svg>