<?xml version="1.0" encoding="us-ascii" standalone="no"?><svg xmlns="http://www.w3.org/2000/svg" xmlns:xlink="http://www.w3.org/1999/xlink" contentStyleType="text/css" height="597px" preserveAspectRatio="none" style="width:1038px;height:597px;background:#FFFFFF;" version="1.1" viewBox="0 0 1038 597" width="1038px" zoomAndPan="magnify"><defs/><g><text fill="#000000" font-family="sans-serif" font-size="14" font-weight="bold" lengthAdjust="spacing" textLength="253" x="385.5" y="24.5332">Domain 1: Data Sources Meta-Model</text><text fill="#000000" font-family="sans-serif" font-size="14" font-weight="bold" lengthAdjust="spacing" textLength="4" x="510" y="42.1426">&#160;</text><!--cluster PKG_SOURCES--><g id="cluster_PKG_SOURCES"><rect fill="#E3F2FD" height="528" rx="2.5" ry="2.5" style="stroke:#000000;stroke-width:1.5;" width="1025" x="7" y="63.2188"/><text fill="#000000" font-family="sans-serif" font-size="11" font-style="italic" lengthAdjust="spacing" textLength="26" x="506.5" y="76.6377">&#171;D1&#187;</text><text fill="#000000" font-family="sans-serif" font-size="11" font-weight="bold" lengthAdjust="spacing" textLength="98" x="470.5" y="90.4736">&#128230; DATA SOURCES</text></g><!--class DataSource--><g id="elem_DataSource"><rect codeLine="19" fill="#F1F1F1" height="223.8672" id="DataSource" rx="2.5" ry="2.5" style="stroke:#181818;stroke-width:0.5;" width="172" x="458" y="109.2188"/><ellipse cx="511.25" cy="123.2188" fill="#A9DCDF" rx="9" ry="9" style="stroke:#181818;stroke-width:1.0;"/><path d="M512.3906,124.9531 L509.7188,124.9531 L509.4531,125.625 L509.7188,125.625 Q510.125,125.625 510.2891,125.7734 Q510.4531,125.9219 510.4531,126.1719 Q510.4531,126.4063 510.2891,126.5625 Q510.125,126.7188 509.7188,126.7188 L508.2344,126.7188 Q507.8438,126.7188 507.6719,126.5625 Q507.5,126.4063 507.5,126.1719 Q507.5,125.9219 507.6797,125.7656 Q507.8594,125.6094 508.2656,125.625 L510,121.3125 L509.2813,121.3125 Q508.875,121.3125 508.7109,121.1563 Q508.5469,121 508.5469,120.75 Q508.5469,120.5156 508.7109,120.3594 Q508.875,120.2031 509.2813,120.2031 L511.6563,120.2031 L513.8438,125.625 Q514.2344,125.625 514.3594,125.7031 Q514.6094,125.875 514.6094,126.1719 Q514.6094,126.4063 514.4375,126.5625 Q514.2656,126.7188 513.875,126.7188 L512.3906,126.7188 Q512,126.7188 511.8281,126.5625 Q511.6563,126.4063 511.6563,126.1719 Q511.6563,125.9219 511.8281,125.7734 Q512,125.625 512.3906,125.625 L512.6563,125.625 L512.3906,124.9531 Z M511.9375,123.8438 L511.0469,121.6719 L510.1563,123.8438 L511.9375,123.8438 Z " fill="#000000"/><text fill="#000000" font-family="sans-serif" font-size="11" font-style="italic" lengthAdjust="spacing" textLength="58" x="528.75" y="127.7197">DataSource</text><line style="stroke:#181818;stroke-width:0.5;" x1="459" x2="629" y1="137.2188" y2="137.2188"/><text fill="#000000" font-family="sans-serif" font-size="11" lengthAdjust="spacing" textLength="41" x="464" y="152.6377">-id: UUID</text><text fill="#000000" font-family="sans-serif" font-size="11" lengthAdjust="spacing" textLength="64" x="464" y="166.4736">-name: String</text><text fill="#000000" font-family="sans-serif" font-size="11" lengthAdjust="spacing" textLength="96" x="464" y="180.3096">-sourceType: String</text><text fill="#000000" font-family="sans-serif" font-size="11" lengthAdjust="spacing" textLength="119" x="464" y="194.1455">-connectionString: String</text><text fill="#000000" font-family="sans-serif" font-size="11" lengthAdjust="spacing" textLength="88" x="464" y="207.9814">-isActive: Boolean</text><text fill="#000000" font-family="sans-serif" font-size="11" lengthAdjust="spacing" textLength="102" x="464" y="221.8174">-createdAt: DateTime</text><text fill="#000000" font-family="sans-serif" font-size="11" lengthAdjust="spacing" textLength="104" x="464" y="235.6533">-updatedAt: DateTime</text><line style="stroke:#181818;stroke-width:0.5;" x1="459" x2="629" y1="242.0703" y2="242.0703"/><text fill="#000000" font-family="sans-serif" font-size="11" font-style="italic" lengthAdjust="spacing" textLength="115" x="464" y="257.4893">+connect(): Connection</text><text fill="#000000" font-family="sans-serif" font-size="11" font-style="italic" lengthAdjust="spacing" textLength="134" x="464" y="271.3252">+testConnection(): Boolean</text><text fill="#000000" font-family="sans-serif" font-size="11" font-style="italic" lengthAdjust="spacing" textLength="160" x="464" y="285.1611">+getMetadata(): SourceMetadata</text><text fill="#000000" font-family="sans-serif" font-size="11" lengthAdjust="spacing" textLength="93" x="464" y="298.9971">+disconnect(): void</text><text fill="#000000" font-family="sans-serif" font-size="11" lengthAdjust="spacing" textLength="150" x="464" y="312.833">+validateCredentials(): Boolean</text><text fill="#000000" font-family="sans-serif" font-size="11" lengthAdjust="spacing" textLength="158" x="464" y="326.6689">+getStatistics(): SourceStatistics</text></g><!--class StructuredDataSource--><g id="elem_StructuredDataSource"><rect codeLine="36" fill="#F1F1F1" height="182.3594" id="StructuredDataSource" rx="2.5" ry="2.5" style="stroke:#181818;stroke-width:0.5;" width="195" x="23.5" y="393.2188"/><ellipse cx="63.25" cy="407.2188" fill="#ADD1B2" rx="9" ry="9" style="stroke:#181818;stroke-width:1.0;"/><path d="M64.7813,404.4844 Q64.875,404.3438 65,404.2734 Q65.125,404.2031 65.2656,404.2031 Q65.5,404.2031 65.6563,404.375 Q65.8125,404.5469 65.8125,404.9375 L65.8125,405.875 Q65.8125,406.2656 65.6563,406.4375 Q65.5,406.6094 65.2656,406.6094 Q65.0469,406.6094 64.9063,406.4844 Q64.7656,406.3594 64.7031,406.0313 Q64.6719,405.7969 64.5625,405.6719 Q64.3438,405.4375 63.9453,405.2891 Q63.5469,405.1406 63.1563,405.1406 Q62.6563,405.1406 62.2422,405.3594 Q61.8281,405.5781 61.5078,406.0625 Q61.1875,406.5469 61.1875,407.2031 L61.1875,407.9219 Q61.1875,408.7188 61.7656,409.25 Q62.3438,409.7813 63.375,409.7813 Q63.9844,409.7813 64.4063,409.6094 Q64.6563,409.5156 64.9375,409.2344 Q65.1094,409.0625 65.2031,409.0078 Q65.2969,408.9531 65.4219,408.9531 Q65.6406,408.9531 65.8125,409.125 Q65.9844,409.2969 65.9844,409.5156 Q65.9844,409.7344 65.75,410 Q65.4219,410.375 64.9063,410.5938 Q64.2188,410.875 63.375,410.875 Q62.4063,410.875 61.625,410.4844 Q60.9844,410.1563 60.5391,409.4609 Q60.0938,408.7656 60.0938,407.9375 L60.0938,407.1875 Q60.0938,406.3281 60.4922,405.5859 Q60.8906,404.8438 61.6016,404.4453 Q62.3125,404.0469 63.1094,404.0469 Q63.5781,404.0469 64,404.1563 Q64.4219,404.2656 64.7813,404.4844 Z " fill="#000000"/><text fill="#000000" font-family="sans-serif" font-size="11" lengthAdjust="spacing" textLength="108" x="80.75" y="411.7197">StructuredDataSource</text><line style="stroke:#181818;stroke-width:0.5;" x1="24.5" x2="217.5" y1="421.2188" y2="421.2188"/><text fill="#000000" font-family="sans-serif" font-size="11" lengthAdjust="spacing" textLength="107" x="29.5" y="436.6377">-databaseType: String</text><text fill="#000000" font-family="sans-serif" font-size="11" lengthAdjust="spacing" textLength="103" x="29.5" y="450.4736">-schemaName: String</text><text fill="#000000" font-family="sans-serif" font-size="11" lengthAdjust="spacing" textLength="94" x="29.5" y="464.3096">-tableCount: Integer</text><text fill="#000000" font-family="sans-serif" font-size="11" lengthAdjust="spacing" textLength="74" x="29.5" y="478.1455">-version: String</text><line style="stroke:#181818;stroke-width:0.5;" x1="24.5" x2="217.5" y1="484.5625" y2="484.5625"/><text fill="#000000" font-family="sans-serif" font-size="11" lengthAdjust="spacing" textLength="113" x="29.5" y="499.9814">+connect(): Connection</text><text fill="#000000" font-family="sans-serif" font-size="11" lengthAdjust="spacing" textLength="131" x="29.5" y="513.8174">+testConnection(): Boolean</text><text fill="#000000" font-family="sans-serif" font-size="11" lengthAdjust="spacing" textLength="158" x="29.5" y="527.6533">+getMetadata(): SourceMetadata</text><text fill="#000000" font-family="sans-serif" font-size="11" lengthAdjust="spacing" textLength="97" x="29.5" y="541.4893">+listTables(): Table[]</text><text fill="#000000" font-family="sans-serif" font-size="11" lengthAdjust="spacing" textLength="123" x="29.5" y="555.3252">+listSchemas(): Schema[]</text><text fill="#000000" font-family="sans-serif" font-size="11" lengthAdjust="spacing" textLength="183" x="29.5" y="569.1611">+executeQuery(sql: String): ResultSet</text></g><!--class SemiStructuredDataSource--><g id="elem_SemiStructuredDataSource"><rect codeLine="50" fill="#F1F1F1" height="154.6875" id="SemiStructuredDataSource" rx="2.5" ry="2.5" style="stroke:#181818;stroke-width:0.5;" width="170" x="254" y="406.7188"/><ellipse cx="271.95" cy="420.7188" fill="#ADD1B2" rx="9" ry="9" style="stroke:#181818;stroke-width:1.0;"/><path d="M273.4813,417.9844 Q273.575,417.8438 273.7,417.7734 Q273.825,417.7031 273.9656,417.7031 Q274.2,417.7031 274.3563,417.875 Q274.5125,418.0469 274.5125,418.4375 L274.5125,419.375 Q274.5125,419.7656 274.3563,419.9375 Q274.2,420.1094 273.9656,420.1094 Q273.7469,420.1094 273.6063,419.9844 Q273.4656,419.8594 273.4031,419.5313 Q273.3719,419.2969 273.2625,419.1719 Q273.0438,418.9375 272.6453,418.7891 Q272.2469,418.6406 271.8563,418.6406 Q271.3563,418.6406 270.9422,418.8594 Q270.5281,419.0781 270.2078,419.5625 Q269.8875,420.0469 269.8875,420.7031 L269.8875,421.4219 Q269.8875,422.2188 270.4656,422.75 Q271.0438,423.2813 272.075,423.2813 Q272.6844,423.2813 273.1063,423.1094 Q273.3563,423.0156 273.6375,422.7344 Q273.8094,422.5625 273.9031,422.5078 Q273.9969,422.4531 274.1219,422.4531 Q274.3406,422.4531 274.5125,422.625 Q274.6844,422.7969 274.6844,423.0156 Q274.6844,423.2344 274.45,423.5 Q274.1219,423.875 273.6063,424.0938 Q272.9188,424.375 272.075,424.375 Q271.1063,424.375 270.325,423.9844 Q269.6844,423.6563 269.2391,422.9609 Q268.7938,422.2656 268.7938,421.4375 L268.7938,420.6875 Q268.7938,419.8281 269.1922,419.0859 Q269.5906,418.3438 270.3016,417.9453 Q271.0125,417.5469 271.8094,417.5469 Q272.2781,417.5469 272.7,417.6563 Q273.1219,417.7656 273.4813,417.9844 Z " fill="#000000"/><text fill="#000000" font-family="sans-serif" font-size="11" lengthAdjust="spacing" textLength="131" x="285.05" y="425.2197">SemiStructuredDataSource</text><line style="stroke:#181818;stroke-width:0.5;" x1="255" x2="423" y1="434.7188" y2="434.7188"/><text fill="#000000" font-family="sans-serif" font-size="11" lengthAdjust="spacing" textLength="69" x="260" y="450.1377">-format: String</text><text fill="#000000" font-family="sans-serif" font-size="11" lengthAdjust="spacing" textLength="126" x="260" y="463.9736">-schemaOnRead: Boolean</text><text fill="#000000" font-family="sans-serif" font-size="11" lengthAdjust="spacing" textLength="82" x="260" y="477.8096">-encoding: String</text><line style="stroke:#181818;stroke-width:0.5;" x1="255" x2="423" y1="484.2266" y2="484.2266"/><text fill="#000000" font-family="sans-serif" font-size="11" lengthAdjust="spacing" textLength="113" x="260" y="499.6455">+connect(): Connection</text><text fill="#000000" font-family="sans-serif" font-size="11" lengthAdjust="spacing" textLength="131" x="260" y="513.4814">+testConnection(): Boolean</text><text fill="#000000" font-family="sans-serif" font-size="11" lengthAdjust="spacing" textLength="158" x="260" y="527.3174">+getMetadata(): SourceMetadata</text><text fill="#000000" font-family="sans-serif" font-size="11" lengthAdjust="spacing" textLength="120" x="260" y="541.1533">+inferSchema(): Schema</text><text fill="#000000" font-family="sans-serif" font-size="11" lengthAdjust="spacing" textLength="129" x="260" y="554.9893">+validateFormat(): Boolean</text></g><!--class UnstructuredDataSource--><g id="elem_UnstructuredDataSource"><rect codeLine="62" fill="#F1F1F1" height="154.6875" id="UnstructuredDataSource" rx="2.5" ry="2.5" style="stroke:#181818;stroke-width:0.5;" width="170" x="459" y="406.7188"/><ellipse cx="481.9" cy="420.7188" fill="#ADD1B2" rx="9" ry="9" style="stroke:#181818;stroke-width:1.0;"/><path d="M483.4313,417.9844 Q483.525,417.8438 483.65,417.7734 Q483.775,417.7031 483.9156,417.7031 Q484.15,417.7031 484.3063,417.875 Q484.4625,418.0469 484.4625,418.4375 L484.4625,419.375 Q484.4625,419.7656 484.3063,419.9375 Q484.15,420.1094 483.9156,420.1094 Q483.6969,420.1094 483.5563,419.9844 Q483.4156,419.8594 483.3531,419.5313 Q483.3219,419.2969 483.2125,419.1719 Q482.9938,418.9375 482.5953,418.7891 Q482.1969,418.6406 481.8063,418.6406 Q481.3063,418.6406 480.8922,418.8594 Q480.4781,419.0781 480.1578,419.5625 Q479.8375,420.0469 479.8375,420.7031 L479.8375,421.4219 Q479.8375,422.2188 480.4156,422.75 Q480.9938,423.2813 482.025,423.2813 Q482.6344,423.2813 483.0563,423.1094 Q483.3063,423.0156 483.5875,422.7344 Q483.7594,422.5625 483.8531,422.5078 Q483.9469,422.4531 484.0719,422.4531 Q484.2906,422.4531 484.4625,422.625 Q484.6344,422.7969 484.6344,423.0156 Q484.6344,423.2344 484.4,423.5 Q484.0719,423.875 483.5563,424.0938 Q482.8688,424.375 482.025,424.375 Q481.0563,424.375 480.275,423.9844 Q479.6344,423.6563 479.1891,422.9609 Q478.7438,422.2656 478.7438,421.4375 L478.7438,420.6875 Q478.7438,419.8281 479.1422,419.0859 Q479.5406,418.3438 480.2516,417.9453 Q480.9625,417.5469 481.7594,417.5469 Q482.2281,417.5469 482.65,417.6563 Q483.0719,417.7656 483.4313,417.9844 Z " fill="#000000"/><text fill="#000000" font-family="sans-serif" font-size="11" lengthAdjust="spacing" textLength="120" x="496.1" y="425.2197">UnstructuredDataSource</text><line style="stroke:#181818;stroke-width:0.5;" x1="460" x2="628" y1="434.7188" y2="434.7188"/><text fill="#000000" font-family="sans-serif" font-size="11" lengthAdjust="spacing" textLength="76" x="465" y="450.1377">-fileType: String</text><text fill="#000000" font-family="sans-serif" font-size="11" lengthAdjust="spacing" textLength="82" x="465" y="463.9736">-encoding: String</text><text fill="#000000" font-family="sans-serif" font-size="11" lengthAdjust="spacing" textLength="86" x="465" y="477.8096">-mimeType: String</text><line style="stroke:#181818;stroke-width:0.5;" x1="460" x2="628" y1="484.2266" y2="484.2266"/><text fill="#000000" font-family="sans-serif" font-size="11" lengthAdjust="spacing" textLength="113" x="465" y="499.6455">+connect(): Connection</text><text fill="#000000" font-family="sans-serif" font-size="11" lengthAdjust="spacing" textLength="131" x="465" y="513.4814">+testConnection(): Boolean</text><text fill="#000000" font-family="sans-serif" font-size="11" lengthAdjust="spacing" textLength="158" x="465" y="527.3174">+getMetadata(): SourceMetadata</text><text fill="#000000" font-family="sans-serif" font-size="11" lengthAdjust="spacing" textLength="113" x="465" y="541.1533">+readContent(): Stream</text><text fill="#000000" font-family="sans-serif" font-size="11" lengthAdjust="spacing" textLength="90" x="465" y="554.9893">+getFileList(): File[]</text></g><!--class SourceCredential--><g id="elem_SourceCredential"><rect codeLine="74" fill="#F1F1F1" height="182.3594" id="SourceCredential" rx="2.5" ry="2.5" style="stroke:#181818;stroke-width:0.5;" width="181" x="664.5" y="393.2188"/><ellipse cx="709.75" cy="407.2188" fill="#ADD1B2" rx="9" ry="9" style="stroke:#181818;stroke-width:1.0;"/><path d="M711.2813,404.4844 Q711.375,404.3438 711.5,404.2734 Q711.625,404.2031 711.7656,404.2031 Q712,404.2031 712.1563,404.375 Q712.3125,404.5469 712.3125,404.9375 L712.3125,405.875 Q712.3125,406.2656 712.1563,406.4375 Q712,406.6094 711.7656,406.6094 Q711.5469,406.6094 711.4063,406.4844 Q711.2656,406.3594 711.2031,406.0313 Q711.1719,405.7969 711.0625,405.6719 Q710.8438,405.4375 710.4453,405.2891 Q710.0469,405.1406 709.6563,405.1406 Q709.1563,405.1406 708.7422,405.3594 Q708.3281,405.5781 708.0078,406.0625 Q707.6875,406.5469 707.6875,407.2031 L707.6875,407.9219 Q707.6875,408.7188 708.2656,409.25 Q708.8438,409.7813 709.875,409.7813 Q710.4844,409.7813 710.9063,409.6094 Q711.1563,409.5156 711.4375,409.2344 Q711.6094,409.0625 711.7031,409.0078 Q711.7969,408.9531 711.9219,408.9531 Q712.1406,408.9531 712.3125,409.125 Q712.4844,409.2969 712.4844,409.5156 Q712.4844,409.7344 712.25,410 Q711.9219,410.375 711.4063,410.5938 Q710.7188,410.875 709.875,410.875 Q708.9063,410.875 708.125,410.4844 Q707.4844,410.1563 707.0391,409.4609 Q706.5938,408.7656 706.5938,407.9375 L706.5938,407.1875 Q706.5938,406.3281 706.9922,405.5859 Q707.3906,404.8438 708.1016,404.4453 Q708.8125,404.0469 709.6094,404.0469 Q710.0781,404.0469 710.5,404.1563 Q710.9219,404.2656 711.2813,404.4844 Z " fill="#000000"/><text fill="#000000" font-family="sans-serif" font-size="11" lengthAdjust="spacing" textLength="83" x="727.25" y="411.7197">SourceCredential</text><line style="stroke:#181818;stroke-width:0.5;" x1="665.5" x2="844.5" y1="421.2188" y2="421.2188"/><text fill="#000000" font-family="sans-serif" font-size="11" lengthAdjust="spacing" textLength="41" x="670.5" y="436.6377">-id: UUID</text><text fill="#000000" font-family="sans-serif" font-size="11" lengthAdjust="spacing" textLength="75" x="670.5" y="450.4736">-sourceId: UUID</text><text fill="#000000" font-family="sans-serif" font-size="11" lengthAdjust="spacing" textLength="109" x="670.5" y="464.3096">-credentialType: String</text><text fill="#000000" font-family="sans-serif" font-size="11" lengthAdjust="spacing" textLength="86" x="670.5" y="478.1455">-username: String</text><text fill="#000000" font-family="sans-serif" font-size="11" lengthAdjust="spacing" textLength="137" x="670.5" y="491.9814">-encryptedPassword: String</text><text fill="#000000" font-family="sans-serif" font-size="11" lengthAdjust="spacing" textLength="108" x="670.5" y="505.8174">-lastRotated: DateTime</text><line style="stroke:#181818;stroke-width:0.5;" x1="665.5" x2="844.5" y1="512.2344" y2="512.2344"/><text fill="#000000" font-family="sans-serif" font-size="11" lengthAdjust="spacing" textLength="169" x="670.5" y="527.6533">+encrypt(password: String): String</text><text fill="#000000" font-family="sans-serif" font-size="11" lengthAdjust="spacing" textLength="85" x="670.5" y="541.4893">+decrypt(): String</text><text fill="#000000" font-family="sans-serif" font-size="11" lengthAdjust="spacing" textLength="68" x="670.5" y="555.3252">+rotate(): void</text><text fill="#000000" font-family="sans-serif" font-size="11" lengthAdjust="spacing" textLength="96" x="670.5" y="569.1611">+validate(): Boolean</text></g><!--class SourceConnection--><g id="elem_SourceConnection"><rect codeLine="88" fill="#F1F1F1" height="168.5234" id="SourceConnection" rx="2.5" ry="2.5" style="stroke:#181818;stroke-width:0.5;" width="135" x="880.5" y="399.7188"/><ellipse cx="901.6" cy="413.7188" fill="#ADD1B2" rx="9" ry="9" style="stroke:#181818;stroke-width:1.0;"/><path d="M903.1313,410.9844 Q903.225,410.8438 903.35,410.7734 Q903.475,410.7031 903.6156,410.7031 Q903.85,410.7031 904.0063,410.875 Q904.1625,411.0469 904.1625,411.4375 L904.1625,412.375 Q904.1625,412.7656 904.0063,412.9375 Q903.85,413.1094 903.6156,413.1094 Q903.3969,413.1094 903.2563,412.9844 Q903.1156,412.8594 903.0531,412.5313 Q903.0219,412.2969 902.9125,412.1719 Q902.6938,411.9375 902.2953,411.7891 Q901.8969,411.6406 901.5063,411.6406 Q901.0063,411.6406 900.5922,411.8594 Q900.1781,412.0781 899.8578,412.5625 Q899.5375,413.0469 899.5375,413.7031 L899.5375,414.4219 Q899.5375,415.2188 900.1156,415.75 Q900.6938,416.2813 901.725,416.2813 Q902.3344,416.2813 902.7563,416.1094 Q903.0063,416.0156 903.2875,415.7344 Q903.4594,415.5625 903.5531,415.5078 Q903.6469,415.4531 903.7719,415.4531 Q903.9906,415.4531 904.1625,415.625 Q904.3344,415.7969 904.3344,416.0156 Q904.3344,416.2344 904.1,416.5 Q903.7719,416.875 903.2563,417.0938 Q902.5688,417.375 901.725,417.375 Q900.7563,417.375 899.975,416.9844 Q899.3344,416.6563 898.8891,415.9609 Q898.4438,415.2656 898.4438,414.4375 L898.4438,413.6875 Q898.4438,412.8281 898.8422,412.0859 Q899.2406,411.3438 899.9516,410.9453 Q900.6625,410.5469 901.4594,410.5469 Q901.9281,410.5469 902.35,410.6563 Q902.7719,410.7656 903.1313,410.9844 Z " fill="#000000"/><text fill="#000000" font-family="sans-serif" font-size="11" lengthAdjust="spacing" textLength="89" x="915.4" y="418.2197">SourceConnection</text><line style="stroke:#181818;stroke-width:0.5;" x1="881.5" x2="1014.5" y1="427.7188" y2="427.7188"/><text fill="#000000" font-family="sans-serif" font-size="11" lengthAdjust="spacing" textLength="41" x="886.5" y="443.1377">-id: UUID</text><text fill="#000000" font-family="sans-serif" font-size="11" lengthAdjust="spacing" textLength="75" x="886.5" y="456.9736">-sourceId: UUID</text><text fill="#000000" font-family="sans-serif" font-size="11" lengthAdjust="spacing" textLength="122" x="886.5" y="470.8096">-connectionStatus: String</text><text fill="#000000" font-family="sans-serif" font-size="11" lengthAdjust="spacing" textLength="123" x="886.5" y="484.6455">-lastConnected: DateTime</text><text fill="#000000" font-family="sans-serif" font-size="11" lengthAdjust="spacing" textLength="101" x="886.5" y="498.4814">-failureCount: Integer</text><line style="stroke:#181818;stroke-width:0.5;" x1="881.5" x2="1014.5" y1="504.8984" y2="504.8984"/><text fill="#000000" font-family="sans-serif" font-size="11" lengthAdjust="spacing" textLength="64" x="886.5" y="520.3174">+open(): void</text><text fill="#000000" font-family="sans-serif" font-size="11" lengthAdjust="spacing" textLength="66" x="886.5" y="534.1533">+close(): void</text><text fill="#000000" font-family="sans-serif" font-size="11" lengthAdjust="spacing" textLength="79" x="886.5" y="547.9893">+ping(): Boolean</text><text fill="#000000" font-family="sans-serif" font-size="11" lengthAdjust="spacing" textLength="114" x="886.5" y="561.8252">+getLatency(): Duration</text></g><!--reverse link DataSource to StructuredDataSource--><g id="link_DataSource_StructuredDataSource"><path codeLine="102" d="M501.5,351.3188 C501.5,386.4388 501.5,398.2188 501.5,398.2188 C501.5,398.2188 331.73,398.2188 218.99,398.2188 " fill="none" id="DataSource-backto-StructuredDataSource" style="stroke:#181818;stroke-width:1.0;"/><polygon fill="none" points="501.5,333.3188,495.5,351.3188,507.5,351.3188,501.5,333.3188" style="stroke:#181818;stroke-width:1.0;"/></g><!--reverse link DataSource to SemiStructuredDataSource--><g id="link_DataSource_SemiStructuredDataSource"><path codeLine="103" d="M439.95,221.2188 C383.85,221.2188 339,221.2188 339,221.2188 C339,221.2188 339,328.8288 339,406.3787 " fill="none" id="DataSource-backto-SemiStructuredDataSource" style="stroke:#181818;stroke-width:1.0;"/><polygon fill="none" points="457.95,221.2188,439.95,215.2188,439.95,227.2188,457.95,221.2188" style="stroke:#181818;stroke-width:1.0;"/></g><!--reverse link DataSource to UnstructuredDataSource--><g id="link_DataSource_UnstructuredDataSource"><path codeLine="104" d="M544,351.5188 C544,376.0888 544,383.5788 544,406.4488 " fill="none" id="DataSource-backto-UnstructuredDataSource" style="stroke:#181818;stroke-width:1.0;"/><polygon fill="none" points="544,333.5188,538,351.5188,550,351.5188,544,333.5188" style="stroke:#181818;stroke-width:1.0;"/></g><!--link DataSource to SourceCredential--><g id="link_DataSource_SourceCredential"><path codeLine="106" d="M586.5,333.2788 C586.5,370.2988 586.5,402.2188 586.5,402.2188 C586.5,402.2188 624.46,402.2188 664.34,402.2188 " fill="none" id="DataSource-SourceCredential" style="stroke:#181818;stroke-width:1.0;"/><polygon fill="#000000" points="529.9444,397.7888,526.0863,391.2311,522.9686,394.7512,529.9444,397.7888" style="stroke:#000000;stroke-width:1.0;"/><text fill="#000000" font-family="sans-serif" font-size="11" lengthAdjust="spacing" textLength="55" x="534.95" y="399.6377">secured by</text><text fill="#000000" font-family="sans-serif" font-size="11" lengthAdjust="spacing" textLength="6" x="583.0305" y="352.324">1</text><text fill="#000000" font-family="sans-serif" font-size="11" lengthAdjust="spacing" textLength="18" x="638.3983" y="393.6043">0..1</text></g><!--link DataSource to SourceConnection--><g id="link_DataSource_SourceConnection"><path codeLine="107" d="M630.17,221.2188 C748.82,221.2188 948,221.2188 948,221.2188 C948,221.2188 948,322.6688 948,399.5588 " fill="none" id="DataSource-SourceConnection" style="stroke:#181818;stroke-width:1.0;"/><polygon fill="#000000" points="804.7484,216.0941,799.5884,210.5028,797.2873,214.6036,804.7484,216.0941" style="stroke:#000000;stroke-width:1.0;"/><text fill="#000000" font-family="sans-serif" font-size="11" lengthAdjust="spacing" textLength="68" x="809.26" y="218.6377">connected via</text><text fill="#000000" font-family="sans-serif" font-size="11" lengthAdjust="spacing" textLength="6" x="638.1117" y="219.1019">1</text><text fill="#000000" font-family="sans-serif" font-size="11" lengthAdjust="spacing" textLength="16" x="931.2375" y="389.3516">0..*</text></g><!--SRC=[nLNDRXen4BxlKxZqa8IAgBGtb4QY42hK9AGidDeAcTs1MF7QMzjBIjCyHH-WjpvV7w6pNduCU4DKHSeUaF4tu_dcc_7uWBnxmYyu8EtUHRDxUKRgf47QpK6JXBrXltKM4iIUD5Jm8eO94x0CC6hrpdjzylBiRUTDfnq4-eQ9b2gQa9H6DtGAePbp80eYGyMKWsEWhsaiRvcOaWdbsaN6w3fLCXDnItAfoEqrCowE56Z6JKSA4x8VGEfr1-J8pinJ85APQ-a04QTQDurHR9mPw4PIMEVNGM2OGOxLQbicb0bIHmsfeIIKcOf0amimj7OXO-3LwXSH18lCIENlxrz_DkIk4Ah9rSSFewNy9oVj-kdfbbXt0S7F_j2nDef6fY1dmnPH5qRvLoCiRf3XiDjsjWHDe452J4PCdMrjdGUOlWV4Z0NMWM7Y5lAOCDr4WnbwlvUI0nMkkm9g86uQAmyCM08EcgLnAJeQhPQloDqov_ibeSEZ1ccjkFbD3MYpjiazjWbkc4_1v5L3IZItBJHTxZWkCTCEYPbaiGFEA6TvKYq5CGZ3i4lzWJ5QQAXXsh18h-Ejzwpj_RhiHRLH_Imo6PvUKlUSx9Zgidhgw1eIUkdl1FJaqC8xX0Nf2WDJK0uw0wLHnns_ZKhjAyzZQlBOGd0KQf1JjlhPrUUlMtXeyoq4jiiD2_WE4TxhJnce-Q7-nfUveNKVD8wB44n97I1XUsinaIgXfhGAFT476lkk3OX8nhxRzcnQCp41LIYurjBJznsRydQi7Vc6GkyLZ_6o9YwLfqOId25UhsTJ3YSWFabucuIDXxI09fldT33LSspM7C_NYnxTRJeROprQzWtyOh9tTu5eTKI9mfa6LV9SeFXgdkBOla9AjrB57XjaQ_hIvCDztsXV77UORfrsj7CiJbueR7sOik4UcCXxUtAXxghi_w-kysPIa-aIWHQHl19X-rF6yNQKJECD2MKAmfDunANs2P8YbTAMFaSc8fhdU3jJT7Kl7BKES3PoYnHlb7D_JtxMQjudoczOCaEznlw9iMRbs5Vg5O8UbTV7nxZQkJGDed7gutyodfFJ1vohbTsUQ2ohY-upHj7_FWZ-0G00]--></g></svg>